G04*
G04 #@! TF.GenerationSoftware,Altium Limited,Altium Designer,21.6.1 (37)*
G04*
G04 Layer_Color=128*
%FSLAX42Y42*%
%MOMM*%
G71*
G04*
G04 #@! TF.SameCoordinates,C9D71314-30D1-4B66-A3B6-C5492FB532D2*
G04*
G04*
G04 #@! TF.FilePolarity,Positive*
G04*
G01*
G75*
%ADD13R,1.21X1.41*%
%ADD28R,0.53X2.29*%
%ADD31R,2.69X0.85*%
%ADD32R,2.18X2.21*%
%ADD33R,0.81X0.25*%
%ADD34R,10.72X10.36*%
%ADD35R,0.97X3.51*%
%ADD36R,1.75X2.70*%
%ADD37R,2.21X1.61*%
%ADD38R,2.80X1.78*%
%ADD40R,1.41X1.21*%
%ADD41R,1.61X2.21*%
G36*
X-2958Y-2366D02*
X-3114D01*
Y-2251D01*
X-2958D01*
Y-2366D01*
D02*
G37*
G36*
Y-2501D02*
X-3114D01*
Y-2386D01*
X-2958D01*
Y-2501D01*
D02*
G37*
G36*
X-1720Y-6171D02*
X-1945D01*
Y-5896D01*
X-1720D01*
Y-6171D01*
D02*
G37*
G36*
X-1990D02*
X-2215D01*
Y-5896D01*
X-1990D01*
Y-6171D01*
D02*
G37*
G36*
X-5544D02*
X-5769D01*
Y-5896D01*
X-5544D01*
Y-6171D01*
D02*
G37*
G36*
X-5814D02*
X-6039D01*
Y-5896D01*
X-5814D01*
Y-6171D01*
D02*
G37*
G36*
X-1720Y-6491D02*
X-1945D01*
Y-6216D01*
X-1720D01*
Y-6491D01*
D02*
G37*
G36*
X-1990D02*
X-2215D01*
Y-6216D01*
X-1990D01*
Y-6491D01*
D02*
G37*
G36*
X-5544D02*
X-5769D01*
Y-6216D01*
X-5544D01*
Y-6491D01*
D02*
G37*
G36*
X-5814D02*
X-6039D01*
Y-6216D01*
X-5814D01*
Y-6491D01*
D02*
G37*
G36*
X-1724Y-7385D02*
X-1949D01*
Y-7110D01*
X-1724D01*
Y-7385D01*
D02*
G37*
G36*
X-1994D02*
X-2219D01*
Y-7110D01*
X-1994D01*
Y-7385D01*
D02*
G37*
G36*
X-5544D02*
X-5769D01*
Y-7110D01*
X-5544D01*
Y-7385D01*
D02*
G37*
G36*
X-5814D02*
X-6039D01*
Y-7110D01*
X-5814D01*
Y-7385D01*
D02*
G37*
G36*
X-1724Y-7705D02*
X-1949D01*
Y-7430D01*
X-1724D01*
Y-7705D01*
D02*
G37*
G36*
X-1994D02*
X-2219D01*
Y-7430D01*
X-1994D01*
Y-7705D01*
D02*
G37*
G36*
X-5544D02*
X-5769D01*
Y-7430D01*
X-5544D01*
Y-7705D01*
D02*
G37*
G36*
X-5814D02*
X-6039D01*
Y-7430D01*
X-5814D01*
Y-7705D01*
D02*
G37*
D13*
X-1528Y-6447D02*
D03*
X-1378D02*
D03*
X-5438Y-3110D02*
D03*
X-5288D02*
D03*
X-5438Y-2871D02*
D03*
X-5288D02*
D03*
Y-2631D02*
D03*
X-4324Y-2101D02*
D03*
X-4174D02*
D03*
X-5438Y-2631D02*
D03*
D28*
X-4514Y-3519D02*
D03*
X-4641D02*
D03*
X-4768D02*
D03*
X-4895D02*
D03*
Y-3016D02*
D03*
X-4768D02*
D03*
X-4641D02*
D03*
X-4514D02*
D03*
D31*
Y-3932D02*
D03*
Y-4187D02*
D03*
D32*
X-3555Y-3529D02*
D03*
X-3927D02*
D03*
D33*
X-2889Y-2476D02*
D03*
Y-2426D02*
D03*
Y-2376D02*
D03*
Y-2326D02*
D03*
Y-2276D02*
D03*
X-3183Y-2476D02*
D03*
Y-2426D02*
D03*
Y-2376D02*
D03*
Y-2326D02*
D03*
Y-2276D02*
D03*
D34*
X-2901Y-4492D02*
D03*
D35*
Y-5457D02*
D03*
X-3071D02*
D03*
X-3241D02*
D03*
X-2561D02*
D03*
X-2731D02*
D03*
D36*
X-3036Y-2376D02*
D03*
D37*
X-4071Y-4187D02*
D03*
Y-4457D02*
D03*
X-5758Y-3394D02*
D03*
Y-3664D02*
D03*
X-5363Y-3394D02*
D03*
Y-3664D02*
D03*
X-2106Y-5147D02*
D03*
X-3683Y-2696D02*
D03*
X-4174Y-2681D02*
D03*
X-3650Y-5457D02*
D03*
X-4174Y-2411D02*
D03*
X-3683Y-2426D02*
D03*
X-3650Y-5187D02*
D03*
X-2106Y-5417D02*
D03*
D38*
X-182Y-4119D02*
D03*
Y-3103D02*
D03*
Y-3611D02*
D03*
Y-3865D02*
D03*
Y-3357D02*
D03*
Y-5389D02*
D03*
Y-4373D02*
D03*
Y-4627D02*
D03*
X-687D02*
D03*
X-182Y-5135D02*
D03*
Y-4881D02*
D03*
X-687Y-3611D02*
D03*
Y-3865D02*
D03*
Y-3357D02*
D03*
Y-4119D02*
D03*
Y-4373D02*
D03*
Y-4881D02*
D03*
Y-5135D02*
D03*
Y-5389D02*
D03*
X-182Y-6151D02*
D03*
Y-5643D02*
D03*
X-687Y-5897D02*
D03*
Y-5643D02*
D03*
X-182Y-5897D02*
D03*
X-687Y-6405D02*
D03*
Y-6151D02*
D03*
X-182Y-6913D02*
D03*
Y-6405D02*
D03*
Y-6659D02*
D03*
X-687D02*
D03*
Y-6913D02*
D03*
Y-3103D02*
D03*
X-182Y-2849D02*
D03*
X-687D02*
D03*
X-182Y-2595D02*
D03*
X-687D02*
D03*
X-182Y-2341D02*
D03*
X-687D02*
D03*
X-182Y-2087D02*
D03*
X-687D02*
D03*
X-7571D02*
D03*
X-7066D02*
D03*
X-7571Y-2341D02*
D03*
X-7066D02*
D03*
X-7571Y-2595D02*
D03*
X-7066D02*
D03*
X-7571Y-2849D02*
D03*
X-7066D02*
D03*
X-7571Y-3103D02*
D03*
X-7066Y-6913D02*
D03*
X-7571Y-6659D02*
D03*
Y-6913D02*
D03*
Y-6405D02*
D03*
Y-5897D02*
D03*
Y-6151D02*
D03*
Y-5643D02*
D03*
Y-5389D02*
D03*
X-7066Y-6659D02*
D03*
Y-6405D02*
D03*
Y-6151D02*
D03*
Y-5897D02*
D03*
Y-5135D02*
D03*
Y-5643D02*
D03*
Y-5389D02*
D03*
X-7571Y-4881D02*
D03*
Y-5135D02*
D03*
Y-4119D02*
D03*
Y-4627D02*
D03*
Y-4373D02*
D03*
Y-3865D02*
D03*
Y-3611D02*
D03*
Y-3357D02*
D03*
X-7066Y-4627D02*
D03*
Y-4881D02*
D03*
Y-4373D02*
D03*
Y-4119D02*
D03*
Y-3357D02*
D03*
Y-3865D02*
D03*
Y-3611D02*
D03*
Y-3103D02*
D03*
D40*
X-2606Y-2516D02*
D03*
Y-2666D02*
D03*
X-3650Y-4398D02*
D03*
Y-4548D02*
D03*
D41*
X-2901Y-1907D02*
D03*
X-3171D02*
D03*
Y-2761D02*
D03*
X-2901D02*
D03*
M02*
