G04*
G04 #@! TF.GenerationSoftware,Altium Limited,Altium Designer,21.6.1 (37)*
G04*
G04 Layer_Color=32768*
%FSLAX42Y42*%
%MOMM*%
G71*
G04*
G04 #@! TF.SameCoordinates,C9D71314-30D1-4B66-A3B6-C5492FB532D2*
G04*
G04*
G04 #@! TF.FilePolarity,Positive*
G04*
G01*
G75*
%ADD10C,0.10*%
%ADD46C,0.05*%
D10*
X-7144Y-1472D02*
X-6309D01*
X-7144D02*
Y-770D01*
X-6309D01*
Y-1472D02*
Y-770D01*
X-4240Y-8326D02*
Y-8231D01*
X-4288Y-8279D02*
X-4193D01*
X-4360Y-8224D02*
X-4120D01*
X-4360Y-8334D02*
X-4120D01*
X-4360D02*
Y-8224D01*
X-4120Y-8334D02*
Y-8224D01*
X-7143Y-8239D02*
Y-7536D01*
Y-8239D02*
X-6308D01*
Y-7536D01*
X-7143D02*
X-6308D01*
X-2509Y-1472D02*
Y-770D01*
X-3344D02*
X-2509D01*
X-3344Y-1472D02*
Y-770D01*
Y-1472D02*
X-2509D01*
X-1443Y-7536D02*
X-608D01*
Y-8239D02*
Y-7536D01*
X-1443Y-8239D02*
X-608D01*
X-1443D02*
Y-7536D01*
X-1444Y-1472D02*
X-609D01*
X-1444D02*
Y-770D01*
X-609D01*
Y-1472D02*
Y-770D01*
X-3343Y-7536D02*
X-2508D01*
Y-8239D02*
Y-7536D01*
X-3343Y-8239D02*
X-2508D01*
X-3343D02*
Y-7536D01*
X-5243D02*
X-4408D01*
Y-8239D02*
Y-7536D01*
X-5243Y-8239D02*
X-4408D01*
X-5243D02*
Y-7536D01*
X-5244Y-1472D02*
X-4409D01*
X-5244D02*
Y-770D01*
X-4409D01*
Y-1472D02*
Y-770D01*
D46*
X-3869Y-8379D02*
Y-8149D01*
Y-8379D02*
X-3489D01*
Y-8149D01*
X-3869D02*
X-3489D01*
M02*
