G04*
G04 #@! TF.GenerationSoftware,Altium Limited,Altium Designer,21.6.1 (37)*
G04*
G04 Layer_Color=32896*
%FSLAX42Y42*%
%MOMM*%
G71*
G04*
G04 #@! TF.SameCoordinates,C9D71314-30D1-4B66-A3B6-C5492FB532D2*
G04*
G04*
G04 #@! TF.FilePolarity,Positive*
G04*
G01*
G75*
%ADD11C,0.20*%
%ADD12C,0.25*%
%ADD42C,0.15*%
%ADD43C,0.08*%
D11*
X-677Y-1895D02*
G03*
X-677Y-1895I-10J0D01*
G01*
X-7561D02*
G03*
X-7561Y-1895I-10J0D01*
G01*
X-1473Y-6482D02*
X-1433D01*
X-1473Y-6412D02*
X-1433D01*
X-4146Y-4362D02*
Y-4282D01*
X-3996Y-4362D02*
Y-4282D01*
X-688Y-1989D02*
Y-1960D01*
X-180Y-1989D02*
Y-1960D01*
X-688Y-7040D02*
Y-7012D01*
X-180Y-7040D02*
Y-7012D01*
X-688Y-1960D02*
X-180D01*
X-688Y-7040D02*
X-180D01*
X-7572D02*
X-7064D01*
X-7572Y-1960D02*
X-7064D01*
Y-7040D02*
Y-7012D01*
X-7572Y-7040D02*
Y-7012D01*
X-7064Y-1989D02*
Y-1960D01*
X-7572Y-1989D02*
Y-1960D01*
X-6041Y-7758D02*
Y-7743D01*
X-5541Y-7758D02*
Y-7743D01*
X-6041Y-7073D02*
Y-7058D01*
X-5541Y-7073D02*
Y-7058D01*
X-6041Y-7758D02*
X-5541D01*
X-6041Y-7058D02*
X-5541D01*
X-2641Y-2611D02*
Y-2571D01*
X-2571Y-2611D02*
Y-2571D01*
X-3076Y-1832D02*
X-2996D01*
X-3076Y-1982D02*
X-2996D01*
X-3685Y-4493D02*
Y-4453D01*
X-3615Y-4493D02*
Y-4453D01*
X-5833Y-3569D02*
Y-3489D01*
X-5683Y-3569D02*
Y-3489D01*
X-5438Y-3569D02*
Y-3489D01*
X-5288Y-3569D02*
Y-3489D01*
X-5383Y-3145D02*
X-5343D01*
X-5383Y-3075D02*
X-5343D01*
X-5383Y-2906D02*
X-5343D01*
X-5383Y-2836D02*
X-5343D01*
X-4249Y-2586D02*
Y-2506D01*
X-4099Y-2586D02*
Y-2506D01*
X-3076Y-2836D02*
X-2996D01*
X-3076Y-2686D02*
X-2996D01*
X-3608Y-2601D02*
Y-2521D01*
X-3758Y-2601D02*
Y-2521D01*
X-4269Y-2136D02*
X-4229D01*
X-4269Y-2066D02*
X-4229D01*
X-6041Y-5843D02*
X-5541D01*
X-6041Y-6543D02*
X-5541D01*
Y-5858D02*
Y-5843D01*
X-6041Y-5858D02*
Y-5843D01*
X-5541Y-6543D02*
Y-6528D01*
X-6041Y-6543D02*
Y-6528D01*
X-2217Y-5843D02*
X-1717D01*
X-2217Y-6543D02*
X-1717D01*
Y-5858D02*
Y-5843D01*
X-2217Y-5858D02*
Y-5843D01*
X-1717Y-6543D02*
Y-6528D01*
X-2217Y-6543D02*
Y-6528D01*
X-2221Y-7058D02*
X-1721D01*
X-2221Y-7758D02*
X-1721D01*
Y-7073D02*
Y-7058D01*
X-2221Y-7073D02*
Y-7058D01*
X-1721Y-7758D02*
Y-7743D01*
X-2221Y-7758D02*
Y-7743D01*
X-5383Y-2596D02*
X-5343D01*
X-5383Y-2666D02*
X-5343D01*
X-3575Y-5362D02*
Y-5282D01*
X-3725Y-5362D02*
Y-5282D01*
X-2181Y-5322D02*
Y-5242D01*
X-2031Y-5322D02*
Y-5242D01*
D12*
X-1308Y-6300D02*
Y-6148D01*
X-1384D01*
X-1410Y-6173D01*
Y-6224D01*
X-1384Y-6249D01*
X-1308D01*
X-1359D02*
X-1410Y-6300D01*
X-1460Y-6148D02*
X-1562D01*
Y-6173D01*
X-1460Y-6275D01*
Y-6300D01*
X-4028Y-1954D02*
Y-1802D01*
X-4105D01*
X-4130Y-1827D01*
Y-1878D01*
X-4105Y-1903D01*
X-4028D01*
X-4079D02*
X-4130Y-1954D01*
X-4181D02*
X-4232D01*
X-4206D01*
Y-1802D01*
X-4181Y-1827D01*
X-4308Y-1954D02*
X-4359D01*
X-4333D01*
Y-1802D01*
X-4308Y-1827D01*
X-5596Y-3186D02*
Y-3034D01*
X-5672D01*
X-5697Y-3059D01*
Y-3110D01*
X-5672Y-3135D01*
X-5596D01*
X-5646D02*
X-5697Y-3186D01*
X-5850Y-3034D02*
X-5748D01*
Y-3110D01*
X-5799Y-3085D01*
X-5824D01*
X-5850Y-3110D01*
Y-3161D01*
X-5824Y-3186D01*
X-5773D01*
X-5748Y-3161D01*
X-5596Y-2919D02*
Y-2767D01*
X-5672D01*
X-5697Y-2792D01*
Y-2843D01*
X-5672Y-2869D01*
X-5596D01*
X-5646D02*
X-5697Y-2919D01*
X-5824D02*
Y-2767D01*
X-5748Y-2843D01*
X-5850D01*
X-5535Y-6958D02*
Y-6806D01*
X-5585Y-6856D01*
X-5636Y-6806D01*
Y-6958D01*
X-5687D02*
Y-6806D01*
X-5763D01*
X-5789Y-6831D01*
Y-6882D01*
X-5763Y-6907D01*
X-5687D01*
X-5916Y-6958D02*
Y-6806D01*
X-5839Y-6882D01*
X-5941D01*
X-5535Y-5744D02*
Y-5592D01*
X-5585Y-5642D01*
X-5636Y-5592D01*
Y-5744D01*
X-5687D02*
Y-5592D01*
X-5763D01*
X-5789Y-5617D01*
Y-5668D01*
X-5763Y-5693D01*
X-5687D01*
X-5839Y-5617D02*
X-5865Y-5592D01*
X-5916D01*
X-5941Y-5617D01*
Y-5642D01*
X-5916Y-5668D01*
X-5890D01*
X-5916D01*
X-5941Y-5693D01*
Y-5718D01*
X-5916Y-5744D01*
X-5865D01*
X-5839Y-5718D01*
X-1709Y-5744D02*
Y-5592D01*
X-1760Y-5642D01*
X-1811Y-5592D01*
Y-5744D01*
X-1862D02*
Y-5592D01*
X-1938D01*
X-1963Y-5617D01*
Y-5668D01*
X-1938Y-5693D01*
X-1862D01*
X-2116Y-5744D02*
X-2014D01*
X-2116Y-5642D01*
Y-5617D01*
X-2090Y-5592D01*
X-2040D01*
X-2014Y-5617D01*
X-1715Y-6958D02*
Y-6806D01*
X-1765Y-6856D01*
X-1816Y-6806D01*
Y-6958D01*
X-1867D02*
Y-6806D01*
X-1943D01*
X-1968Y-6831D01*
Y-6882D01*
X-1943Y-6907D01*
X-1867D01*
X-2019Y-6958D02*
X-2070D01*
X-2045D01*
Y-6806D01*
X-2019Y-6831D01*
X-3272Y-3465D02*
X-3298Y-3440D01*
Y-3389D01*
X-3272Y-3364D01*
X-3171D01*
X-3145Y-3389D01*
Y-3440D01*
X-3171Y-3465D01*
X-3145Y-3516D02*
X-3298D01*
Y-3592D01*
X-3272Y-3617D01*
X-3221D01*
X-3196Y-3592D01*
Y-3516D01*
Y-3567D02*
X-3145Y-3617D01*
Y-3770D02*
Y-3668D01*
X-3247Y-3770D01*
X-3272D01*
X-3298Y-3744D01*
Y-3694D01*
X-3272Y-3668D01*
X-5733Y-3821D02*
X-5707Y-3796D01*
X-5657D01*
X-5631Y-3821D01*
Y-3923D01*
X-5657Y-3948D01*
X-5707D01*
X-5733Y-3923D01*
X-5784D02*
X-5809Y-3948D01*
X-5860D01*
X-5885Y-3923D01*
Y-3821D01*
X-5860Y-3796D01*
X-5809D01*
X-5784Y-3821D01*
Y-3847D01*
X-5809Y-3872D01*
X-5885D01*
X-5338Y-3821D02*
X-5313Y-3796D01*
X-5262D01*
X-5236Y-3821D01*
Y-3923D01*
X-5262Y-3948D01*
X-5313D01*
X-5338Y-3923D01*
X-5389Y-3821D02*
X-5414Y-3796D01*
X-5465D01*
X-5490Y-3821D01*
Y-3847D01*
X-5465Y-3872D01*
X-5490Y-3897D01*
Y-3923D01*
X-5465Y-3948D01*
X-5414D01*
X-5389Y-3923D01*
Y-3897D01*
X-5414Y-3872D01*
X-5389Y-3847D01*
Y-3821D01*
X-5414Y-3872D02*
X-5465D01*
X-168Y-1647D02*
X-117D01*
X-142D01*
Y-1774D01*
X-117Y-1799D01*
X-91D01*
X-66Y-1774D01*
X-320Y-1799D02*
X-218D01*
X-320Y-1698D01*
Y-1672D01*
X-295Y-1647D01*
X-244D01*
X-218Y-1672D01*
X-7051Y-1647D02*
X-7000D01*
X-7026D01*
Y-1774D01*
X-7000Y-1799D01*
X-6975D01*
X-6949Y-1774D01*
X-7102Y-1799D02*
X-7153D01*
X-7127D01*
Y-1647D01*
X-7102Y-1672D01*
X-2510Y-2147D02*
Y-2274D01*
X-2535Y-2299D01*
X-2586D01*
X-2611Y-2274D01*
Y-2147D01*
X-2662Y-2172D02*
X-2687Y-2147D01*
X-2738D01*
X-2764Y-2172D01*
Y-2198D01*
X-2738Y-2223D01*
X-2713D01*
X-2738D01*
X-2764Y-2248D01*
Y-2274D01*
X-2738Y-2299D01*
X-2687D01*
X-2662Y-2274D01*
X-2352Y-3681D02*
Y-3808D01*
X-2377Y-3834D01*
X-2428D01*
X-2454Y-3808D01*
Y-3681D01*
X-2504Y-3834D02*
X-2555D01*
X-2530D01*
Y-3681D01*
X-2504Y-3707D01*
X-2235Y-2653D02*
Y-2500D01*
X-2311D01*
X-2337Y-2526D01*
Y-2577D01*
X-2311Y-2602D01*
X-2235D01*
X-2286D02*
X-2337Y-2653D01*
X-2388Y-2526D02*
X-2413Y-2500D01*
X-2464D01*
X-2489Y-2526D01*
Y-2551D01*
X-2464Y-2577D01*
X-2438D01*
X-2464D01*
X-2489Y-2602D01*
Y-2627D01*
X-2464Y-2653D01*
X-2413D01*
X-2388Y-2627D01*
X-5596Y-2652D02*
Y-2500D01*
X-5672D01*
X-5697Y-2525D01*
Y-2576D01*
X-5672Y-2601D01*
X-5596D01*
X-5646D02*
X-5697Y-2652D01*
X-5850D02*
X-5748D01*
X-5850Y-2551D01*
Y-2525D01*
X-5824Y-2500D01*
X-5773D01*
X-5748Y-2525D01*
X-3579Y-4275D02*
Y-4123D01*
X-3655D01*
X-3680Y-4148D01*
Y-4199D01*
X-3655Y-4224D01*
X-3579D01*
X-3630D02*
X-3680Y-4275D01*
X-3731D02*
X-3782D01*
X-3757D01*
Y-4123D01*
X-3731Y-4148D01*
X-4388Y-4381D02*
Y-4533D01*
X-4489D01*
X-4540D02*
X-4591D01*
X-4566D01*
Y-4381D01*
X-4540Y-4406D01*
X-4804Y-2618D02*
X-4778Y-2593D01*
X-4728D01*
X-4702Y-2618D01*
Y-2720D01*
X-4728Y-2745D01*
X-4778D01*
X-4804Y-2720D01*
X-4855Y-2745D02*
Y-2593D01*
X-4931D01*
X-4956Y-2618D01*
Y-2669D01*
X-4931Y-2694D01*
X-4855D01*
X-4905D02*
X-4956Y-2745D01*
X-5007D02*
X-5058D01*
X-5032D01*
Y-2593D01*
X-5007Y-2618D01*
X-2933Y-2924D02*
X-2908Y-2898D01*
X-2857D01*
X-2831Y-2924D01*
Y-3025D01*
X-2857Y-3051D01*
X-2908D01*
X-2933Y-3025D01*
X-2984Y-2898D02*
X-3085D01*
Y-2924D01*
X-2984Y-3025D01*
Y-3051D01*
X-3665Y-2847D02*
X-3640Y-2822D01*
X-3589D01*
X-3564Y-2847D01*
Y-2949D01*
X-3589Y-2974D01*
X-3640D01*
X-3665Y-2949D01*
X-3818Y-2822D02*
X-3767Y-2847D01*
X-3716Y-2898D01*
Y-2949D01*
X-3741Y-2974D01*
X-3792D01*
X-3818Y-2949D01*
Y-2924D01*
X-3792Y-2898D01*
X-3716D01*
X-3436Y-1856D02*
X-3411Y-1831D01*
X-3360D01*
X-3334Y-1856D01*
Y-1958D01*
X-3360Y-1983D01*
X-3411D01*
X-3436Y-1958D01*
X-3588Y-1831D02*
X-3487D01*
Y-1907D01*
X-3538Y-1882D01*
X-3563D01*
X-3588Y-1907D01*
Y-1958D01*
X-3563Y-1983D01*
X-3512D01*
X-3487Y-1958D01*
X-4149Y-2825D02*
X-4124Y-2800D01*
X-4073D01*
X-4047Y-2825D01*
Y-2927D01*
X-4073Y-2952D01*
X-4124D01*
X-4149Y-2927D01*
X-4276Y-2952D02*
Y-2800D01*
X-4200Y-2876D01*
X-4301D01*
X-4074Y-3898D02*
X-4049Y-3872D01*
X-3998D01*
X-3972Y-3898D01*
Y-3999D01*
X-3998Y-4024D01*
X-4049D01*
X-4074Y-3999D01*
X-4125Y-3898D02*
X-4150Y-3872D01*
X-4201D01*
X-4226Y-3898D01*
Y-3923D01*
X-4201Y-3948D01*
X-4176D01*
X-4201D01*
X-4226Y-3974D01*
Y-3999D01*
X-4201Y-4024D01*
X-4150D01*
X-4125Y-3999D01*
X-3668Y-4903D02*
X-3642Y-4878D01*
X-3592D01*
X-3566Y-4903D01*
Y-5005D01*
X-3592Y-5030D01*
X-3642D01*
X-3668Y-5005D01*
X-3820Y-5030D02*
X-3719D01*
X-3820Y-4929D01*
Y-4903D01*
X-3795Y-4878D01*
X-3744D01*
X-3719Y-4903D01*
X-2123Y-4863D02*
X-2098Y-4837D01*
X-2047D01*
X-2022Y-4863D01*
Y-4964D01*
X-2047Y-4990D01*
X-2098D01*
X-2123Y-4964D01*
X-2174Y-4990D02*
X-2225D01*
X-2200D01*
Y-4837D01*
X-2174Y-4863D01*
D42*
X-4506Y-4306D02*
G03*
X-4506Y-4306I-8J0D01*
G01*
X-3269Y-2476D02*
G03*
X-3269Y-2476I-10J0D01*
G01*
X-4967Y-3480D02*
Y-3054D01*
X-4441Y-3480D02*
Y-3054D01*
X-4366Y-4114D02*
Y-4005D01*
X-4661Y-4114D02*
Y-4005D01*
X-2866Y-2546D02*
Y-2522D01*
X-3206Y-2230D02*
Y-2206D01*
Y-2546D02*
Y-2522D01*
Y-2546D02*
X-2866D01*
Y-2230D02*
Y-2206D01*
X-3206D02*
X-2866D01*
X-3449Y-3738D02*
Y-3672D01*
X-4198Y-3529D02*
X-4071D01*
X-4173Y-3592D02*
Y-3465D01*
Y-3529D02*
X-4097Y-3592D01*
X-4173Y-3529D02*
X-4097Y-3579D01*
X-4173Y-3529D02*
X-4097Y-3567D01*
X-4173Y-3529D02*
X-4097Y-3554D01*
X-4173Y-3529D02*
X-4097Y-3541D01*
X-4173Y-3529D02*
X-4097Y-3465D01*
X-4173Y-3529D02*
X-4097Y-3478D01*
X-4173Y-3529D02*
X-4097Y-3490D01*
X-4173Y-3529D02*
X-4097Y-3503D01*
X-4173Y-3529D02*
X-4097Y-3516D01*
Y-3592D02*
Y-3465D01*
X-4033Y-3319D02*
X-3449D01*
Y-3385D02*
Y-3319D01*
X-4033Y-3738D02*
X-3449D01*
X-4033D02*
Y-3672D01*
Y-3385D02*
Y-3319D01*
X-2515Y-5246D02*
Y-5043D01*
X-2685Y-5246D02*
Y-5043D01*
X-2855Y-5246D02*
Y-5043D01*
X-3025Y-5246D02*
Y-5043D01*
X-3195Y-5246D02*
Y-5043D01*
X-2607Y-5246D02*
Y-5043D01*
X-2777Y-5246D02*
Y-5043D01*
X-2947Y-5246D02*
Y-5043D01*
X-3117Y-5246D02*
Y-5043D01*
X-3287Y-5246D02*
Y-5043D01*
D43*
X-4330Y-3656D02*
X-4415Y-3572D01*
Y-3656D02*
X-4330Y-3572D01*
X-4373Y-3656D02*
Y-3572D01*
X-4415Y-3614D02*
X-4330D01*
X-2381Y-5415D02*
X-2465Y-5499D01*
X-2381D02*
X-2465Y-5415D01*
X-2381Y-5457D02*
X-2465D01*
X-2423Y-5499D02*
Y-5415D01*
M02*
