G04*
G04 #@! TF.GenerationSoftware,Altium Limited,Altium Designer,22.9.1 (49)*
G04*
G04 Layer_Color=16711935*
%FSLAX25Y25*%
%MOIN*%
G70*
G04*
G04 #@! TF.SameCoordinates,5559CDC9-6134-4E51-B498-14E690802BEE*
G04*
G04*
G04 #@! TF.FilePolarity,Positive*
G04*
G01*
G75*
%ADD12C,0.01000*%
D12*
X-319830Y12D02*
X-320810Y-39D01*
X-321780Y-185D01*
X-322731Y-426D01*
X-323654Y-759D01*
X-324540Y-1181D01*
X-325381Y-1688D01*
X-326167Y-2275D01*
X-326893Y-2936D01*
X-327550Y-3664D01*
X-328133Y-4454D01*
X-328635Y-5297D01*
X-329052Y-6186D01*
X-329380Y-7110D01*
X-329616Y-8063D01*
X-329758Y-9034D01*
X-329803Y-10014D01*
X14637Y-354332D02*
X15617Y-354279D01*
X16587Y-354130D01*
X17538Y-353887D01*
X18460Y-353551D01*
X19345Y-353127D01*
X20184Y-352618D01*
X20969Y-352029D01*
X21693Y-351367D01*
X22348Y-350636D01*
X22929Y-349845D01*
X23429Y-349000D01*
X23844Y-348111D01*
X24169Y-347185D01*
X24403Y-346232D01*
X24542Y-345261D01*
X24585Y-344280D01*
X24497Y-9935D02*
X24444Y-8955D01*
X24295Y-7986D01*
X24052Y-7035D01*
X23716Y-6112D01*
X23292Y-5228D01*
X22783Y-4389D01*
X22194Y-3603D01*
X21531Y-2880D01*
X20801Y-2224D01*
X20010Y-1644D01*
X19165Y-1144D01*
X18276Y-729D01*
X17350Y-403D01*
X16397Y-170D01*
X15426Y-31D01*
X14445Y12D01*
X-329802Y-343833D02*
X-329804Y-344815D01*
X-329711Y-345792D01*
X-329522Y-346755D01*
X-329240Y-347695D01*
X-328867Y-348602D01*
X-328406Y-349469D01*
X-327863Y-350286D01*
X-327243Y-351047D01*
X-326551Y-351742D01*
X-325794Y-352367D01*
X-324979Y-352914D01*
X-324115Y-353379D01*
X-323209Y-353757D01*
X-322271Y-354045D01*
X-321309Y-354239D01*
X-320333Y-354337D01*
X-296938Y-0D02*
X-278601Y-18337D01*
X-329803Y-343833D02*
Y-282636D01*
X-8601Y-354337D02*
X14637D01*
X-319818Y-0D02*
X-296938D01*
X-329803Y-10014D02*
X-329803Y-282636D01*
X-279401Y-337138D02*
X-25801D01*
X-8183Y-0D02*
X14445D01*
X-26601Y-18337D02*
X-8377Y-113D01*
X-278601Y-18337D02*
X-26601D01*
X-296601Y-354337D02*
X-279401Y-337138D01*
X24585Y-9935D02*
X24585Y-344280D01*
X-320333Y-354337D02*
X-296601D01*
X-25801Y-337138D02*
X-8601Y-354337D01*
M02*
