M48
;Layer_Color=9474304
;FILE_FORMAT=2:4
INCH,TZ
;TYPE=PLATED
T1F00S00C0.0120
T2F00S00C0.0563
;TYPE=NON_PLATED
T3F00S00C0.0990
T4F00S00C0.1500
%
T01
X-26730Y-26744
X-13539Y-29599
X-7380Y-21465
X-15350Y-16034
X-18175Y-17212
X-21588Y-9748
T02
X-26480Y-31619
X-19000
X-11520
X-4039
X-19000Y-3848
X-26480
X-11520
X-4039
T03
X-31604Y-25594
X1082
Y-9840
X-31604
T04
X-30960Y-33413
X438
X-30960Y-2020
X438
M30
