G04*
G04 #@! TF.GenerationSoftware,Altium Limited,Altium Designer,21.6.1 (37)*
G04*
G04 Layer_Color=16711935*
%FSLAX42Y42*%
%MOMM*%
G71*
G04*
G04 #@! TF.SameCoordinates,C9D71314-30D1-4B66-A3B6-C5492FB532D2*
G04*
G04*
G04 #@! TF.FilePolarity,Negative*
G04*
G01*
G75*
%ADD13R,1.21X1.41*%
%ADD15C,2.65*%
%ADD16C,4.32*%
%ADD17C,3.02*%
%ADD18C,1.09*%
%ADD28R,0.53X2.29*%
%ADD31R,2.69X0.85*%
%ADD32R,2.18X2.21*%
%ADD33R,0.81X0.25*%
%ADD34R,10.72X10.36*%
%ADD35R,0.97X3.51*%
%ADD36R,1.75X2.70*%
%ADD37R,2.21X1.61*%
%ADD38R,2.80X1.78*%
%ADD39R,2.96X3.46*%
%ADD40R,1.41X1.21*%
%ADD41R,1.61X2.21*%
D13*
X-1528Y-6447D02*
D03*
X-1378D02*
D03*
X-5438Y-3110D02*
D03*
X-5288D02*
D03*
X-5438Y-2871D02*
D03*
X-5288D02*
D03*
Y-2631D02*
D03*
X-4324Y-2101D02*
D03*
X-4174D02*
D03*
X-5438Y-2631D02*
D03*
D15*
X-6726Y-977D02*
D03*
X-1026Y-8031D02*
D03*
X-2926D02*
D03*
X-6726D02*
D03*
X-2926Y-977D02*
D03*
X-1026D02*
D03*
X-4826Y-8031D02*
D03*
X-4826Y-977D02*
D03*
D16*
X111Y-8487D02*
D03*
X-7864D02*
D03*
X111Y-513D02*
D03*
X-7864D02*
D03*
D17*
X275Y-6501D02*
D03*
Y-2499D02*
D03*
X-8027Y-6501D02*
D03*
X-8027Y-2499D02*
D03*
D18*
X-4616Y-4372D02*
D03*
X-5483Y-2476D02*
D03*
X-3899Y-4073D02*
D03*
X-1875Y-5452D02*
D03*
X-4487Y-8264D02*
D03*
X-6789Y-6793D02*
D03*
D28*
X-4514Y-3519D02*
D03*
X-4641D02*
D03*
X-4768D02*
D03*
X-4895D02*
D03*
Y-3016D02*
D03*
X-4768D02*
D03*
X-4641D02*
D03*
X-4514D02*
D03*
D31*
Y-3932D02*
D03*
Y-4187D02*
D03*
D32*
X-3555Y-3529D02*
D03*
X-3927D02*
D03*
D33*
X-2889Y-2476D02*
D03*
Y-2426D02*
D03*
Y-2376D02*
D03*
Y-2326D02*
D03*
Y-2276D02*
D03*
X-3183Y-2476D02*
D03*
Y-2426D02*
D03*
Y-2376D02*
D03*
Y-2326D02*
D03*
Y-2276D02*
D03*
D34*
X-2901Y-4492D02*
D03*
D35*
Y-5457D02*
D03*
X-3071D02*
D03*
X-3241D02*
D03*
X-2561D02*
D03*
X-2731D02*
D03*
D36*
X-3036Y-2376D02*
D03*
D37*
X-4071Y-4187D02*
D03*
Y-4457D02*
D03*
X-5758Y-3394D02*
D03*
Y-3664D02*
D03*
X-5363Y-3394D02*
D03*
Y-3664D02*
D03*
X-2106Y-5147D02*
D03*
X-3683Y-2696D02*
D03*
X-4174Y-2681D02*
D03*
X-3650Y-5457D02*
D03*
X-4174Y-2411D02*
D03*
X-3683Y-2426D02*
D03*
X-3650Y-5187D02*
D03*
X-2106Y-5417D02*
D03*
D38*
X-182Y-4119D02*
D03*
Y-3103D02*
D03*
Y-3611D02*
D03*
Y-3865D02*
D03*
Y-3357D02*
D03*
Y-5389D02*
D03*
Y-4373D02*
D03*
Y-4627D02*
D03*
X-687D02*
D03*
X-182Y-5135D02*
D03*
Y-4881D02*
D03*
X-687Y-3611D02*
D03*
Y-3865D02*
D03*
Y-3357D02*
D03*
Y-4119D02*
D03*
Y-4373D02*
D03*
Y-4881D02*
D03*
Y-5135D02*
D03*
Y-5389D02*
D03*
X-182Y-6151D02*
D03*
Y-5643D02*
D03*
X-687Y-5897D02*
D03*
Y-5643D02*
D03*
X-182Y-5897D02*
D03*
X-687Y-6405D02*
D03*
Y-6151D02*
D03*
X-182Y-6913D02*
D03*
Y-6405D02*
D03*
Y-6659D02*
D03*
X-687D02*
D03*
Y-6913D02*
D03*
Y-3103D02*
D03*
X-182Y-2849D02*
D03*
X-687D02*
D03*
X-182Y-2595D02*
D03*
X-687D02*
D03*
X-182Y-2341D02*
D03*
X-687D02*
D03*
X-182Y-2087D02*
D03*
X-687D02*
D03*
X-7571D02*
D03*
X-7066D02*
D03*
X-7571Y-2341D02*
D03*
X-7066D02*
D03*
X-7571Y-2595D02*
D03*
X-7066D02*
D03*
X-7571Y-2849D02*
D03*
X-7066D02*
D03*
X-7571Y-3103D02*
D03*
X-7066Y-6913D02*
D03*
X-7571Y-6659D02*
D03*
Y-6913D02*
D03*
Y-6405D02*
D03*
Y-5897D02*
D03*
Y-6151D02*
D03*
Y-5643D02*
D03*
Y-5389D02*
D03*
X-7066Y-6659D02*
D03*
Y-6405D02*
D03*
Y-6151D02*
D03*
Y-5897D02*
D03*
Y-5135D02*
D03*
Y-5643D02*
D03*
Y-5389D02*
D03*
X-7571Y-4881D02*
D03*
Y-5135D02*
D03*
Y-4119D02*
D03*
Y-4627D02*
D03*
Y-4373D02*
D03*
Y-3865D02*
D03*
Y-3611D02*
D03*
Y-3357D02*
D03*
X-7066Y-4627D02*
D03*
Y-4881D02*
D03*
Y-4373D02*
D03*
Y-4119D02*
D03*
Y-3357D02*
D03*
Y-3865D02*
D03*
Y-3611D02*
D03*
Y-3103D02*
D03*
D39*
X-5926Y-7568D02*
D03*
X-5656D02*
D03*
X-5926Y-7248D02*
D03*
X-5656D02*
D03*
X-5926Y-6353D02*
D03*
X-5656Y-6033D02*
D03*
Y-6353D02*
D03*
X-5926Y-6033D02*
D03*
X-2102Y-6353D02*
D03*
X-1832Y-6033D02*
D03*
Y-6353D02*
D03*
X-2102Y-6033D02*
D03*
X-2106Y-7568D02*
D03*
X-1836Y-7248D02*
D03*
Y-7568D02*
D03*
X-2106Y-7248D02*
D03*
D40*
X-2606Y-2516D02*
D03*
Y-2666D02*
D03*
X-3650Y-4398D02*
D03*
Y-4548D02*
D03*
D41*
X-2901Y-1907D02*
D03*
X-3171D02*
D03*
Y-2761D02*
D03*
X-2901D02*
D03*
M02*
