M48
;Layer_Color=9474304
;FILE_FORMAT=4:2
METRIC,TZ
;TYPE=PLATED
T1F00S00C0.30
T2F00S00C1.43
;TYPE=NON_PLATED
T3F00S00C2.51
T4F00S00C3.81
%
T01
X-6789Y-6793
X-4487Y-8264
X-1875Y-5452
X-3899Y-4073
X-4616Y-4372
X-5483Y-2476
T02
X-6726Y-8031
X-4826
X-2926
X-1026
X-4826Y-977
X-6726
X-2926
X-1026
T03
X-8027Y-6501
X275
Y-2499
X-8027
T04
X-7864Y-8487
X111
X-7864Y-513
X111
M30
