G04*
G04 #@! TF.GenerationSoftware,Altium Limited,Altium Designer,22.2.1 (43)*
G04*
G04 Layer_Color=32896*
%FSLAX25Y25*%
%MOIN*%
G70*
G04*
G04 #@! TF.SameCoordinates,CB51DA99-0BF3-457E-BF16-783FD1C2B90D*
G04*
G04*
G04 #@! TF.FilePolarity,Positive*
G04*
G01*
G75*
%ADD10C,0.00787*%
%ADD11C,0.01000*%
D10*
X24532Y240459D02*
X23744D01*
X24532D01*
X295656D02*
X294868D01*
X295656D01*
X24079Y236778D02*
Y237900D01*
X44079Y236778D02*
Y237900D01*
X24079Y37900D02*
Y39022D01*
X44079Y37900D02*
Y39022D01*
X24079Y237900D02*
X44079D01*
X24079Y37900D02*
X44079D01*
X295203D02*
X315203D01*
X295203Y237900D02*
X315203D01*
Y37900D02*
Y39022D01*
X295203Y37900D02*
Y39022D01*
X315203Y236778D02*
Y237900D01*
X295203Y236778D02*
Y237900D01*
D11*
X309103Y26501D02*
X307104D01*
X308103D01*
Y31499D01*
X307104Y32499D01*
X306104D01*
X305104Y31499D01*
X311103Y32499D02*
X313102D01*
X312102D01*
Y26501D01*
X311103Y27501D01*
X44601Y250198D02*
X46601D01*
X45601D01*
Y245200D01*
X46601Y244200D01*
X47600D01*
X48600Y245200D01*
X38603Y244200D02*
X42602D01*
X38603Y248199D01*
Y249198D01*
X39603Y250198D01*
X41602D01*
X42602Y249198D01*
M02*
