G04*
G04 #@! TF.GenerationSoftware,Altium Limited,Altium Designer,22.9.1 (49)*
G04*
G04 Layer_Color=8421504*
%FSLAX25Y25*%
%MOIN*%
G70*
G04*
G04 #@! TF.SameCoordinates,36612407-E1A3-45C0-BD03-384B5C56F293*
G04*
G04*
G04 #@! TF.FilePolarity,Positive*
G04*
G01*
G75*
%ADD16R,0.10740X0.06016*%
%ADD17R,0.05543X0.04756*%
G04:AMPARAMS|DCode=18|XSize=47.17mil|YSize=32.6mil|CornerRadius=11.58mil|HoleSize=0mil|Usage=FLASHONLY|Rotation=0.000|XOffset=0mil|YOffset=0mil|HoleType=Round|Shape=RoundedRectangle|*
%AMROUNDEDRECTD18*
21,1,0.04717,0.00945,0,0,0.0*
21,1,0.02402,0.03260,0,0,0.0*
1,1,0.02315,0.01201,-0.00472*
1,1,0.02315,-0.01201,-0.00472*
1,1,0.02315,-0.01201,0.00472*
1,1,0.02315,0.01201,0.00472*
%
%ADD18ROUNDEDRECTD18*%
%ADD19R,0.06331X0.08693*%
%ADD20R,0.02200X0.07400*%
%ADD21R,0.08693X0.06331*%
G36*
X-289448Y-154016D02*
X-298188D01*
Y-150000D01*
X-289448D01*
Y-154016D01*
D02*
G37*
G36*
X-311700D02*
X-320440D01*
Y-150000D01*
X-311700D01*
Y-154016D01*
D02*
G37*
G36*
X-289448Y-164016D02*
X-298188D01*
Y-160000D01*
X-289448D01*
Y-164016D01*
D02*
G37*
G36*
X-311700D02*
X-320440D01*
Y-160000D01*
X-311700D01*
Y-164016D01*
D02*
G37*
G36*
X-289448Y-174016D02*
X-298188D01*
Y-170000D01*
X-289448D01*
Y-174016D01*
D02*
G37*
G36*
X-311700D02*
X-320440D01*
Y-170000D01*
X-311700D01*
Y-174016D01*
D02*
G37*
G36*
X-289448Y-184016D02*
X-298188D01*
Y-180000D01*
X-289448D01*
Y-184016D01*
D02*
G37*
G36*
X-311700D02*
X-320440D01*
Y-180000D01*
X-311700D01*
Y-184016D01*
D02*
G37*
G36*
X-289448Y-194016D02*
X-298188D01*
Y-190000D01*
X-289448D01*
Y-194016D01*
D02*
G37*
G36*
X-311700D02*
X-320440D01*
Y-190000D01*
X-311700D01*
Y-194016D01*
D02*
G37*
G36*
X-289448Y-104016D02*
X-298188D01*
Y-100000D01*
X-289448D01*
Y-104016D01*
D02*
G37*
G36*
X-311700D02*
X-320440D01*
Y-100000D01*
X-311700D01*
Y-104016D01*
D02*
G37*
G36*
X-289448Y-114016D02*
X-298188D01*
Y-110000D01*
X-289448D01*
Y-114016D01*
D02*
G37*
G36*
X-311700D02*
X-320440D01*
Y-110000D01*
X-311700D01*
Y-114016D01*
D02*
G37*
G36*
X-289448Y-124016D02*
X-298188D01*
Y-120000D01*
X-289448D01*
Y-124016D01*
D02*
G37*
G36*
X-311700D02*
X-320440D01*
Y-120000D01*
X-311700D01*
Y-124016D01*
D02*
G37*
G36*
X-289448Y-134016D02*
X-298188D01*
Y-130000D01*
X-289448D01*
Y-134016D01*
D02*
G37*
G36*
X-311700D02*
X-320440D01*
Y-130000D01*
X-311700D01*
Y-134016D01*
D02*
G37*
G36*
X-289448Y-144016D02*
X-298188D01*
Y-140000D01*
X-289448D01*
Y-144016D01*
D02*
G37*
G36*
X-311700D02*
X-320440D01*
Y-140000D01*
X-311700D01*
Y-144016D01*
D02*
G37*
G36*
X-289448Y-54016D02*
X-298188D01*
Y-50000D01*
X-289448D01*
Y-54016D01*
D02*
G37*
G36*
X-311700D02*
X-320440D01*
Y-50000D01*
X-311700D01*
Y-54016D01*
D02*
G37*
G36*
X-289448Y-64016D02*
X-298188D01*
Y-60000D01*
X-289448D01*
Y-64016D01*
D02*
G37*
G36*
X-311700D02*
X-320440D01*
Y-60000D01*
X-311700D01*
Y-64016D01*
D02*
G37*
G36*
X-289448Y-74016D02*
X-298188D01*
Y-70000D01*
X-289448D01*
Y-74016D01*
D02*
G37*
G36*
X-311700D02*
X-320440D01*
Y-70000D01*
X-311700D01*
Y-74016D01*
D02*
G37*
G36*
X-289448Y-84016D02*
X-298188D01*
Y-80000D01*
X-289448D01*
Y-84016D01*
D02*
G37*
G36*
X-311700D02*
X-320440D01*
Y-80000D01*
X-311700D01*
Y-84016D01*
D02*
G37*
G36*
X-289448Y-94016D02*
X-298188D01*
Y-90000D01*
X-289448D01*
Y-94016D01*
D02*
G37*
G36*
X-311700D02*
X-320440D01*
Y-90000D01*
X-311700D01*
Y-94016D01*
D02*
G37*
G36*
X-289448Y-4016D02*
X-298188D01*
Y0D01*
X-289448D01*
Y-4016D01*
D02*
G37*
G36*
X-311700D02*
X-320440D01*
Y0D01*
X-311700D01*
Y-4016D01*
D02*
G37*
G36*
X-289448Y-14016D02*
X-298188D01*
Y-10000D01*
X-289448D01*
Y-14016D01*
D02*
G37*
G36*
X-311700D02*
X-320440D01*
Y-10000D01*
X-311700D01*
Y-14016D01*
D02*
G37*
G36*
X-289448Y-24016D02*
X-298188D01*
Y-20000D01*
X-289448D01*
Y-24016D01*
D02*
G37*
G36*
X-311700D02*
X-320440D01*
Y-20000D01*
X-311700D01*
Y-24016D01*
D02*
G37*
G36*
X-289448Y-34016D02*
X-298188D01*
Y-30000D01*
X-289448D01*
Y-34016D01*
D02*
G37*
G36*
X-311700D02*
X-320440D01*
Y-30000D01*
X-311700D01*
Y-34016D01*
D02*
G37*
G36*
X-289448Y-44016D02*
X-298188D01*
Y-40000D01*
X-289448D01*
Y-44016D01*
D02*
G37*
G36*
X-311700D02*
X-320440D01*
Y-40000D01*
X-311700D01*
Y-44016D01*
D02*
G37*
G36*
X-40762Y-104016D02*
X-49502D01*
Y-100000D01*
X-40762D01*
Y-104016D01*
D02*
G37*
G36*
Y-114016D02*
X-49502D01*
Y-110000D01*
X-40762D01*
Y-114016D01*
D02*
G37*
G36*
X-166040Y-120995D02*
X-168528D01*
Y-117011D01*
X-166040D01*
Y-120995D01*
D02*
G37*
G36*
X-40762Y-124016D02*
X-49502D01*
Y-120000D01*
X-40762D01*
Y-124016D01*
D02*
G37*
G36*
Y-134016D02*
X-49502D01*
Y-130000D01*
X-40762D01*
Y-134016D01*
D02*
G37*
G36*
Y-144016D02*
X-49502D01*
Y-140000D01*
X-40762D01*
Y-144016D01*
D02*
G37*
G36*
Y-154016D02*
X-49502D01*
Y-150000D01*
X-40762D01*
Y-154016D01*
D02*
G37*
G36*
Y-164016D02*
X-49502D01*
Y-160000D01*
X-40762D01*
Y-164016D01*
D02*
G37*
G36*
Y-174016D02*
X-49502D01*
Y-170000D01*
X-40762D01*
Y-174016D01*
D02*
G37*
G36*
Y-184016D02*
X-49502D01*
Y-180000D01*
X-40762D01*
Y-184016D01*
D02*
G37*
G36*
Y-194016D02*
X-49502D01*
Y-190000D01*
X-40762D01*
Y-194016D01*
D02*
G37*
G36*
X-18510Y-190000D02*
Y-194016D01*
X-27250D01*
Y-190000D01*
X-18510D01*
D02*
G37*
G36*
Y-180000D02*
Y-184016D01*
X-27250D01*
Y-180000D01*
X-18510D01*
D02*
G37*
G36*
Y-170000D02*
Y-174016D01*
X-27250D01*
Y-170000D01*
X-18510D01*
D02*
G37*
G36*
Y-160000D02*
Y-164016D01*
X-27250D01*
Y-160000D01*
X-18510D01*
D02*
G37*
G36*
Y-150000D02*
Y-154016D01*
X-27250D01*
Y-150000D01*
X-18510D01*
D02*
G37*
G36*
Y-140000D02*
Y-144016D01*
X-27250D01*
Y-140000D01*
X-18510D01*
D02*
G37*
G36*
Y-130000D02*
Y-134016D01*
X-27250D01*
Y-130000D01*
X-18510D01*
D02*
G37*
G36*
Y-120000D02*
Y-124016D01*
X-27250D01*
Y-120000D01*
X-18510D01*
D02*
G37*
G36*
Y-110000D02*
Y-114016D01*
X-27250D01*
Y-110000D01*
X-18510D01*
D02*
G37*
G36*
Y-100000D02*
Y-104016D01*
X-27250D01*
Y-100000D01*
X-18510D01*
D02*
G37*
G36*
Y-54016D02*
X-27250D01*
Y-50000D01*
X-18510D01*
Y-54016D01*
D02*
G37*
G36*
X-40762D02*
X-49502D01*
Y-50000D01*
X-40762D01*
Y-54016D01*
D02*
G37*
G36*
X-18510Y-64016D02*
X-27250D01*
Y-60000D01*
X-18510D01*
Y-64016D01*
D02*
G37*
G36*
X-40762D02*
X-49502D01*
Y-60000D01*
X-40762D01*
Y-64016D01*
D02*
G37*
G36*
X-18510Y-74016D02*
X-27250D01*
Y-70000D01*
X-18510D01*
Y-74016D01*
D02*
G37*
G36*
X-40762D02*
X-49502D01*
Y-70000D01*
X-40762D01*
Y-74016D01*
D02*
G37*
G36*
X-18510Y-84016D02*
X-27250D01*
Y-80000D01*
X-18510D01*
Y-84016D01*
D02*
G37*
G36*
X-40762D02*
X-49502D01*
Y-80000D01*
X-40762D01*
Y-84016D01*
D02*
G37*
G36*
X-18510Y-94016D02*
X-27250D01*
Y-90000D01*
X-18510D01*
Y-94016D01*
D02*
G37*
G36*
X-40762D02*
X-49502D01*
Y-90000D01*
X-40762D01*
Y-94016D01*
D02*
G37*
G36*
X-18510Y-4016D02*
X-27250D01*
Y0D01*
X-18510D01*
Y-4016D01*
D02*
G37*
G36*
X-40762D02*
X-49502D01*
Y0D01*
X-40762D01*
Y-4016D01*
D02*
G37*
G36*
X-18510Y-14016D02*
X-27250D01*
Y-10000D01*
X-18510D01*
Y-14016D01*
D02*
G37*
G36*
X-40762D02*
X-49502D01*
Y-10000D01*
X-40762D01*
Y-14016D01*
D02*
G37*
G36*
X-18510Y-24016D02*
X-27250D01*
Y-20000D01*
X-18510D01*
Y-24016D01*
D02*
G37*
G36*
X-40762D02*
X-49502D01*
Y-20000D01*
X-40762D01*
Y-24016D01*
D02*
G37*
G36*
X-18510Y-34016D02*
X-27250D01*
Y-30000D01*
X-18510D01*
Y-34016D01*
D02*
G37*
G36*
X-40762D02*
X-49502D01*
Y-30000D01*
X-40762D01*
Y-34016D01*
D02*
G37*
G36*
X-18510Y-44016D02*
X-27250D01*
Y-40000D01*
X-18510D01*
Y-44016D01*
D02*
G37*
G36*
X-40762D02*
X-49502D01*
Y-40000D01*
X-40762D01*
Y-44016D01*
D02*
G37*
D16*
X-45128Y-42008D02*
D03*
Y-52008D02*
D03*
Y-62008D02*
D03*
Y-72008D02*
D03*
Y-82008D02*
D03*
Y-92008D02*
D03*
Y-102008D02*
D03*
Y-112008D02*
D03*
Y-122008D02*
D03*
Y-132008D02*
D03*
Y-192008D02*
D03*
X-22884D02*
D03*
X-45128Y-182008D02*
D03*
X-22884D02*
D03*
X-45128Y-172008D02*
D03*
X-22884D02*
D03*
X-45128Y-162008D02*
D03*
X-22884D02*
D03*
X-45128Y-152008D02*
D03*
X-22884D02*
D03*
X-45128Y-142008D02*
D03*
X-22884D02*
D03*
Y-132008D02*
D03*
Y-122008D02*
D03*
Y-112008D02*
D03*
Y-102008D02*
D03*
Y-92008D02*
D03*
Y-82008D02*
D03*
Y-72008D02*
D03*
Y-62008D02*
D03*
Y-52008D02*
D03*
Y-42008D02*
D03*
X-45128Y-32008D02*
D03*
X-22884D02*
D03*
X-45128Y-22008D02*
D03*
X-22884D02*
D03*
X-45128Y-12008D02*
D03*
X-22884D02*
D03*
X-45128Y-2008D02*
D03*
X-22884D02*
D03*
X-316066Y-192008D02*
D03*
X-293822D02*
D03*
X-316066Y-182008D02*
D03*
X-293822D02*
D03*
X-316066Y-172008D02*
D03*
X-293822D02*
D03*
X-316066Y-162008D02*
D03*
X-293822D02*
D03*
X-316066Y-152008D02*
D03*
X-293822D02*
D03*
X-316066Y-142008D02*
D03*
X-293822D02*
D03*
X-316066Y-132008D02*
D03*
X-293822D02*
D03*
X-316066Y-122008D02*
D03*
X-293822D02*
D03*
X-316066Y-112008D02*
D03*
X-293822D02*
D03*
X-316066Y-102008D02*
D03*
X-293822D02*
D03*
X-316066Y-92008D02*
D03*
X-293822D02*
D03*
X-316066Y-82008D02*
D03*
X-293822D02*
D03*
X-316066Y-72008D02*
D03*
X-293822D02*
D03*
X-316066Y-62008D02*
D03*
X-293822D02*
D03*
X-316066Y-52008D02*
D03*
X-293822D02*
D03*
X-316066Y-42008D02*
D03*
X-293822D02*
D03*
X-316066Y-32008D02*
D03*
X-293822D02*
D03*
X-316066Y-22008D02*
D03*
X-293822D02*
D03*
X-316066Y-12008D02*
D03*
X-293822D02*
D03*
X-316066Y-2008D02*
D03*
X-293822D02*
D03*
D17*
X-187933Y-125991D02*
D03*
Y-120086D02*
D03*
X-152033Y-121168D02*
D03*
Y-115263D02*
D03*
D18*
X-163268Y-116444D02*
D03*
Y-119003D02*
D03*
Y-121562D02*
D03*
X-171300D02*
D03*
Y-119003D02*
D03*
Y-116444D02*
D03*
D19*
X-167284Y-133116D02*
D03*
X-177914D02*
D03*
D20*
X-183540Y-60351D02*
D03*
X-178540D02*
D03*
X-173540D02*
D03*
X-168540D02*
D03*
X-163540D02*
D03*
X-158540D02*
D03*
X-153540D02*
D03*
X-148540D02*
D03*
Y-97651D02*
D03*
X-153540D02*
D03*
X-158540D02*
D03*
X-163540D02*
D03*
X-168540D02*
D03*
X-173540D02*
D03*
X-178540D02*
D03*
X-183540D02*
D03*
D21*
X-202099Y-79001D02*
D03*
Y-89631D02*
D03*
M02*
