G04*
G04 #@! TF.GenerationSoftware,Altium Limited,Altium Designer,22.2.1 (43)*
G04*
G04 Layer_Color=255*
%FSLAX25Y25*%
%MOIN*%
G70*
G04*
G04 #@! TF.SameCoordinates,CB51DA99-0BF3-457E-BF16-783FD1C2B90D*
G04*
G04*
G04 #@! TF.FilePolarity,Positive*
G04*
G01*
G75*
%ADD15R,0.07400X0.02200*%
%ADD19R,0.08740X0.04016*%
%ADD20R,0.06693X0.04331*%
D15*
X156350Y121100D02*
D03*
Y126100D02*
D03*
Y131100D02*
D03*
Y136100D02*
D03*
Y141100D02*
D03*
Y146100D02*
D03*
Y151100D02*
D03*
Y156100D02*
D03*
X193650D02*
D03*
Y151100D02*
D03*
Y146100D02*
D03*
Y141100D02*
D03*
Y136100D02*
D03*
Y131100D02*
D03*
Y126100D02*
D03*
Y121100D02*
D03*
D19*
X294140Y192900D02*
D03*
Y182900D02*
D03*
Y172900D02*
D03*
Y162900D02*
D03*
Y152900D02*
D03*
Y142900D02*
D03*
Y132900D02*
D03*
Y122900D02*
D03*
Y112900D02*
D03*
Y102900D02*
D03*
Y42900D02*
D03*
X316384D02*
D03*
X294140Y52900D02*
D03*
X316384D02*
D03*
X294140Y62900D02*
D03*
X316384D02*
D03*
X294140Y72900D02*
D03*
X316384D02*
D03*
X294140Y82900D02*
D03*
X316384D02*
D03*
X294140Y92900D02*
D03*
X316384D02*
D03*
Y102900D02*
D03*
Y112900D02*
D03*
Y122900D02*
D03*
Y132900D02*
D03*
Y142900D02*
D03*
Y152900D02*
D03*
Y162900D02*
D03*
Y172900D02*
D03*
Y182900D02*
D03*
Y192900D02*
D03*
X294140Y202900D02*
D03*
X316384D02*
D03*
X294140Y212900D02*
D03*
X316384D02*
D03*
X294140Y222900D02*
D03*
X316384D02*
D03*
X294140Y232900D02*
D03*
X316384D02*
D03*
X23016Y42900D02*
D03*
X45260D02*
D03*
X23016Y52900D02*
D03*
X45260D02*
D03*
X23016Y62900D02*
D03*
X45260D02*
D03*
X23016Y72900D02*
D03*
X45260D02*
D03*
X23016Y82900D02*
D03*
X45260D02*
D03*
X23016Y92900D02*
D03*
X45260D02*
D03*
X23016Y102900D02*
D03*
X45260D02*
D03*
X23016Y112900D02*
D03*
X45260D02*
D03*
X23016Y122900D02*
D03*
X45260D02*
D03*
X23016Y132900D02*
D03*
X45260D02*
D03*
X23016Y142900D02*
D03*
X45260D02*
D03*
X23016Y152900D02*
D03*
X45260D02*
D03*
X23016Y162900D02*
D03*
X45260D02*
D03*
X23016Y172900D02*
D03*
X45260D02*
D03*
X23016Y182900D02*
D03*
X45260D02*
D03*
X23016Y192900D02*
D03*
X45260D02*
D03*
X23016Y202900D02*
D03*
X45260D02*
D03*
X23016Y212900D02*
D03*
X45260D02*
D03*
X23016Y222900D02*
D03*
X45260D02*
D03*
X23016Y232900D02*
D03*
X45260D02*
D03*
D20*
X135299Y145415D02*
D03*
Y134785D02*
D03*
M02*
