G04*
G04 #@! TF.GenerationSoftware,Altium Limited,Altium Designer,22.9.1 (49)*
G04*
G04 Layer_Color=128*
%FSLAX25Y25*%
%MOIN*%
G70*
G04*
G04 #@! TF.SameCoordinates,36612407-E1A3-45C0-BD03-384B5C56F293*
G04*
G04*
G04 #@! TF.FilePolarity,Positive*
G04*
G01*
G75*
%ADD32R,0.14500X0.06488*%
D32*
X-44498Y-192009D02*
D03*
X-24006D02*
D03*
X-44498Y-182009D02*
D03*
X-24006D02*
D03*
X-44498Y-172009D02*
D03*
X-24006D02*
D03*
X-44498Y-162009D02*
D03*
X-24006D02*
D03*
X-44498Y-152009D02*
D03*
X-24006D02*
D03*
X-44498Y-142009D02*
D03*
X-24006D02*
D03*
X-44498Y-132009D02*
D03*
X-24006D02*
D03*
X-44498Y-122009D02*
D03*
X-24006D02*
D03*
X-44498Y-112009D02*
D03*
X-24006D02*
D03*
X-44498Y-102009D02*
D03*
X-24006D02*
D03*
X-44498Y-92009D02*
D03*
X-24006D02*
D03*
X-44498Y-82009D02*
D03*
X-24006D02*
D03*
X-44498Y-72009D02*
D03*
X-24006D02*
D03*
X-44498Y-62009D02*
D03*
X-24006D02*
D03*
X-44498Y-52009D02*
D03*
X-24006D02*
D03*
X-44498Y-42009D02*
D03*
X-24006D02*
D03*
X-44498Y-32009D02*
D03*
X-24006D02*
D03*
X-44498Y-22009D02*
D03*
X-24006D02*
D03*
X-44498Y-12009D02*
D03*
X-24006D02*
D03*
X-44498Y-2009D02*
D03*
X-24006D02*
D03*
X-315190Y-192024D02*
D03*
X-294698D02*
D03*
X-315190Y-182024D02*
D03*
X-294698D02*
D03*
X-315190Y-172024D02*
D03*
X-294698D02*
D03*
X-315190Y-162024D02*
D03*
X-294698D02*
D03*
X-315190Y-152024D02*
D03*
X-294698D02*
D03*
X-315190Y-142024D02*
D03*
X-294698D02*
D03*
X-315190Y-132024D02*
D03*
X-294698D02*
D03*
X-315190Y-122024D02*
D03*
X-294698D02*
D03*
X-315190Y-112024D02*
D03*
X-294698D02*
D03*
X-315190Y-102024D02*
D03*
X-294698D02*
D03*
X-315190Y-92024D02*
D03*
X-294698D02*
D03*
X-315190Y-82024D02*
D03*
X-294698D02*
D03*
X-315190Y-72024D02*
D03*
X-294698D02*
D03*
X-315190Y-62024D02*
D03*
X-294698D02*
D03*
X-315190Y-52024D02*
D03*
X-294698D02*
D03*
X-315190Y-42024D02*
D03*
X-294698D02*
D03*
X-315190Y-32024D02*
D03*
X-294698D02*
D03*
X-315190Y-22024D02*
D03*
X-294698D02*
D03*
X-315190Y-12024D02*
D03*
X-294698D02*
D03*
X-315190Y-2024D02*
D03*
X-294698D02*
D03*
M02*
