G04*
G04 #@! TF.GenerationSoftware,Altium Limited,Altium Designer,22.2.1 (43)*
G04*
G04 Layer_Physical_Order=1*
G04 Layer_Color=255*
%FSLAX25Y25*%
%MOIN*%
G70*
G04*
G04 #@! TF.SameCoordinates,92CA4D93-62DE-40AD-B459-EA6468986EF1*
G04*
G04*
G04 #@! TF.FilePolarity,Positive*
G04*
G01*
G75*
%ADD11C,0.01000*%
%ADD16R,0.08740X0.04016*%
%ADD17R,0.02559X0.06496*%
%ADD18R,0.06693X0.04331*%
%ADD19C,0.02000*%
G36*
X12148Y276000D02*
X326852D01*
X339000Y263852D01*
X339000Y263852D01*
Y12148D01*
X326852Y-0D01*
X326852Y-0D01*
X12148D01*
X-0Y12148D01*
Y263852D01*
X12148Y276000D01*
X12148Y276000D01*
D02*
G37*
%LPC*%
G36*
X315884Y235908D02*
X311014D01*
Y233400D01*
X315884D01*
Y235908D01*
D02*
G37*
G36*
X321754D02*
X316884D01*
Y232900D01*
Y229892D01*
X321754D01*
Y231371D01*
X322534D01*
X323119Y231487D01*
X323615Y231819D01*
X323947Y232315D01*
X324063Y232900D01*
X323947Y233485D01*
X323615Y233981D01*
X323119Y234313D01*
X322534Y234429D01*
X321754D01*
Y235908D01*
D02*
G37*
G36*
X315884Y232400D02*
X311014D01*
Y229892D01*
X315884D01*
Y232400D01*
D02*
G37*
G36*
X299510Y235908D02*
X288770D01*
Y235155D01*
X288388Y234900D01*
X287593D01*
X286858Y234595D01*
X286691Y234429D01*
X252585D01*
X252000Y234313D01*
X251504Y233981D01*
X176817Y159294D01*
X174479D01*
X174420Y159294D01*
X173979D01*
X173921Y159294D01*
X172200D01*
Y155046D01*
Y150798D01*
X173921D01*
X173979Y150798D01*
X174420D01*
X174479Y150798D01*
X178920D01*
X178980Y150798D01*
Y150798D01*
X179420D01*
Y150798D01*
X183979D01*
Y153517D01*
X230137D01*
X230150Y153520D01*
X230396Y153059D01*
X198467Y121129D01*
X175233D01*
X174404Y121959D01*
X174618Y122452D01*
X176200D01*
Y126700D01*
Y130948D01*
X174479D01*
X174420Y130948D01*
X173979D01*
X173921Y130948D01*
X169421D01*
X169421Y130948D01*
X168980D01*
Y130948D01*
X168921Y130948D01*
X164420D01*
Y122452D01*
X166817D01*
X168498Y120771D01*
X168619Y120590D01*
X173790Y115419D01*
X174286Y115087D01*
X174872Y114971D01*
X201591D01*
X202176Y115087D01*
X202672Y115419D01*
X288153Y200900D01*
X288388D01*
X288770Y200645D01*
Y199892D01*
X299510D01*
Y205908D01*
X299510D01*
X299600Y206371D01*
X300400D01*
X300985Y206487D01*
X301481Y206819D01*
X303681Y209019D01*
X304013Y209515D01*
X304129Y210100D01*
Y216802D01*
X304013Y217388D01*
X303681Y217884D01*
X299510Y222055D01*
Y225908D01*
X288770D01*
Y225155D01*
X288388Y224900D01*
X287593D01*
X286858Y224595D01*
X286295Y224033D01*
X285991Y223298D01*
Y222502D01*
X286295Y221767D01*
X286858Y221204D01*
X287593Y220900D01*
X288388D01*
X288770Y220645D01*
Y219892D01*
X297347D01*
X301071Y216169D01*
Y210734D01*
X300054Y209717D01*
X299512Y209882D01*
X299510Y209892D01*
X299510Y209929D01*
Y215908D01*
X288770D01*
Y215155D01*
X288388Y214900D01*
X287593D01*
X286858Y214596D01*
X286295Y214033D01*
X285991Y213298D01*
Y213063D01*
X229503Y156576D01*
X183979D01*
Y159294D01*
X181796D01*
X181604Y159756D01*
X253219Y231371D01*
X286691D01*
X286858Y231205D01*
X287593Y230900D01*
X288388D01*
X288770Y230645D01*
Y229892D01*
X299510D01*
Y235908D01*
D02*
G37*
G36*
X288770Y195908D02*
X288617Y195805D01*
X288388Y195900D01*
X287593D01*
X286858Y195596D01*
X286295Y195033D01*
X285991Y194298D01*
Y193502D01*
X286295Y192767D01*
X286858Y192204D01*
X287593Y191900D01*
X288388D01*
X288770Y191645D01*
Y189892D01*
X299510D01*
Y195908D01*
X288770D01*
Y195908D01*
D02*
G37*
G36*
X288388Y186900D02*
X287593D01*
X286858Y186595D01*
X286295Y186033D01*
X285991Y185298D01*
Y184502D01*
X286295Y183767D01*
X286858Y183204D01*
X287593Y182900D01*
X288388D01*
X288770Y182580D01*
Y179892D01*
X299510D01*
Y185908D01*
X292780D01*
X292632Y185937D01*
X289726D01*
X289686Y186033D01*
X289124Y186595D01*
X288388Y186900D01*
D02*
G37*
G36*
X299510Y175908D02*
X288770D01*
Y175900D01*
X288093D01*
X287358Y175595D01*
X286796Y175033D01*
X286491Y174298D01*
Y173502D01*
X286796Y172767D01*
X287358Y172204D01*
X288093Y171900D01*
X288770D01*
Y169892D01*
X299510D01*
Y175908D01*
D02*
G37*
G36*
Y165908D02*
X288770D01*
Y164013D01*
X288354Y163735D01*
X288198Y163800D01*
X287402D01*
X286667Y163496D01*
X286104Y162933D01*
X285800Y162198D01*
Y161402D01*
X286104Y160667D01*
X286667Y160105D01*
X287402Y159800D01*
X288198D01*
X288636Y159982D01*
X288770Y159892D01*
Y159892D01*
X299510D01*
Y165908D01*
D02*
G37*
G36*
X156746Y158480D02*
X152900D01*
Y155815D01*
X156746D01*
Y158480D01*
D02*
G37*
G36*
X151900D02*
X148054D01*
Y155815D01*
X151900D01*
Y158480D01*
D02*
G37*
G36*
X288770Y155908D02*
X288451Y155695D01*
X288198Y155800D01*
X287402D01*
X286667Y155496D01*
X286104Y154933D01*
X285800Y154198D01*
Y153402D01*
X286104Y152667D01*
X286667Y152104D01*
X287402Y151800D01*
X288198D01*
X288354Y151865D01*
X288770Y151587D01*
Y149892D01*
X299510D01*
Y155908D01*
X288770D01*
Y155908D01*
D02*
G37*
G36*
X166200Y159294D02*
X164420D01*
Y155546D01*
X166200D01*
Y159294D01*
D02*
G37*
G36*
X156746Y154815D02*
X152900D01*
Y152150D01*
X156746D01*
Y154815D01*
D02*
G37*
G36*
X151900D02*
X148054D01*
Y152150D01*
X151900D01*
Y154815D01*
D02*
G37*
G36*
X169421Y159294D02*
X168980D01*
X168921Y159294D01*
X167200D01*
Y155046D01*
Y150798D01*
X168921D01*
X168980Y150798D01*
X169421D01*
X169480Y150798D01*
X171200D01*
Y155046D01*
Y159294D01*
X169480D01*
X169421Y159294D01*
D02*
G37*
G36*
X166200Y154546D02*
X164420D01*
Y150798D01*
X166200D01*
Y154546D01*
D02*
G37*
G36*
X299510Y145908D02*
X288770D01*
Y145155D01*
X288388Y144900D01*
X287593D01*
X286858Y144596D01*
X286295Y144033D01*
X285991Y143298D01*
Y142502D01*
X286295Y141767D01*
X286858Y141205D01*
X287593Y140900D01*
X288388D01*
X288770Y140645D01*
Y139892D01*
X299510D01*
Y145908D01*
D02*
G37*
G36*
X156746Y147850D02*
X148054D01*
Y141520D01*
X150179D01*
X150513Y141020D01*
X150400Y140746D01*
Y139950D01*
X150705Y139215D01*
X151267Y138653D01*
X152002Y138348D01*
X152798D01*
X153533Y138653D01*
X154095Y139215D01*
X154400Y139950D01*
Y140746D01*
X154287Y141020D01*
X154621Y141520D01*
X156746D01*
Y147850D01*
D02*
G37*
G36*
X179420Y130948D02*
X178980D01*
X178920Y130948D01*
X177200D01*
Y126700D01*
Y122452D01*
X178920D01*
X178980Y122452D01*
X179420D01*
X179480Y122452D01*
X183979D01*
Y124555D01*
X184196Y124700D01*
X184992D01*
X185727Y125004D01*
X186289Y125567D01*
X186594Y126302D01*
Y127098D01*
X186289Y127833D01*
X185727Y128395D01*
X184992Y128700D01*
X184196D01*
X183979Y128845D01*
Y130948D01*
X179480D01*
X179420Y130948D01*
D02*
G37*
G36*
X299510Y135908D02*
X288770D01*
Y135155D01*
X288388Y134900D01*
X287593D01*
X286858Y134596D01*
X286295Y134033D01*
X285991Y133298D01*
Y132502D01*
X286295Y131767D01*
X286858Y131204D01*
X287593Y130900D01*
X288388D01*
X288770Y130645D01*
Y129892D01*
X299510D01*
Y135908D01*
D02*
G37*
G36*
Y125908D02*
X288770D01*
Y125155D01*
X288388Y124900D01*
X287593D01*
X286858Y124595D01*
X286295Y124033D01*
X285991Y123298D01*
Y122502D01*
X286295Y121767D01*
X286858Y121204D01*
X287593Y120900D01*
X288388D01*
X288770Y120645D01*
Y119892D01*
X299510D01*
Y125908D01*
D02*
G37*
G36*
Y115908D02*
X288770D01*
Y115155D01*
X288388Y114900D01*
X287593D01*
X286858Y114595D01*
X286295Y114033D01*
X285991Y113298D01*
Y112502D01*
X286295Y111767D01*
X286858Y111205D01*
X287593Y110900D01*
X288388D01*
X288770Y110645D01*
Y109892D01*
X299510D01*
Y115908D01*
D02*
G37*
G36*
Y105908D02*
X288770D01*
Y105155D01*
X288388Y104900D01*
X287593D01*
X286858Y104595D01*
X286295Y104033D01*
X285991Y103298D01*
Y102502D01*
X286295Y101767D01*
X286858Y101205D01*
X287593Y100900D01*
X288388D01*
X288770Y100645D01*
Y99892D01*
X299510D01*
Y105908D01*
D02*
G37*
G36*
X321754Y225908D02*
X311014D01*
Y219892D01*
X314855D01*
Y215908D01*
X311014D01*
Y209892D01*
X314855D01*
Y205908D01*
X311014D01*
Y199892D01*
X314855D01*
Y195908D01*
X311014D01*
Y189892D01*
X314855D01*
Y185908D01*
X311014D01*
Y179892D01*
X314855D01*
Y175908D01*
X311014D01*
Y169892D01*
X314855D01*
Y165908D01*
X311014D01*
Y159892D01*
X314855D01*
Y155908D01*
X311014D01*
Y149892D01*
X314855D01*
Y145908D01*
X311014D01*
Y139892D01*
X314855D01*
Y135908D01*
X311014D01*
Y129892D01*
X314855D01*
Y125908D01*
X311014D01*
Y119892D01*
X314855D01*
Y115908D01*
X311014D01*
Y109892D01*
X314855D01*
Y105908D01*
X311014D01*
Y99892D01*
X314855D01*
Y95908D01*
X311014D01*
Y89892D01*
X314855D01*
Y85908D01*
X311014D01*
Y79892D01*
X314855D01*
Y75908D01*
X311014D01*
Y69892D01*
X314855D01*
Y65908D01*
X311014D01*
Y59892D01*
X314855D01*
Y55908D01*
X311014D01*
Y49892D01*
X314855D01*
Y45908D01*
X311014D01*
Y44429D01*
X299510D01*
Y45908D01*
X295670D01*
Y49892D01*
X299510D01*
Y55908D01*
X295670D01*
Y59892D01*
X299510D01*
Y65908D01*
X295670D01*
Y69892D01*
X299510D01*
Y75908D01*
X295670D01*
Y79892D01*
X299510D01*
Y85908D01*
X295670D01*
Y89892D01*
X299510D01*
Y95908D01*
X288770D01*
Y95155D01*
X288388Y94900D01*
X287593D01*
X286858Y94595D01*
X286295Y94033D01*
X285991Y93298D01*
Y92502D01*
X286295Y91767D01*
X286858Y91205D01*
X287593Y90900D01*
X288388D01*
X288770Y90645D01*
Y89892D01*
X292611D01*
Y85908D01*
X288770D01*
Y79892D01*
X292611D01*
Y75908D01*
X288770D01*
Y69892D01*
X292611D01*
Y65908D01*
X288770D01*
Y59892D01*
X292611D01*
Y55908D01*
X288770D01*
Y49892D01*
X292611D01*
Y45908D01*
X288770D01*
Y39892D01*
X299510D01*
Y41371D01*
X311014D01*
Y39892D01*
X321754D01*
Y45908D01*
X317914D01*
Y49892D01*
X321754D01*
Y55908D01*
X317914D01*
Y59892D01*
X321754D01*
Y65908D01*
X317914D01*
Y69892D01*
X321754D01*
Y75908D01*
X317914D01*
Y79892D01*
X321754D01*
Y85908D01*
X317914D01*
Y89892D01*
X321754D01*
Y95908D01*
X317914D01*
Y99892D01*
X321754D01*
Y105908D01*
X317914D01*
Y109892D01*
X321754D01*
Y115908D01*
X317914D01*
Y119892D01*
X321754D01*
Y125908D01*
X317914D01*
Y129892D01*
X321754D01*
Y135908D01*
X317914D01*
Y139892D01*
X321754D01*
Y145908D01*
X317914D01*
Y149892D01*
X321754D01*
Y155908D01*
X317914D01*
Y159892D01*
X321754D01*
Y165908D01*
X317914D01*
Y169892D01*
X321754D01*
Y175908D01*
X317914D01*
Y179892D01*
X321754D01*
Y185908D01*
X317914D01*
Y189892D01*
X321754D01*
Y195908D01*
X317914D01*
Y199892D01*
X321754D01*
Y205908D01*
X317914D01*
Y209892D01*
X321754D01*
Y215908D01*
X317914D01*
Y219892D01*
X321754D01*
Y225908D01*
D02*
G37*
G36*
X50630Y235908D02*
X39890D01*
Y229892D01*
X43731D01*
Y225908D01*
X39890D01*
Y219892D01*
X43731D01*
Y215908D01*
X39890D01*
Y209892D01*
X43731D01*
Y205908D01*
X39890D01*
Y199892D01*
X43731D01*
Y195908D01*
X39890D01*
Y189892D01*
X43731D01*
Y185908D01*
X39890D01*
Y179892D01*
X43731D01*
Y175908D01*
X39890D01*
Y169892D01*
X43731D01*
Y165908D01*
X39890D01*
Y159892D01*
X43731D01*
Y155908D01*
X39890D01*
Y149892D01*
X43731D01*
Y145908D01*
X39890D01*
Y139892D01*
X43731D01*
Y135908D01*
X39890D01*
Y129892D01*
X43731D01*
Y125908D01*
X39890D01*
Y119892D01*
X43731D01*
Y115908D01*
X39890D01*
Y109892D01*
X43731D01*
Y105908D01*
X39890D01*
Y99892D01*
X43731D01*
Y95908D01*
X39890D01*
Y89892D01*
X43731D01*
Y85908D01*
X39890D01*
Y79892D01*
X43731D01*
Y75908D01*
X39890D01*
Y69892D01*
X43731D01*
Y65908D01*
X39890D01*
Y59892D01*
X43731D01*
Y55908D01*
X39890D01*
Y49892D01*
X43731D01*
Y45908D01*
X39890D01*
Y44429D01*
X28386D01*
Y45908D01*
X24545D01*
Y49892D01*
X28386D01*
Y55908D01*
X24545D01*
Y59892D01*
X28386D01*
Y65908D01*
X24545D01*
Y69892D01*
X28386D01*
Y75908D01*
X24545D01*
Y79892D01*
X28386D01*
Y85908D01*
X24545D01*
Y89892D01*
X28386D01*
Y95908D01*
X24545D01*
Y99892D01*
X28386D01*
Y105908D01*
X24545D01*
Y109892D01*
X28386D01*
Y115908D01*
X24545D01*
Y119892D01*
X28386D01*
Y125908D01*
X24545D01*
Y129892D01*
X28386D01*
Y135908D01*
X24545D01*
Y139892D01*
X28386D01*
Y145908D01*
X24545D01*
Y149892D01*
X28386D01*
Y155908D01*
X24545D01*
Y159892D01*
X28386D01*
Y165908D01*
X24545D01*
Y169892D01*
X28386D01*
Y175908D01*
X24545D01*
Y179892D01*
X28386D01*
Y185908D01*
X24545D01*
Y189892D01*
X28386D01*
Y195908D01*
X24545D01*
Y199892D01*
X28386D01*
Y205908D01*
X24545D01*
Y209892D01*
X28386D01*
Y215908D01*
X24545D01*
Y219892D01*
X28386D01*
Y225908D01*
X24545D01*
Y229892D01*
X28386D01*
Y235908D01*
X17646D01*
Y229892D01*
X21486D01*
Y225908D01*
X17646D01*
Y219892D01*
X21486D01*
Y215908D01*
X17646D01*
Y209892D01*
X21486D01*
Y205908D01*
X17646D01*
Y199892D01*
X21486D01*
Y195908D01*
X17646D01*
Y189892D01*
X21486D01*
Y185908D01*
X17646D01*
Y179892D01*
X21486D01*
Y175908D01*
X17646D01*
Y169892D01*
X21486D01*
Y165908D01*
X17646D01*
Y159892D01*
X21486D01*
Y155908D01*
X17646D01*
Y149892D01*
X21486D01*
Y145908D01*
X17646D01*
Y139892D01*
X21486D01*
Y135908D01*
X17646D01*
Y129892D01*
X21486D01*
Y125908D01*
X17646D01*
Y119892D01*
X21486D01*
Y115908D01*
X17646D01*
Y109892D01*
X21486D01*
Y105908D01*
X17646D01*
Y99892D01*
X21486D01*
Y95908D01*
X17646D01*
Y89892D01*
X21486D01*
Y85908D01*
X17646D01*
Y79892D01*
X21486D01*
Y75908D01*
X17646D01*
Y69892D01*
X21486D01*
Y65908D01*
X17646D01*
Y59892D01*
X21486D01*
Y55908D01*
X17646D01*
Y49892D01*
X21486D01*
Y45908D01*
X17646D01*
Y39892D01*
X28386D01*
Y41371D01*
X39890D01*
Y39892D01*
X50630D01*
Y45908D01*
X46789D01*
Y49892D01*
X50630D01*
Y55908D01*
X46789D01*
Y59892D01*
X50630D01*
Y65908D01*
X46789D01*
Y69892D01*
X50630D01*
Y75908D01*
X46789D01*
Y79892D01*
X50630D01*
Y85908D01*
X46789D01*
Y89892D01*
X50630D01*
Y95908D01*
X46789D01*
Y99892D01*
X50630D01*
Y105908D01*
X46789D01*
Y109892D01*
X50630D01*
Y115908D01*
X46789D01*
Y119892D01*
X50630D01*
Y125908D01*
X46789D01*
Y129892D01*
X50630D01*
Y135908D01*
X46789D01*
Y139892D01*
X50630D01*
Y145908D01*
X46789D01*
Y149892D01*
X50630D01*
Y155908D01*
X46789D01*
Y159892D01*
X50630D01*
Y165908D01*
X46789D01*
Y169892D01*
X50630D01*
Y175908D01*
X46789D01*
Y179892D01*
X50630D01*
Y185908D01*
X46789D01*
Y189892D01*
X50630D01*
Y195908D01*
X46789D01*
Y199892D01*
X50630D01*
Y205908D01*
X46789D01*
Y209892D01*
X50630D01*
Y215908D01*
X46789D01*
Y219892D01*
X50630D01*
Y225908D01*
X46789D01*
Y229892D01*
X50630D01*
Y231371D01*
X52001D01*
X52167Y231205D01*
X52902Y230900D01*
X53698D01*
X54433Y231205D01*
X54996Y231767D01*
X55300Y232502D01*
Y233298D01*
X54996Y234033D01*
X54433Y234595D01*
X53698Y234900D01*
X52902D01*
X52167Y234595D01*
X52001Y234429D01*
X50630D01*
Y235908D01*
D02*
G37*
%LPD*%
G36*
X286219Y203849D02*
X285991Y203298D01*
Y203063D01*
X200957Y118029D01*
X200349D01*
X200194Y118483D01*
X200192Y118529D01*
X285795Y204132D01*
X286219Y203849D01*
D02*
G37*
D11*
X230137Y155046D02*
X287990Y212900D01*
X181700Y155046D02*
X230137D01*
X174600Y119600D02*
X199100D01*
X287400Y207900D01*
X300400D01*
X287990Y212900D02*
X294140D01*
X174872Y116500D02*
X201591D01*
X169700Y121672D02*
Y121731D01*
Y121672D02*
X174872Y116500D01*
X171700Y122500D02*
Y126700D01*
X166700Y124732D02*
X169700Y121731D01*
X171700Y122500D02*
X174600Y119600D01*
X201591Y116500D02*
X287990Y202900D01*
X296502Y222900D02*
X302600Y216802D01*
X294140Y222900D02*
X296502D01*
X300400Y207900D02*
X302600Y210100D01*
Y216802D01*
X287990Y222900D02*
X288141Y222750D01*
X287990Y202900D02*
X294140D01*
X293140Y193900D02*
X294140Y192900D01*
X287990Y193900D02*
X293140D01*
X166700Y124732D02*
Y126700D01*
X181700D02*
X184594D01*
X252585Y232900D02*
X287990D01*
X176700Y157015D02*
X252585Y232900D01*
X176700Y155046D02*
Y157015D01*
X171700Y153078D02*
Y155046D01*
X166431Y155315D02*
X166700Y155046D01*
X316384Y232900D02*
X322534D01*
X45260D02*
X53300D01*
X23016Y192900D02*
Y202900D01*
Y182900D02*
Y192900D01*
Y172900D02*
Y182900D01*
Y162900D02*
Y172900D01*
Y152900D02*
Y162900D01*
Y142900D02*
Y152900D01*
Y132900D02*
Y142900D01*
Y122900D02*
Y132900D01*
Y112900D02*
Y122900D01*
Y102900D02*
Y112900D01*
Y92900D02*
Y102900D01*
Y82900D02*
Y92900D01*
Y72900D02*
Y82900D01*
Y62900D02*
Y72900D01*
Y52900D02*
Y62900D01*
Y42900D02*
Y52900D01*
Y42900D02*
X45260D01*
Y52900D01*
Y62900D01*
Y72900D01*
Y82900D01*
Y92900D01*
Y102900D01*
Y112900D01*
Y122900D01*
Y132900D01*
Y142900D01*
Y152900D01*
Y162900D01*
Y172900D02*
Y182900D01*
Y162900D02*
Y172900D01*
Y182900D02*
Y192900D01*
Y202900D01*
Y212900D01*
Y222900D01*
Y232900D01*
X23016Y212900D02*
Y222900D01*
Y202900D02*
Y212900D01*
Y222900D02*
Y232900D01*
X152400Y140348D02*
Y144685D01*
X287990Y232900D02*
X294140D01*
X287990Y222900D02*
X294140D01*
X287990Y92900D02*
X294140D01*
X287990Y102900D02*
X294140D01*
X287990Y112900D02*
X294140D01*
X287990Y122900D02*
X294140D01*
X287990Y132900D02*
X294140D01*
X287990Y142900D02*
X294140D01*
X287800Y153800D02*
X293240D01*
X294140Y152900D01*
X287800Y161800D02*
X293040D01*
X294140Y162900D01*
X293140Y173900D02*
X294140Y172900D01*
X288491Y173900D02*
X293140D01*
X288261Y184900D02*
X288753Y184408D01*
X292632D01*
X287990Y184900D02*
X288261D01*
X292632Y184408D02*
X294140Y182900D01*
Y82900D02*
Y92900D01*
Y62900D02*
Y72900D01*
Y82900D01*
Y52900D02*
Y62900D01*
Y42900D02*
Y52900D01*
Y42900D02*
X316384D01*
Y132900D02*
Y142900D01*
Y122900D02*
Y132900D01*
Y112900D02*
Y122900D01*
Y92900D02*
Y102900D01*
Y112900D01*
Y82900D02*
Y92900D01*
Y72900D02*
Y82900D01*
Y62900D02*
Y72900D01*
Y52900D02*
Y62900D01*
Y42900D02*
Y52900D01*
Y142900D02*
Y152900D01*
Y162900D01*
Y172900D01*
Y182900D02*
Y192900D01*
Y172900D02*
Y182900D01*
Y192900D02*
Y202900D01*
Y212900D01*
Y222900D01*
X314022Y232900D02*
X316384D01*
D16*
X294140Y192900D02*
D03*
Y182900D02*
D03*
Y172900D02*
D03*
Y162900D02*
D03*
Y152900D02*
D03*
Y142900D02*
D03*
Y132900D02*
D03*
Y122900D02*
D03*
Y112900D02*
D03*
Y102900D02*
D03*
Y42900D02*
D03*
X316384D02*
D03*
X294140Y52900D02*
D03*
X316384D02*
D03*
X294140Y62900D02*
D03*
X316384D02*
D03*
X294140Y72900D02*
D03*
X316384D02*
D03*
X294140Y82900D02*
D03*
X316384D02*
D03*
X294140Y92900D02*
D03*
X316384D02*
D03*
Y102900D02*
D03*
Y112900D02*
D03*
Y122900D02*
D03*
Y132900D02*
D03*
Y142900D02*
D03*
Y152900D02*
D03*
Y162900D02*
D03*
Y172900D02*
D03*
Y182900D02*
D03*
Y192900D02*
D03*
X294140Y202900D02*
D03*
X316384D02*
D03*
X294140Y212900D02*
D03*
X316384D02*
D03*
X294140Y222900D02*
D03*
X316384D02*
D03*
X294140Y232900D02*
D03*
X316384D02*
D03*
X23016Y42900D02*
D03*
X45260D02*
D03*
X23016Y52900D02*
D03*
X45260D02*
D03*
X23016Y62900D02*
D03*
X45260D02*
D03*
X23016Y72900D02*
D03*
X45260D02*
D03*
X23016Y82900D02*
D03*
X45260D02*
D03*
X23016Y92900D02*
D03*
X45260D02*
D03*
X23016Y102900D02*
D03*
X45260D02*
D03*
X23016Y112900D02*
D03*
X45260D02*
D03*
X23016Y122900D02*
D03*
X45260D02*
D03*
X23016Y132900D02*
D03*
X45260D02*
D03*
X23016Y142900D02*
D03*
X45260D02*
D03*
X23016Y152900D02*
D03*
X45260D02*
D03*
X23016Y162900D02*
D03*
X45260D02*
D03*
X23016Y172900D02*
D03*
X45260D02*
D03*
X23016Y182900D02*
D03*
X45260D02*
D03*
X23016Y192900D02*
D03*
X45260D02*
D03*
X23016Y202900D02*
D03*
X45260D02*
D03*
X23016Y212900D02*
D03*
X45260D02*
D03*
X23016Y222900D02*
D03*
X45260D02*
D03*
X23016Y232900D02*
D03*
X45260D02*
D03*
D17*
X166700Y155046D02*
D03*
X171700D02*
D03*
X176700D02*
D03*
X181700D02*
D03*
Y126700D02*
D03*
X176700D02*
D03*
X171700D02*
D03*
X166700D02*
D03*
D18*
X152400Y155315D02*
D03*
Y144685D02*
D03*
D19*
X287990Y212900D02*
D03*
Y202900D02*
D03*
Y193900D02*
D03*
X184594Y126700D02*
D03*
X322534Y232900D02*
D03*
X53300D02*
D03*
X152400Y140348D02*
D03*
X287990Y232900D02*
D03*
Y222900D02*
D03*
Y92900D02*
D03*
Y102900D02*
D03*
Y112900D02*
D03*
Y122900D02*
D03*
Y132900D02*
D03*
Y142900D02*
D03*
X287800Y153800D02*
D03*
Y161800D02*
D03*
X288491Y173900D02*
D03*
X287990Y184900D02*
D03*
M02*
