M48
;Layer_Color=9474304
;FILE_FORMAT=2:5
INCH,TZ
;TYPE=PLATED
T1F00S00C0.01200
%
T01
X-146084Y-115263
X-138799Y-106316
X-138699Y-97716
X-12213Y-102116
Y-112116
Y-122116
Y-132116
Y-92116
Y-82116
Y-72116
Y-62116
X-55699Y-192116
X-161099Y-133416
X-159999Y-111616
X-212799Y-92816
X-178199Y-45716
X-171300
X-152033Y-48117
X-283100Y-1900
X-54399Y-2216
X-12147Y-2008
X-12213Y-12116
Y-22116
X-12313Y-32116
X-12213Y-42116
Y-52116
M30
