G04*
G04 #@! TF.GenerationSoftware,Altium Limited,Altium Designer,22.9.1 (49)*
G04*
G04 Layer_Color=32768*
%FSLAX25Y25*%
%MOIN*%
G70*
G04*
G04 #@! TF.SameCoordinates,36612407-E1A3-45C0-BD03-384B5C56F293*
G04*
G04*
G04 #@! TF.FilePolarity,Positive*
G04*
G01*
G75*
%ADD12C,0.00600*%
%ADD34C,0.00394*%
%ADD36C,0.00197*%
G36*
X-146440Y-94951D02*
Y-102351D01*
X-185640D01*
Y-94951D01*
X-187690D01*
Y-63051D01*
X-185640D01*
Y-55651D01*
X-146440D01*
Y-63051D01*
X-144390D01*
Y-94951D01*
X-146440D01*
D02*
G37*
D12*
Y-102351D02*
Y-94951D01*
X-144390D01*
Y-63051D01*
X-146440D02*
X-144390D01*
X-146440D02*
Y-55651D01*
X-185640D02*
X-146440D01*
X-185640Y-63051D02*
Y-55651D01*
X-187690Y-63051D02*
X-185640D01*
X-187690Y-94951D02*
Y-63051D01*
Y-94951D02*
X-185640D01*
Y-102351D02*
Y-94951D01*
Y-102351D02*
X-146440D01*
D34*
X-190099Y-127763D02*
X-185768D01*
X-190099Y-118314D02*
X-185768D01*
X-190099Y-127763D02*
Y-118314D01*
X-185768Y-127763D02*
Y-118314D01*
X-187933Y-124909D02*
Y-121168D01*
X-189803Y-123038D02*
X-186063D01*
X-154199Y-122940D02*
X-149868D01*
X-154199Y-113491D02*
X-149868D01*
X-154199Y-122940D02*
Y-113491D01*
X-149868Y-122940D02*
Y-113491D01*
X-152033Y-120086D02*
Y-116346D01*
X-153903Y-118216D02*
X-150163D01*
X-172599Y-135084D02*
Y-131147D01*
X-174568Y-133116D02*
X-170631D01*
X-180473Y-136856D02*
X-164725D01*
X-180473Y-129376D02*
X-164725D01*
Y-136856D02*
Y-129376D01*
X-180473Y-136856D02*
Y-129376D01*
X-204068Y-84316D02*
X-200131D01*
X-202099Y-86284D02*
Y-82347D01*
X-198359Y-92190D02*
Y-76442D01*
X-205839Y-92190D02*
Y-76442D01*
X-198359D01*
X-205839Y-92190D02*
X-198359D01*
D36*
X-50483Y-197992D02*
Y3976D01*
X-17530D01*
Y-197992D02*
Y3976D01*
X-50483Y-197992D02*
X-17530D01*
X-321420D02*
Y3976D01*
X-288468D01*
Y-197992D02*
Y3976D01*
X-321420Y-197992D02*
X-288468D01*
X-160926Y-123924D02*
Y-114082D01*
X-173642Y-123924D02*
Y-114082D01*
Y-123924D02*
X-160926D01*
X-173642Y-114082D02*
X-160926D01*
M02*
