G04*
G04 #@! TF.GenerationSoftware,Altium Limited,Altium Designer,22.9.1 (49)*
G04*
G04 Layer_Physical_Order=2*
G04 Layer_Color=16711680*
%FSLAX25Y25*%
%MOIN*%
G70*
G04*
G04 #@! TF.SameCoordinates,874C2829-7940-4526-9E93-E1EEED9EE5DD*
G04*
G04*
G04 #@! TF.FilePolarity,Positive*
G04*
G01*
G75*
%ADD15C,0.01000*%
%ADD30C,0.02000*%
%ADD31R,0.12500X0.04488*%
G36*
X1Y28836D02*
Y-222868D01*
X-12147Y-235016D01*
X-326851D01*
X-338999Y-222868D01*
Y28836D01*
X-326851Y40984D01*
X-12147D01*
X1Y28836D01*
D02*
G37*
%LPC*%
G36*
X-32137Y7406D02*
X-32137Y7406D01*
X-126199D01*
X-126199Y7406D01*
X-126628Y7321D01*
X-126992Y7077D01*
X-126992Y7077D01*
X-178185Y-44116D01*
X-178517D01*
X-179105Y-44359D01*
X-179555Y-44809D01*
X-179799Y-45397D01*
Y-46034D01*
X-179555Y-46622D01*
X-179105Y-47072D01*
X-178517Y-47316D01*
X-177881D01*
X-177293Y-47072D01*
X-176843Y-46622D01*
X-176599Y-46034D01*
Y-45702D01*
X-125734Y5163D01*
X-32601D01*
X-28736Y1297D01*
X-28927Y835D01*
X-30856D01*
Y-4853D01*
X-17156D01*
Y-3337D01*
X-13355D01*
X-13120Y-3572D01*
X-12532Y-3816D01*
X-11895D01*
X-11307Y-3572D01*
X-10857Y-3122D01*
X-10613Y-2534D01*
Y-1897D01*
X-10857Y-1309D01*
X-11307Y-859D01*
X-11895Y-616D01*
X-12532D01*
X-13120Y-859D01*
X-13355Y-1094D01*
X-17156D01*
Y835D01*
X-25102D01*
X-31344Y7077D01*
X-31708Y7321D01*
X-32137Y7406D01*
D02*
G37*
G36*
X-37648Y835D02*
X-51348D01*
Y-1094D01*
X-53258D01*
X-53493Y-859D01*
X-54081Y-616D01*
X-54717D01*
X-55305Y-859D01*
X-55756Y-1309D01*
X-55999Y-1897D01*
Y-2534D01*
X-55756Y-3122D01*
X-55305Y-3572D01*
X-54717Y-3816D01*
X-54081D01*
X-53493Y-3572D01*
X-53258Y-3337D01*
X-51348D01*
Y-4853D01*
X-37648D01*
Y835D01*
D02*
G37*
G36*
X-307940Y1221D02*
X-314690D01*
Y-1524D01*
X-307940D01*
Y1221D01*
D02*
G37*
G36*
X-315690D02*
X-322440D01*
Y-1524D01*
X-315690D01*
Y1221D01*
D02*
G37*
G36*
X-287448D02*
X-294198D01*
Y-1524D01*
X-287448D01*
Y1221D01*
D02*
G37*
G36*
X-295198D02*
X-301948D01*
Y-1524D01*
X-295198D01*
Y1221D01*
D02*
G37*
G36*
X-287448Y-2524D02*
X-294198D01*
Y-5268D01*
X-287448D01*
Y-2524D01*
D02*
G37*
G36*
X-295198D02*
X-301948D01*
Y-5268D01*
X-295198D01*
Y-2524D01*
D02*
G37*
G36*
X-307940Y-2524D02*
X-314690D01*
Y-5268D01*
X-307940D01*
Y-2524D01*
D02*
G37*
G36*
X-315690D02*
X-322440D01*
Y-5268D01*
X-315690D01*
Y-2524D01*
D02*
G37*
G36*
X-13844Y-6394D02*
X-13844Y-6394D01*
X-133100D01*
X-133100Y-6394D01*
X-133529Y-6480D01*
X-133893Y-6723D01*
X-133893Y-6723D01*
X-171286Y-44116D01*
X-171618D01*
X-172206Y-44359D01*
X-172656Y-44809D01*
X-172900Y-45397D01*
Y-46034D01*
X-172656Y-46622D01*
X-172206Y-47072D01*
X-171618Y-47316D01*
X-170982D01*
X-170394Y-47072D01*
X-169943Y-46622D01*
X-169700Y-46034D01*
Y-45702D01*
X-132635Y-8637D01*
X-52196D01*
X-51748Y-8765D01*
X-51748Y-9137D01*
Y-11509D01*
X-44498D01*
X-37248D01*
X-37248Y-8765D01*
X-36801Y-8637D01*
X-14308D01*
X-12842Y-10103D01*
X-12960Y-10693D01*
X-13120Y-10759D01*
X-13355Y-10994D01*
X-17156D01*
Y-9165D01*
X-30856D01*
Y-13643D01*
X-33607Y-16394D01*
X-58499D01*
X-58499Y-16394D01*
X-58928Y-16479D01*
X-59292Y-16723D01*
X-59292Y-16723D01*
X-138685Y-96116D01*
X-139017D01*
X-139605Y-96359D01*
X-140056Y-96809D01*
X-140299Y-97398D01*
Y-98034D01*
X-140056Y-98622D01*
X-139605Y-99072D01*
X-139017Y-99316D01*
X-138381D01*
X-137793Y-99072D01*
X-137343Y-98622D01*
X-137099Y-98034D01*
Y-97702D01*
X-58035Y-18637D01*
X-52196D01*
X-51748Y-18765D01*
X-51748Y-19137D01*
Y-21509D01*
X-44498D01*
X-37248D01*
X-37248Y-18765D01*
X-36801Y-18637D01*
X-33143D01*
X-33143Y-18637D01*
X-32714Y-18552D01*
X-32350Y-18309D01*
X-28894Y-14853D01*
X-17156D01*
Y-13237D01*
X-13355D01*
X-13120Y-13472D01*
X-12532Y-13716D01*
X-11895D01*
X-11307Y-13472D01*
X-10857Y-13022D01*
X-10791Y-12862D01*
X-10201Y-12744D01*
X-9121Y-13825D01*
Y-17437D01*
X-12200Y-20516D01*
X-12532D01*
X-13120Y-20759D01*
X-13355Y-20994D01*
X-17156D01*
Y-19165D01*
X-30856D01*
Y-24853D01*
X-17156D01*
Y-23237D01*
X-13355D01*
X-13120Y-23472D01*
X-12532Y-23716D01*
X-11895D01*
X-11307Y-23472D01*
X-10857Y-23022D01*
X-10613Y-22434D01*
Y-22102D01*
X-7206Y-18695D01*
X-7206Y-18695D01*
X-6963Y-18331D01*
X-6877Y-17901D01*
X-6878Y-17901D01*
Y-13360D01*
X-6963Y-12931D01*
X-7206Y-12567D01*
X-7206Y-12567D01*
X-13050Y-6723D01*
X-13414Y-6480D01*
X-13844Y-6394D01*
D02*
G37*
G36*
X-307940Y-8779D02*
X-314690D01*
Y-11524D01*
X-307940D01*
Y-8779D01*
D02*
G37*
G36*
X-315690D02*
X-322440D01*
Y-11524D01*
X-315690D01*
Y-8779D01*
D02*
G37*
G36*
X-287448D02*
X-294198D01*
Y-11524D01*
X-287448D01*
Y-8779D01*
D02*
G37*
G36*
X-295198D02*
X-301948D01*
Y-11524D01*
X-295198D01*
Y-8779D01*
D02*
G37*
G36*
X-37248Y-12509D02*
X-43998D01*
Y-15253D01*
X-37248D01*
Y-12509D01*
D02*
G37*
G36*
X-44998D02*
X-51748D01*
Y-15253D01*
X-44998D01*
Y-12509D01*
D02*
G37*
G36*
X-287448Y-12524D02*
X-294198D01*
Y-15268D01*
X-287448D01*
Y-12524D01*
D02*
G37*
G36*
X-295198D02*
X-301948D01*
Y-15268D01*
X-295198D01*
Y-12524D01*
D02*
G37*
G36*
X-307940Y-12524D02*
X-314690D01*
Y-15268D01*
X-307940D01*
Y-12524D01*
D02*
G37*
G36*
X-315690D02*
X-322440D01*
Y-15268D01*
X-315690D01*
Y-12524D01*
D02*
G37*
G36*
X-307940Y-18779D02*
X-314690D01*
Y-21524D01*
X-307940D01*
Y-18779D01*
D02*
G37*
G36*
X-315690D02*
X-322440D01*
Y-21524D01*
X-315690D01*
Y-18779D01*
D02*
G37*
G36*
X-287448D02*
X-294198D01*
Y-21524D01*
X-287448D01*
Y-18779D01*
D02*
G37*
G36*
X-295198D02*
X-301948D01*
Y-21524D01*
X-295198D01*
Y-18779D01*
D02*
G37*
G36*
X-37248Y-22509D02*
X-43998D01*
Y-25253D01*
X-37248D01*
Y-22509D01*
D02*
G37*
G36*
X-44998D02*
X-51748D01*
Y-25253D01*
X-44998D01*
Y-22509D01*
D02*
G37*
G36*
X-287448Y-22524D02*
X-294198D01*
Y-25268D01*
X-287448D01*
Y-22524D01*
D02*
G37*
G36*
X-295198D02*
X-301948D01*
Y-25268D01*
X-295198D01*
Y-22524D01*
D02*
G37*
G36*
X-307940Y-22524D02*
X-314690D01*
Y-25268D01*
X-307940D01*
Y-22524D01*
D02*
G37*
G36*
X-315690D02*
X-322440D01*
Y-25268D01*
X-315690D01*
Y-22524D01*
D02*
G37*
G36*
X-37248Y-28765D02*
X-43998D01*
Y-31509D01*
X-37248D01*
Y-28765D01*
D02*
G37*
G36*
X-44998D02*
X-51748D01*
Y-31509D01*
X-44998D01*
Y-28765D01*
D02*
G37*
G36*
X-307940Y-28780D02*
X-314690D01*
Y-31524D01*
X-307940D01*
Y-28780D01*
D02*
G37*
G36*
X-315690D02*
X-322440D01*
Y-31524D01*
X-315690D01*
Y-28780D01*
D02*
G37*
G36*
X-287448D02*
X-294198D01*
Y-31524D01*
X-287448D01*
Y-28780D01*
D02*
G37*
G36*
X-295198D02*
X-301948D01*
Y-31524D01*
X-295198D01*
Y-28780D01*
D02*
G37*
G36*
X-17156Y-29165D02*
X-30856D01*
Y-33643D01*
X-33707Y-36494D01*
X-51564D01*
X-51993Y-36579D01*
X-52357Y-36823D01*
X-52357Y-36823D01*
X-120728Y-105194D01*
X-137658D01*
X-137893Y-104959D01*
X-138481Y-104716D01*
X-139117D01*
X-139705Y-104959D01*
X-140155Y-105409D01*
X-140399Y-105998D01*
Y-106634D01*
X-140155Y-107222D01*
X-139705Y-107672D01*
X-139117Y-107916D01*
X-138481D01*
X-137893Y-107672D01*
X-137658Y-107437D01*
X-120264D01*
X-120264Y-107437D01*
X-119835Y-107352D01*
X-119471Y-107109D01*
X-52210Y-39848D01*
X-51748Y-40040D01*
Y-41509D01*
X-44498D01*
X-37248D01*
Y-38765D01*
X-36760Y-38737D01*
X-33243D01*
X-33243Y-38737D01*
X-32814Y-38652D01*
X-32450Y-38409D01*
X-28894Y-34853D01*
X-17156D01*
Y-33237D01*
X-13455D01*
X-13220Y-33472D01*
X-12632Y-33716D01*
X-11995D01*
X-11407Y-33472D01*
X-10957Y-33022D01*
X-10713Y-32434D01*
Y-31797D01*
X-10957Y-31209D01*
X-11407Y-30759D01*
X-11995Y-30516D01*
X-12632D01*
X-13220Y-30759D01*
X-13455Y-30994D01*
X-17156D01*
Y-29165D01*
D02*
G37*
G36*
X-37248Y-32509D02*
X-43998D01*
Y-35253D01*
X-37248D01*
Y-32509D01*
D02*
G37*
G36*
X-44998D02*
X-51748D01*
Y-35253D01*
X-44998D01*
Y-32509D01*
D02*
G37*
G36*
X-287448Y-32524D02*
X-294198D01*
Y-35268D01*
X-287448D01*
Y-32524D01*
D02*
G37*
G36*
X-295198D02*
X-301948D01*
Y-35268D01*
X-295198D01*
Y-32524D01*
D02*
G37*
G36*
X-307940Y-32524D02*
X-314690D01*
Y-35268D01*
X-307940D01*
Y-32524D01*
D02*
G37*
G36*
X-315690D02*
X-322440D01*
Y-35268D01*
X-315690D01*
Y-32524D01*
D02*
G37*
G36*
X-17156Y-39165D02*
X-30856D01*
Y-40994D01*
X-32599D01*
X-32599Y-40994D01*
X-33028Y-41080D01*
X-33392Y-41323D01*
X-33392Y-41323D01*
X-36786Y-44717D01*
X-37248Y-44526D01*
Y-42509D01*
X-43998D01*
Y-45253D01*
X-37976D01*
X-37784Y-45715D01*
X-38664Y-46594D01*
X-52699D01*
X-52699Y-46594D01*
X-53128Y-46679D01*
X-53492Y-46923D01*
X-53492Y-46923D01*
X-117064Y-110494D01*
X-158858D01*
X-159093Y-110259D01*
X-159681Y-110016D01*
X-160317D01*
X-160905Y-110259D01*
X-161355Y-110709D01*
X-161599Y-111298D01*
Y-111934D01*
X-161355Y-112522D01*
X-160905Y-112972D01*
X-160317Y-113216D01*
X-159681D01*
X-159093Y-112972D01*
X-158858Y-112737D01*
X-116599D01*
X-116599Y-112737D01*
X-116170Y-112652D01*
X-115806Y-112409D01*
X-52248Y-48851D01*
X-51748Y-48871D01*
Y-51509D01*
X-44498D01*
X-37248D01*
Y-48765D01*
X-37248Y-48765D01*
X-37248D01*
X-37187Y-48290D01*
X-32135Y-43237D01*
X-30856D01*
Y-44853D01*
X-17156D01*
Y-43237D01*
X-13355D01*
X-13120Y-43472D01*
X-12532Y-43716D01*
X-11895D01*
X-11307Y-43472D01*
X-10857Y-43022D01*
X-10613Y-42434D01*
Y-41797D01*
X-10857Y-41209D01*
X-11307Y-40759D01*
X-11895Y-40516D01*
X-12532D01*
X-13120Y-40759D01*
X-13355Y-40994D01*
X-17156D01*
Y-39165D01*
D02*
G37*
G36*
X-307940Y-38780D02*
X-314690D01*
Y-41524D01*
X-307940D01*
Y-38780D01*
D02*
G37*
G36*
X-315690D02*
X-322440D01*
Y-41524D01*
X-315690D01*
Y-38780D01*
D02*
G37*
G36*
X-287448D02*
X-294198D01*
Y-41524D01*
X-287448D01*
Y-38780D01*
D02*
G37*
G36*
X-295198D02*
X-301948D01*
Y-41524D01*
X-295198D01*
Y-38780D01*
D02*
G37*
G36*
X-44998Y-42509D02*
X-51748D01*
Y-45253D01*
X-44998D01*
Y-42509D01*
D02*
G37*
G36*
X-287448Y-42524D02*
X-294198D01*
Y-45268D01*
X-287448D01*
Y-42524D01*
D02*
G37*
G36*
X-295198D02*
X-301948D01*
Y-45268D01*
X-295198D01*
Y-42524D01*
D02*
G37*
G36*
X-307940Y-42524D02*
X-314690D01*
Y-45268D01*
X-307940D01*
Y-42524D01*
D02*
G37*
G36*
X-315690D02*
X-322440D01*
Y-45268D01*
X-315690D01*
Y-42524D01*
D02*
G37*
G36*
X-17156Y-49165D02*
X-30856D01*
Y-50994D01*
X-32599D01*
X-32599Y-50994D01*
X-33028Y-51079D01*
X-33392Y-51323D01*
X-36786Y-54717D01*
X-37248Y-54526D01*
Y-52509D01*
X-43998D01*
Y-55253D01*
X-37976D01*
X-37784Y-55715D01*
X-38264Y-56194D01*
X-53799D01*
X-54228Y-56279D01*
X-54592Y-56523D01*
X-54592Y-56523D01*
X-112211Y-114141D01*
X-144943D01*
X-145178Y-113907D01*
X-145766Y-113663D01*
X-146402D01*
X-146991Y-113907D01*
X-147441Y-114357D01*
X-147684Y-114945D01*
Y-115581D01*
X-147441Y-116169D01*
X-146991Y-116619D01*
X-146402Y-116863D01*
X-145766D01*
X-145178Y-116619D01*
X-144943Y-116384D01*
X-111746D01*
X-111746Y-116384D01*
X-111317Y-116299D01*
X-110953Y-116056D01*
X-53335Y-58437D01*
X-52113D01*
X-51748Y-58765D01*
X-51748Y-58937D01*
Y-61509D01*
X-44498D01*
X-37248D01*
Y-58826D01*
X-37248Y-58765D01*
X-37243Y-58267D01*
X-37006Y-58109D01*
X-32135Y-53237D01*
X-30856D01*
Y-54853D01*
X-17156D01*
Y-53237D01*
X-13355D01*
X-13120Y-53472D01*
X-12532Y-53716D01*
X-11895D01*
X-11307Y-53472D01*
X-10857Y-53022D01*
X-10613Y-52434D01*
Y-51797D01*
X-10857Y-51209D01*
X-11307Y-50759D01*
X-11895Y-50516D01*
X-12532D01*
X-13120Y-50759D01*
X-13355Y-50994D01*
X-17156D01*
Y-49165D01*
D02*
G37*
G36*
X-307940Y-48779D02*
X-314690D01*
Y-51524D01*
X-307940D01*
Y-48779D01*
D02*
G37*
G36*
X-315690D02*
X-322440D01*
Y-51524D01*
X-315690D01*
Y-48779D01*
D02*
G37*
G36*
X-287448D02*
X-294198D01*
Y-51524D01*
X-287448D01*
Y-48779D01*
D02*
G37*
G36*
X-295198D02*
X-301948D01*
Y-51524D01*
X-295198D01*
Y-48779D01*
D02*
G37*
G36*
X-44998Y-52509D02*
X-51748D01*
Y-55253D01*
X-44998D01*
Y-52509D01*
D02*
G37*
G36*
X-287448Y-52524D02*
X-294198D01*
Y-55268D01*
X-287448D01*
Y-52524D01*
D02*
G37*
G36*
X-295198D02*
X-301948D01*
Y-55268D01*
X-295198D01*
Y-52524D01*
D02*
G37*
G36*
X-307940Y-52524D02*
X-314690D01*
Y-55268D01*
X-307940D01*
Y-52524D01*
D02*
G37*
G36*
X-315690D02*
X-322440D01*
Y-55268D01*
X-315690D01*
Y-52524D01*
D02*
G37*
G36*
X-307940Y-58780D02*
X-314690D01*
Y-61524D01*
X-307940D01*
Y-58780D01*
D02*
G37*
G36*
X-315690D02*
X-322440D01*
Y-61524D01*
X-315690D01*
Y-58780D01*
D02*
G37*
G36*
X-287448D02*
X-294198D01*
Y-61524D01*
X-287448D01*
Y-58780D01*
D02*
G37*
G36*
X-295198D02*
X-301948D01*
Y-61524D01*
X-295198D01*
Y-58780D01*
D02*
G37*
G36*
X-17156Y-59165D02*
X-30856D01*
Y-64853D01*
X-17156D01*
Y-63237D01*
X-13355D01*
X-13120Y-63472D01*
X-12532Y-63716D01*
X-11895D01*
X-11307Y-63472D01*
X-10857Y-63022D01*
X-10613Y-62434D01*
Y-61797D01*
X-10857Y-61209D01*
X-11307Y-60759D01*
X-11895Y-60516D01*
X-12532D01*
X-13120Y-60759D01*
X-13355Y-60994D01*
X-17156D01*
Y-59165D01*
D02*
G37*
G36*
X-37248Y-62509D02*
X-43998D01*
Y-65253D01*
X-37248D01*
Y-62509D01*
D02*
G37*
G36*
X-44998D02*
X-51748D01*
Y-65253D01*
X-44998D01*
Y-62509D01*
D02*
G37*
G36*
X-287448Y-62524D02*
X-294198D01*
Y-65268D01*
X-287448D01*
Y-62524D01*
D02*
G37*
G36*
X-295198D02*
X-301948D01*
Y-65268D01*
X-295198D01*
Y-62524D01*
D02*
G37*
G36*
X-307940Y-62524D02*
X-314690D01*
Y-65268D01*
X-307940D01*
Y-62524D01*
D02*
G37*
G36*
X-315690D02*
X-322440D01*
Y-65268D01*
X-315690D01*
Y-62524D01*
D02*
G37*
G36*
X-37248Y-68765D02*
X-43998D01*
Y-71509D01*
X-37248D01*
Y-68765D01*
D02*
G37*
G36*
X-44998D02*
X-51748D01*
Y-71509D01*
X-44998D01*
Y-68765D01*
D02*
G37*
G36*
X-307940Y-68779D02*
X-314690D01*
Y-71524D01*
X-307940D01*
Y-68779D01*
D02*
G37*
G36*
X-315690D02*
X-322440D01*
Y-71524D01*
X-315690D01*
Y-68779D01*
D02*
G37*
G36*
X-287448D02*
X-294198D01*
Y-71524D01*
X-287448D01*
Y-68779D01*
D02*
G37*
G36*
X-295198D02*
X-301948D01*
Y-71524D01*
X-295198D01*
Y-68779D01*
D02*
G37*
G36*
X-17156Y-69165D02*
X-30856D01*
Y-74853D01*
X-17156D01*
Y-73237D01*
X-13355D01*
X-13120Y-73472D01*
X-12532Y-73716D01*
X-11895D01*
X-11307Y-73472D01*
X-10857Y-73022D01*
X-10613Y-72434D01*
Y-71798D01*
X-10857Y-71209D01*
X-11307Y-70759D01*
X-11895Y-70516D01*
X-12532D01*
X-13120Y-70759D01*
X-13355Y-70994D01*
X-17156D01*
Y-69165D01*
D02*
G37*
G36*
X-37248Y-72509D02*
X-43998D01*
Y-75253D01*
X-37248D01*
Y-72509D01*
D02*
G37*
G36*
X-44998D02*
X-51748D01*
Y-75253D01*
X-44998D01*
Y-72509D01*
D02*
G37*
G36*
X-287448Y-72524D02*
X-294198D01*
Y-75268D01*
X-287448D01*
Y-72524D01*
D02*
G37*
G36*
X-295198D02*
X-301948D01*
Y-75268D01*
X-295198D01*
Y-72524D01*
D02*
G37*
G36*
X-307940Y-72524D02*
X-314690D01*
Y-75268D01*
X-307940D01*
Y-72524D01*
D02*
G37*
G36*
X-315690D02*
X-322440D01*
Y-75268D01*
X-315690D01*
Y-72524D01*
D02*
G37*
G36*
X-37248Y-78765D02*
X-43998D01*
Y-81509D01*
X-37248D01*
Y-78765D01*
D02*
G37*
G36*
X-44998D02*
X-51748D01*
Y-81509D01*
X-44998D01*
Y-78765D01*
D02*
G37*
G36*
X-307940Y-78780D02*
X-314690D01*
Y-81524D01*
X-307940D01*
Y-78780D01*
D02*
G37*
G36*
X-315690D02*
X-322440D01*
Y-81524D01*
X-315690D01*
Y-78780D01*
D02*
G37*
G36*
X-287448D02*
X-294198D01*
Y-81524D01*
X-287448D01*
Y-78780D01*
D02*
G37*
G36*
X-295198D02*
X-301948D01*
Y-81524D01*
X-295198D01*
Y-78780D01*
D02*
G37*
G36*
X-17156Y-79165D02*
X-30856D01*
Y-84853D01*
X-17156D01*
Y-83237D01*
X-13355D01*
X-13120Y-83472D01*
X-12532Y-83716D01*
X-11895D01*
X-11307Y-83472D01*
X-10857Y-83022D01*
X-10613Y-82434D01*
Y-81797D01*
X-10857Y-81209D01*
X-11307Y-80759D01*
X-11895Y-80516D01*
X-12532D01*
X-13120Y-80759D01*
X-13355Y-80994D01*
X-17156D01*
Y-79165D01*
D02*
G37*
G36*
X-37248Y-82509D02*
X-43998D01*
Y-85253D01*
X-37248D01*
Y-82509D01*
D02*
G37*
G36*
X-44998D02*
X-51748D01*
Y-85253D01*
X-44998D01*
Y-82509D01*
D02*
G37*
G36*
X-287448Y-82524D02*
X-294198D01*
Y-85268D01*
X-287448D01*
Y-82524D01*
D02*
G37*
G36*
X-295198D02*
X-301948D01*
Y-85268D01*
X-295198D01*
Y-82524D01*
D02*
G37*
G36*
X-307940Y-82524D02*
X-314690D01*
Y-85268D01*
X-307940D01*
Y-82524D01*
D02*
G37*
G36*
X-315690D02*
X-322440D01*
Y-85268D01*
X-315690D01*
Y-82524D01*
D02*
G37*
G36*
X-37248Y-88765D02*
X-43998D01*
Y-91509D01*
X-37248D01*
Y-88765D01*
D02*
G37*
G36*
X-44998D02*
X-51748D01*
Y-91509D01*
X-44998D01*
Y-88765D01*
D02*
G37*
G36*
X-307940Y-88779D02*
X-314690D01*
Y-91524D01*
X-307940D01*
Y-88779D01*
D02*
G37*
G36*
X-315690D02*
X-322440D01*
Y-91524D01*
X-315690D01*
Y-88779D01*
D02*
G37*
G36*
X-287448D02*
X-294198D01*
Y-91524D01*
X-287448D01*
Y-88779D01*
D02*
G37*
G36*
X-295198D02*
X-301948D01*
Y-91524D01*
X-295198D01*
Y-88779D01*
D02*
G37*
G36*
X-17156Y-89165D02*
X-30856D01*
Y-94853D01*
X-17156D01*
Y-93237D01*
X-13355D01*
X-13120Y-93472D01*
X-12532Y-93716D01*
X-11895D01*
X-11307Y-93472D01*
X-10857Y-93022D01*
X-10613Y-92434D01*
Y-91798D01*
X-10857Y-91209D01*
X-11307Y-90759D01*
X-11895Y-90516D01*
X-12532D01*
X-13120Y-90759D01*
X-13355Y-90994D01*
X-17156D01*
Y-89165D01*
D02*
G37*
G36*
X-37248Y-92509D02*
X-43998D01*
Y-95253D01*
X-37248D01*
Y-92509D01*
D02*
G37*
G36*
X-44998D02*
X-51748D01*
Y-95253D01*
X-44998D01*
Y-92509D01*
D02*
G37*
G36*
X-287448Y-92524D02*
X-294198D01*
Y-95268D01*
X-287448D01*
Y-92524D01*
D02*
G37*
G36*
X-295198D02*
X-301948D01*
Y-95268D01*
X-295198D01*
Y-92524D01*
D02*
G37*
G36*
X-307940Y-92524D02*
X-314690D01*
Y-95268D01*
X-307940D01*
Y-92524D01*
D02*
G37*
G36*
X-315690D02*
X-322440D01*
Y-95268D01*
X-315690D01*
Y-92524D01*
D02*
G37*
G36*
X-37248Y-98765D02*
X-43998D01*
Y-101509D01*
X-37248D01*
Y-98765D01*
D02*
G37*
G36*
X-44998D02*
X-51748D01*
Y-101509D01*
X-44998D01*
Y-98765D01*
D02*
G37*
G36*
X-307940Y-98779D02*
X-314690D01*
Y-101524D01*
X-307940D01*
Y-98779D01*
D02*
G37*
G36*
X-315690D02*
X-322440D01*
Y-101524D01*
X-315690D01*
Y-98779D01*
D02*
G37*
G36*
X-287448D02*
X-294198D01*
Y-101524D01*
X-287448D01*
Y-98779D01*
D02*
G37*
G36*
X-295198D02*
X-301948D01*
Y-101524D01*
X-295198D01*
Y-98779D01*
D02*
G37*
G36*
X-17156Y-99165D02*
X-30856D01*
Y-104853D01*
X-17156D01*
Y-103237D01*
X-13355D01*
X-13120Y-103472D01*
X-12532Y-103716D01*
X-11895D01*
X-11307Y-103472D01*
X-10857Y-103022D01*
X-10613Y-102434D01*
Y-101797D01*
X-10857Y-101209D01*
X-11307Y-100759D01*
X-11895Y-100516D01*
X-12532D01*
X-13120Y-100759D01*
X-13355Y-100994D01*
X-17156D01*
Y-99165D01*
D02*
G37*
G36*
X-37248Y-102509D02*
X-43998D01*
Y-105253D01*
X-37248D01*
Y-102509D01*
D02*
G37*
G36*
X-44998D02*
X-51748D01*
Y-105253D01*
X-44998D01*
Y-102509D01*
D02*
G37*
G36*
X-287448Y-102524D02*
X-294198D01*
Y-105268D01*
X-287448D01*
Y-102524D01*
D02*
G37*
G36*
X-295198D02*
X-301948D01*
Y-105268D01*
X-295198D01*
Y-102524D01*
D02*
G37*
G36*
X-307940Y-102524D02*
X-314690D01*
Y-105268D01*
X-307940D01*
Y-102524D01*
D02*
G37*
G36*
X-315690D02*
X-322440D01*
Y-105268D01*
X-315690D01*
Y-102524D01*
D02*
G37*
G36*
X-37248Y-108765D02*
X-43998D01*
Y-111509D01*
X-37248D01*
Y-108765D01*
D02*
G37*
G36*
X-44998D02*
X-51748D01*
Y-111509D01*
X-44998D01*
Y-108765D01*
D02*
G37*
G36*
X-307940Y-108780D02*
X-314690D01*
Y-111524D01*
X-307940D01*
Y-108780D01*
D02*
G37*
G36*
X-315690D02*
X-322440D01*
Y-111524D01*
X-315690D01*
Y-108780D01*
D02*
G37*
G36*
X-287448D02*
X-294198D01*
Y-111524D01*
X-287448D01*
Y-108780D01*
D02*
G37*
G36*
X-295198D02*
X-301948D01*
Y-111524D01*
X-295198D01*
Y-108780D01*
D02*
G37*
G36*
X-17156Y-109165D02*
X-30856D01*
Y-114853D01*
X-17156D01*
Y-113237D01*
X-13355D01*
X-13120Y-113472D01*
X-12532Y-113716D01*
X-11895D01*
X-11307Y-113472D01*
X-10857Y-113022D01*
X-10613Y-112434D01*
Y-111797D01*
X-10857Y-111209D01*
X-11307Y-110759D01*
X-11895Y-110516D01*
X-12532D01*
X-13120Y-110759D01*
X-13355Y-110994D01*
X-17156D01*
Y-109165D01*
D02*
G37*
G36*
X-37248Y-112509D02*
X-43998D01*
Y-115253D01*
X-37248D01*
Y-112509D01*
D02*
G37*
G36*
X-44998D02*
X-51748D01*
Y-115253D01*
X-44998D01*
Y-112509D01*
D02*
G37*
G36*
X-287448Y-112524D02*
X-294198D01*
Y-115268D01*
X-287448D01*
Y-112524D01*
D02*
G37*
G36*
X-295198D02*
X-301948D01*
Y-115268D01*
X-295198D01*
Y-112524D01*
D02*
G37*
G36*
X-307940Y-112524D02*
X-314690D01*
Y-115268D01*
X-307940D01*
Y-112524D01*
D02*
G37*
G36*
X-315690D02*
X-322440D01*
Y-115268D01*
X-315690D01*
Y-112524D01*
D02*
G37*
G36*
X-37248Y-118765D02*
X-43998D01*
Y-121509D01*
X-37248D01*
Y-118765D01*
D02*
G37*
G36*
X-44998D02*
X-51748D01*
Y-121509D01*
X-44998D01*
Y-118765D01*
D02*
G37*
G36*
X-307940Y-118780D02*
X-314690D01*
Y-121524D01*
X-307940D01*
Y-118780D01*
D02*
G37*
G36*
X-315690D02*
X-322440D01*
Y-121524D01*
X-315690D01*
Y-118780D01*
D02*
G37*
G36*
X-287448D02*
X-294198D01*
Y-121524D01*
X-287448D01*
Y-118780D01*
D02*
G37*
G36*
X-295198D02*
X-301948D01*
Y-121524D01*
X-295198D01*
Y-118780D01*
D02*
G37*
G36*
X-17156Y-119165D02*
X-30856D01*
Y-124853D01*
X-17156D01*
Y-123237D01*
X-13355D01*
X-13120Y-123472D01*
X-12532Y-123716D01*
X-11895D01*
X-11307Y-123472D01*
X-10857Y-123022D01*
X-10613Y-122434D01*
Y-121798D01*
X-10857Y-121209D01*
X-11307Y-120759D01*
X-11895Y-120516D01*
X-12532D01*
X-13120Y-120759D01*
X-13355Y-120994D01*
X-17156D01*
Y-119165D01*
D02*
G37*
G36*
X-37248Y-122509D02*
X-43998D01*
Y-125253D01*
X-37248D01*
Y-122509D01*
D02*
G37*
G36*
X-44998D02*
X-51748D01*
Y-125253D01*
X-44998D01*
Y-122509D01*
D02*
G37*
G36*
X-287448Y-122524D02*
X-294198D01*
Y-125268D01*
X-287448D01*
Y-122524D01*
D02*
G37*
G36*
X-295198D02*
X-301948D01*
Y-125268D01*
X-295198D01*
Y-122524D01*
D02*
G37*
G36*
X-307940Y-122524D02*
X-314690D01*
Y-125268D01*
X-307940D01*
Y-122524D01*
D02*
G37*
G36*
X-315690D02*
X-322440D01*
Y-125268D01*
X-315690D01*
Y-122524D01*
D02*
G37*
G36*
X-37248Y-128765D02*
X-43998D01*
Y-131509D01*
X-37248D01*
Y-128765D01*
D02*
G37*
G36*
X-44998D02*
X-51748D01*
Y-131509D01*
X-44998D01*
Y-128765D01*
D02*
G37*
G36*
X-307940Y-128779D02*
X-314690D01*
Y-131524D01*
X-307940D01*
Y-128779D01*
D02*
G37*
G36*
X-315690D02*
X-322440D01*
Y-131524D01*
X-315690D01*
Y-128779D01*
D02*
G37*
G36*
X-287448D02*
X-294198D01*
Y-131524D01*
X-287448D01*
Y-128779D01*
D02*
G37*
G36*
X-295198D02*
X-301948D01*
Y-131524D01*
X-295198D01*
Y-128779D01*
D02*
G37*
G36*
X-17156Y-129165D02*
X-30856D01*
Y-134853D01*
X-17156D01*
Y-133237D01*
X-13355D01*
X-13120Y-133472D01*
X-12532Y-133716D01*
X-11895D01*
X-11307Y-133472D01*
X-10857Y-133022D01*
X-10613Y-132434D01*
Y-131798D01*
X-10857Y-131209D01*
X-11307Y-130759D01*
X-11895Y-130516D01*
X-12532D01*
X-13120Y-130759D01*
X-13355Y-130994D01*
X-17156D01*
Y-129165D01*
D02*
G37*
G36*
X-37248Y-132509D02*
X-43998D01*
Y-135253D01*
X-37248D01*
Y-132509D01*
D02*
G37*
G36*
X-44998D02*
X-51748D01*
Y-135253D01*
X-44998D01*
Y-132509D01*
D02*
G37*
G36*
X-287448Y-132524D02*
X-294198D01*
Y-135268D01*
X-287448D01*
Y-132524D01*
D02*
G37*
G36*
X-295198D02*
X-301948D01*
Y-135268D01*
X-295198D01*
Y-132524D01*
D02*
G37*
G36*
X-307940Y-132524D02*
X-314690D01*
Y-135268D01*
X-307940D01*
Y-132524D01*
D02*
G37*
G36*
X-315690D02*
X-322440D01*
Y-135268D01*
X-315690D01*
Y-132524D01*
D02*
G37*
G36*
X-16756Y-138765D02*
X-23506D01*
Y-141509D01*
X-16756D01*
Y-138765D01*
D02*
G37*
G36*
X-24506D02*
X-31256D01*
Y-141509D01*
X-24506D01*
Y-138765D01*
D02*
G37*
G36*
X-37248D02*
X-43998D01*
Y-141509D01*
X-37248D01*
Y-138765D01*
D02*
G37*
G36*
X-44998D02*
X-51748D01*
Y-141509D01*
X-44998D01*
Y-138765D01*
D02*
G37*
G36*
X-307940Y-138779D02*
X-314690D01*
Y-141524D01*
X-307940D01*
Y-138779D01*
D02*
G37*
G36*
X-315690D02*
X-322440D01*
Y-141524D01*
X-315690D01*
Y-138779D01*
D02*
G37*
G36*
X-287448D02*
X-294198D01*
Y-141524D01*
X-287448D01*
Y-138779D01*
D02*
G37*
G36*
X-295198D02*
X-301948D01*
Y-141524D01*
X-295198D01*
Y-138779D01*
D02*
G37*
G36*
X-16756Y-142509D02*
X-23506D01*
Y-145253D01*
X-16756D01*
Y-142509D01*
D02*
G37*
G36*
X-24506D02*
X-31256D01*
Y-145253D01*
X-24506D01*
Y-142509D01*
D02*
G37*
G36*
X-37248Y-142509D02*
X-43998D01*
Y-145253D01*
X-37248D01*
Y-142509D01*
D02*
G37*
G36*
X-44998D02*
X-51748D01*
Y-145253D01*
X-44998D01*
Y-142509D01*
D02*
G37*
G36*
X-287448Y-142524D02*
X-294198D01*
Y-145268D01*
X-287448D01*
Y-142524D01*
D02*
G37*
G36*
X-295198D02*
X-301948D01*
Y-145268D01*
X-295198D01*
Y-142524D01*
D02*
G37*
G36*
X-307940Y-142524D02*
X-314690D01*
Y-145268D01*
X-307940D01*
Y-142524D01*
D02*
G37*
G36*
X-315690D02*
X-322440D01*
Y-145268D01*
X-315690D01*
Y-142524D01*
D02*
G37*
G36*
X-16756Y-148765D02*
X-23506D01*
Y-151509D01*
X-16756D01*
Y-148765D01*
D02*
G37*
G36*
X-24506D02*
X-31256D01*
Y-151509D01*
X-24506D01*
Y-148765D01*
D02*
G37*
G36*
X-37248D02*
X-43998D01*
Y-151509D01*
X-37248D01*
Y-148765D01*
D02*
G37*
G36*
X-44998D02*
X-51748D01*
Y-151509D01*
X-44998D01*
Y-148765D01*
D02*
G37*
G36*
X-307940Y-148779D02*
X-314690D01*
Y-151524D01*
X-307940D01*
Y-148779D01*
D02*
G37*
G36*
X-315690D02*
X-322440D01*
Y-151524D01*
X-315690D01*
Y-148779D01*
D02*
G37*
G36*
X-287448D02*
X-294198D01*
Y-151524D01*
X-287448D01*
Y-148779D01*
D02*
G37*
G36*
X-295198D02*
X-301948D01*
Y-151524D01*
X-295198D01*
Y-148779D01*
D02*
G37*
G36*
X-16756Y-152509D02*
X-23506D01*
Y-155253D01*
X-16756D01*
Y-152509D01*
D02*
G37*
G36*
X-24506D02*
X-31256D01*
Y-155253D01*
X-24506D01*
Y-152509D01*
D02*
G37*
G36*
X-37248Y-152509D02*
X-43998D01*
Y-155253D01*
X-37248D01*
Y-152509D01*
D02*
G37*
G36*
X-44998D02*
X-51748D01*
Y-155253D01*
X-44998D01*
Y-152509D01*
D02*
G37*
G36*
X-287448Y-152524D02*
X-294198D01*
Y-155268D01*
X-287448D01*
Y-152524D01*
D02*
G37*
G36*
X-295198D02*
X-301948D01*
Y-155268D01*
X-295198D01*
Y-152524D01*
D02*
G37*
G36*
X-307940Y-152524D02*
X-314690D01*
Y-155268D01*
X-307940D01*
Y-152524D01*
D02*
G37*
G36*
X-315690D02*
X-322440D01*
Y-155268D01*
X-315690D01*
Y-152524D01*
D02*
G37*
G36*
X-16756Y-158765D02*
X-23506D01*
Y-161509D01*
X-16756D01*
Y-158765D01*
D02*
G37*
G36*
X-24506D02*
X-31256D01*
Y-161509D01*
X-24506D01*
Y-158765D01*
D02*
G37*
G36*
X-37248D02*
X-43998D01*
Y-161509D01*
X-37248D01*
Y-158765D01*
D02*
G37*
G36*
X-44998D02*
X-51748D01*
Y-161509D01*
X-44998D01*
Y-158765D01*
D02*
G37*
G36*
X-307940Y-158780D02*
X-314690D01*
Y-161524D01*
X-307940D01*
Y-158780D01*
D02*
G37*
G36*
X-315690D02*
X-322440D01*
Y-161524D01*
X-315690D01*
Y-158780D01*
D02*
G37*
G36*
X-287448D02*
X-294198D01*
Y-161524D01*
X-287448D01*
Y-158780D01*
D02*
G37*
G36*
X-295198D02*
X-301948D01*
Y-161524D01*
X-295198D01*
Y-158780D01*
D02*
G37*
G36*
X-16756Y-162509D02*
X-23506D01*
Y-165253D01*
X-16756D01*
Y-162509D01*
D02*
G37*
G36*
X-24506D02*
X-31256D01*
Y-165253D01*
X-24506D01*
Y-162509D01*
D02*
G37*
G36*
X-37248Y-162509D02*
X-43998D01*
Y-165253D01*
X-37248D01*
Y-162509D01*
D02*
G37*
G36*
X-44998D02*
X-51748D01*
Y-165253D01*
X-44998D01*
Y-162509D01*
D02*
G37*
G36*
X-287448Y-162524D02*
X-294198D01*
Y-165268D01*
X-287448D01*
Y-162524D01*
D02*
G37*
G36*
X-295198D02*
X-301948D01*
Y-165268D01*
X-295198D01*
Y-162524D01*
D02*
G37*
G36*
X-307940Y-162524D02*
X-314690D01*
Y-165268D01*
X-307940D01*
Y-162524D01*
D02*
G37*
G36*
X-315690D02*
X-322440D01*
Y-165268D01*
X-315690D01*
Y-162524D01*
D02*
G37*
G36*
X-16756Y-168765D02*
X-23506D01*
Y-171509D01*
X-16756D01*
Y-168765D01*
D02*
G37*
G36*
X-24506D02*
X-31256D01*
Y-171509D01*
X-24506D01*
Y-168765D01*
D02*
G37*
G36*
X-37248D02*
X-43998D01*
Y-171509D01*
X-37248D01*
Y-168765D01*
D02*
G37*
G36*
X-44998D02*
X-51748D01*
Y-171509D01*
X-44998D01*
Y-168765D01*
D02*
G37*
G36*
X-307940Y-168780D02*
X-314690D01*
Y-171524D01*
X-307940D01*
Y-168780D01*
D02*
G37*
G36*
X-315690D02*
X-322440D01*
Y-171524D01*
X-315690D01*
Y-168780D01*
D02*
G37*
G36*
X-287448D02*
X-294198D01*
Y-171524D01*
X-287448D01*
Y-168780D01*
D02*
G37*
G36*
X-295198D02*
X-301948D01*
Y-171524D01*
X-295198D01*
Y-168780D01*
D02*
G37*
G36*
X-16756Y-172509D02*
X-23506D01*
Y-175253D01*
X-16756D01*
Y-172509D01*
D02*
G37*
G36*
X-24506D02*
X-31256D01*
Y-175253D01*
X-24506D01*
Y-172509D01*
D02*
G37*
G36*
X-37248Y-172509D02*
X-43998D01*
Y-175253D01*
X-37248D01*
Y-172509D01*
D02*
G37*
G36*
X-44998D02*
X-51748D01*
Y-175253D01*
X-44998D01*
Y-172509D01*
D02*
G37*
G36*
X-287448Y-172524D02*
X-294198D01*
Y-175268D01*
X-287448D01*
Y-172524D01*
D02*
G37*
G36*
X-295198D02*
X-301948D01*
Y-175268D01*
X-295198D01*
Y-172524D01*
D02*
G37*
G36*
X-307940Y-172524D02*
X-314690D01*
Y-175268D01*
X-307940D01*
Y-172524D01*
D02*
G37*
G36*
X-315690D02*
X-322440D01*
Y-175268D01*
X-315690D01*
Y-172524D01*
D02*
G37*
G36*
X-16756Y-178765D02*
X-23506D01*
Y-181509D01*
X-16756D01*
Y-178765D01*
D02*
G37*
G36*
X-24506D02*
X-31256D01*
Y-181509D01*
X-24506D01*
Y-178765D01*
D02*
G37*
G36*
X-37248D02*
X-43998D01*
Y-181509D01*
X-37248D01*
Y-178765D01*
D02*
G37*
G36*
X-44998D02*
X-51748D01*
Y-181509D01*
X-44998D01*
Y-178765D01*
D02*
G37*
G36*
X-307940Y-178779D02*
X-314690D01*
Y-181524D01*
X-307940D01*
Y-178779D01*
D02*
G37*
G36*
X-315690D02*
X-322440D01*
Y-181524D01*
X-315690D01*
Y-178779D01*
D02*
G37*
G36*
X-287448D02*
X-294198D01*
Y-181524D01*
X-287448D01*
Y-178779D01*
D02*
G37*
G36*
X-295198D02*
X-301948D01*
Y-181524D01*
X-295198D01*
Y-178779D01*
D02*
G37*
G36*
X-16756Y-182509D02*
X-23506D01*
Y-185253D01*
X-16756D01*
Y-182509D01*
D02*
G37*
G36*
X-24506D02*
X-31256D01*
Y-185253D01*
X-24506D01*
Y-182509D01*
D02*
G37*
G36*
X-37248Y-182509D02*
X-43998D01*
Y-185253D01*
X-37248D01*
Y-182509D01*
D02*
G37*
G36*
X-44998D02*
X-51748D01*
Y-185253D01*
X-44998D01*
Y-182509D01*
D02*
G37*
G36*
X-287448Y-182524D02*
X-294198D01*
Y-185268D01*
X-287448D01*
Y-182524D01*
D02*
G37*
G36*
X-295198D02*
X-301948D01*
Y-185268D01*
X-295198D01*
Y-182524D01*
D02*
G37*
G36*
X-307940Y-182524D02*
X-314690D01*
Y-185268D01*
X-307940D01*
Y-182524D01*
D02*
G37*
G36*
X-315690D02*
X-322440D01*
Y-185268D01*
X-315690D01*
Y-182524D01*
D02*
G37*
G36*
X-16756Y-188765D02*
X-23506D01*
Y-191509D01*
X-16756D01*
Y-188765D01*
D02*
G37*
G36*
X-24506D02*
X-31256D01*
Y-191509D01*
X-24506D01*
Y-188765D01*
D02*
G37*
G36*
X-37248D02*
X-43998D01*
Y-191509D01*
X-37248D01*
Y-188765D01*
D02*
G37*
G36*
X-44998D02*
X-51748D01*
Y-191509D01*
X-44998D01*
Y-188765D01*
D02*
G37*
G36*
X-307940Y-188779D02*
X-314690D01*
Y-191524D01*
X-307940D01*
Y-188779D01*
D02*
G37*
G36*
X-315690D02*
X-322440D01*
Y-191524D01*
X-315690D01*
Y-188779D01*
D02*
G37*
G36*
X-287448D02*
X-294198D01*
Y-191524D01*
X-287448D01*
Y-188779D01*
D02*
G37*
G36*
X-295198D02*
X-301948D01*
Y-191524D01*
X-295198D01*
Y-188779D01*
D02*
G37*
G36*
X-16756Y-192509D02*
X-23506D01*
Y-195253D01*
X-16756D01*
Y-192509D01*
D02*
G37*
G36*
X-24506D02*
X-31256D01*
Y-195253D01*
X-24506D01*
Y-192509D01*
D02*
G37*
G36*
X-37248Y-192509D02*
X-43998D01*
Y-195253D01*
X-37248D01*
Y-192509D01*
D02*
G37*
G36*
X-44998D02*
X-51748D01*
Y-195253D01*
X-44998D01*
Y-192509D01*
D02*
G37*
G36*
X-287448Y-192524D02*
X-294198D01*
Y-195268D01*
X-287448D01*
Y-192524D01*
D02*
G37*
G36*
X-295198D02*
X-301948D01*
Y-195268D01*
X-295198D01*
Y-192524D01*
D02*
G37*
G36*
X-307940Y-192524D02*
X-314690D01*
Y-195268D01*
X-307940D01*
Y-192524D01*
D02*
G37*
G36*
X-315690D02*
X-322440D01*
Y-195268D01*
X-315690D01*
Y-192524D01*
D02*
G37*
%LPD*%
D15*
X-54399Y-2216D02*
X-44329D01*
X-171300Y-45716D02*
X-133100Y-7516D01*
X-13844D02*
X-7999Y-13360D01*
X-133100Y-7516D02*
X-13844D01*
X-23737Y-132116D02*
X-12213D01*
X-23737Y-122116D02*
X-12213D01*
X-23737Y-112116D02*
X-12213D01*
X-23737Y-102116D02*
X-12213D01*
X-23737Y-92116D02*
X-12213D01*
X-23737Y-82116D02*
X-12213D01*
X-23737Y-72116D02*
X-12213D01*
X-23737Y-62116D02*
X-12213D01*
X-32599Y-52116D02*
X-23737D01*
X-12213D01*
X-23737Y-22116D02*
X-12213D01*
X-7999Y-17901D01*
Y-13360D01*
X-126199Y6284D02*
X-32137D01*
X-178199Y-45716D02*
X-126199Y6284D01*
X-32137D02*
X-23737Y-2116D01*
X-58499Y-17516D02*
X-33143D01*
X-138699Y-97716D02*
X-58499Y-17516D01*
X-33143D02*
X-27743Y-12116D01*
X-23737D01*
X-12213D01*
X-120264Y-106316D02*
X-51564Y-37616D01*
X-33243D01*
X-138799Y-106316D02*
X-120264D01*
X-23737Y-32116D02*
X-12313D01*
X-27743D02*
X-23737D01*
X-33243Y-37616D02*
X-27743Y-32116D01*
X-23737Y-42116D02*
X-12213D01*
X-111746Y-115263D02*
X-53799Y-57316D01*
X-37799D02*
X-32599Y-52116D01*
X-38199Y-47716D02*
X-32599Y-42116D01*
X-23737D01*
X-146084Y-115263D02*
X-111746D01*
X-116599Y-111616D02*
X-52699Y-47716D01*
X-38199D01*
X-53799Y-57316D02*
X-37799D01*
X-159999Y-111616D02*
X-116599D01*
X-23637Y-2216D02*
X-12213D01*
X-23737Y-2116D02*
X-23637Y-2216D01*
X-44329D02*
X-44229Y-2116D01*
D30*
X-212799Y-92816D02*
D03*
X-152033Y-48117D02*
D03*
X-12213Y-132116D02*
D03*
Y-122116D02*
D03*
Y-112116D02*
D03*
Y-102116D02*
D03*
Y-92116D02*
D03*
Y-82116D02*
D03*
Y-72116D02*
D03*
Y-62116D02*
D03*
Y-52116D02*
D03*
X-55699Y-192116D02*
D03*
X-12213Y-22116D02*
D03*
X-171300Y-45716D02*
D03*
X-178199D02*
D03*
X-12313Y-32116D02*
D03*
X-146084Y-115263D02*
D03*
X-138799Y-106316D02*
D03*
X-12213Y-2216D02*
D03*
Y-12116D02*
D03*
X-138699Y-97716D02*
D03*
X-12213Y-42116D02*
D03*
X-159999Y-111616D02*
D03*
X-54399Y-2216D02*
D03*
X-161099Y-133416D02*
D03*
X-285499Y-2016D02*
D03*
D31*
X-44498Y-192009D02*
D03*
X-24006D02*
D03*
X-44498Y-182009D02*
D03*
X-24006D02*
D03*
X-44498Y-172009D02*
D03*
X-24006D02*
D03*
X-44498Y-162009D02*
D03*
X-24006D02*
D03*
X-44498Y-152009D02*
D03*
X-24006D02*
D03*
X-44498Y-142009D02*
D03*
X-24006D02*
D03*
X-44498Y-132009D02*
D03*
X-24006D02*
D03*
X-44498Y-122009D02*
D03*
X-24006D02*
D03*
X-44498Y-112009D02*
D03*
X-24006D02*
D03*
X-44498Y-102009D02*
D03*
X-24006D02*
D03*
X-44498Y-92009D02*
D03*
X-24006D02*
D03*
X-44498Y-82009D02*
D03*
X-24006D02*
D03*
X-44498Y-72009D02*
D03*
X-24006D02*
D03*
X-44498Y-62009D02*
D03*
X-24006D02*
D03*
X-44498Y-52009D02*
D03*
X-24006D02*
D03*
X-44498Y-42009D02*
D03*
X-24006D02*
D03*
X-44498Y-32009D02*
D03*
X-24006D02*
D03*
X-44498Y-22009D02*
D03*
X-24006D02*
D03*
X-44498Y-12009D02*
D03*
X-24006D02*
D03*
X-44498Y-2009D02*
D03*
X-24006D02*
D03*
X-315190Y-192024D02*
D03*
X-294698D02*
D03*
X-315190Y-182024D02*
D03*
X-294698D02*
D03*
X-315190Y-172024D02*
D03*
X-294698D02*
D03*
X-315190Y-162024D02*
D03*
X-294698D02*
D03*
X-315190Y-152024D02*
D03*
X-294698D02*
D03*
X-315190Y-142024D02*
D03*
X-294698D02*
D03*
X-315190Y-132024D02*
D03*
X-294698D02*
D03*
X-315190Y-122024D02*
D03*
X-294698D02*
D03*
X-315190Y-112024D02*
D03*
X-294698D02*
D03*
X-315190Y-102024D02*
D03*
X-294698D02*
D03*
X-315190Y-92024D02*
D03*
X-294698D02*
D03*
X-315190Y-82024D02*
D03*
X-294698D02*
D03*
X-315190Y-72024D02*
D03*
X-294698D02*
D03*
X-315190Y-62024D02*
D03*
X-294698D02*
D03*
X-315190Y-52024D02*
D03*
X-294698D02*
D03*
X-315190Y-42024D02*
D03*
X-294698D02*
D03*
X-315190Y-32024D02*
D03*
X-294698D02*
D03*
X-315190Y-22024D02*
D03*
X-294698D02*
D03*
X-315190Y-12024D02*
D03*
X-294698D02*
D03*
X-315190Y-2024D02*
D03*
X-294698D02*
D03*
M02*
