G04*
G04 #@! TF.GenerationSoftware,Altium Limited,Altium Designer,22.2.1 (43)*
G04*
G04 Layer_Color=128*
%FSLAX25Y25*%
%MOIN*%
G70*
G04*
G04 #@! TF.SameCoordinates,ABA2BCA8-B6CC-4E65-A7BC-0322257E4ABC*
G04*
G04*
G04 #@! TF.FilePolarity,Positive*
G04*
G01*
G75*
%ADD21R,0.11016X0.07000*%
D21*
X44020Y42900D02*
D03*
X24138D02*
D03*
X44020Y52900D02*
D03*
X24138D02*
D03*
X44020Y62900D02*
D03*
X24138D02*
D03*
X44020Y72900D02*
D03*
X24138D02*
D03*
X44020Y82900D02*
D03*
X24138D02*
D03*
X44020Y92900D02*
D03*
X24138D02*
D03*
X44020Y102900D02*
D03*
X24138D02*
D03*
X44020Y112900D02*
D03*
X24138D02*
D03*
X44020Y122900D02*
D03*
X24138D02*
D03*
X44020Y132900D02*
D03*
X24138D02*
D03*
X44020Y142900D02*
D03*
X24138D02*
D03*
X44020Y152900D02*
D03*
X24138D02*
D03*
X44020Y162900D02*
D03*
X24138D02*
D03*
X44020Y172900D02*
D03*
X24138D02*
D03*
X44020Y182900D02*
D03*
X24138D02*
D03*
X44020Y192900D02*
D03*
X24138D02*
D03*
X44020Y202900D02*
D03*
X24138D02*
D03*
X44020Y212900D02*
D03*
X24138D02*
D03*
X44020Y222900D02*
D03*
X24138D02*
D03*
X44020Y232900D02*
D03*
X24138D02*
D03*
X295262D02*
D03*
X315144D02*
D03*
X295262Y222900D02*
D03*
X315144D02*
D03*
X295262Y212900D02*
D03*
X315144D02*
D03*
X295262Y202900D02*
D03*
X315144D02*
D03*
X295262Y192900D02*
D03*
X315144D02*
D03*
X295262Y182900D02*
D03*
X315144D02*
D03*
X295262Y172900D02*
D03*
X315144D02*
D03*
X295262Y162900D02*
D03*
X315144D02*
D03*
X295262Y152900D02*
D03*
X315144D02*
D03*
X295262Y142900D02*
D03*
X315144D02*
D03*
X295262Y132900D02*
D03*
X315144D02*
D03*
X295262Y122900D02*
D03*
X315144D02*
D03*
X295262Y112900D02*
D03*
X315144D02*
D03*
X295262Y102900D02*
D03*
X315144D02*
D03*
X295262Y92900D02*
D03*
X315144D02*
D03*
X295262Y82900D02*
D03*
X315144D02*
D03*
X295262Y72900D02*
D03*
X315144D02*
D03*
X295262Y62900D02*
D03*
X315144D02*
D03*
X295262Y52900D02*
D03*
X315144D02*
D03*
X295262Y42900D02*
D03*
X315144D02*
D03*
M02*
