G04*
G04 #@! TF.GenerationSoftware,Altium Limited,Altium Designer,22.2.1 (43)*
G04*
G04 Layer_Color=65535*
%FSLAX25Y25*%
%MOIN*%
G70*
G04*
G04 #@! TF.SameCoordinates,CB51DA99-0BF3-457E-BF16-783FD1C2B90D*
G04*
G04*
G04 #@! TF.FilePolarity,Positive*
G04*
G01*
G75*
%ADD10C,0.00787*%
%ADD11C,0.01000*%
%ADD12C,0.00600*%
%ADD13C,0.00300*%
%ADD14C,0.02000*%
G36*
X151650Y150350D02*
X150650D01*
Y151850D01*
X151650D01*
Y150350D01*
D02*
G37*
D10*
X318451Y241050D02*
X317664D01*
X318451D01*
X47327D02*
X46539D01*
X47327D01*
X295262Y237900D02*
X315262D01*
X295262Y37900D02*
X315262D01*
X138251Y138525D02*
Y141675D01*
X132346Y138525D02*
Y141675D01*
X24138Y237900D02*
X44138D01*
X24138Y37900D02*
X44138D01*
D11*
X24000D02*
X44079D01*
X24000Y238000D02*
X44079D01*
Y37900D02*
Y238000D01*
X24000Y37900D02*
Y238000D01*
X295262Y37900D02*
X315262D01*
X295262Y237900D02*
X315262D01*
Y37900D02*
Y237900D01*
X295262Y37900D02*
Y237900D01*
X151200Y170798D02*
Y165800D01*
X152200Y164800D01*
X154199D01*
X155199Y165800D01*
Y170798D01*
X157198Y164800D02*
X159197D01*
X158198D01*
Y170798D01*
X157198Y169798D01*
X21699Y250798D02*
X19699D01*
X20699D01*
Y245800D01*
X19699Y244800D01*
X18700D01*
X17700Y245800D01*
X26697Y244800D02*
Y250798D01*
X23698Y247799D01*
X27697D01*
X292799Y250798D02*
X290799D01*
X291799D01*
Y245800D01*
X290799Y244800D01*
X289800D01*
X288800Y245800D01*
X294798Y249798D02*
X295798Y250798D01*
X297797D01*
X298797Y249798D01*
Y248799D01*
X297797Y247799D01*
X296797D01*
X297797D01*
X298797Y246799D01*
Y245800D01*
X297797Y244800D01*
X295798D01*
X294798Y245800D01*
X135999Y156598D02*
X134999Y157598D01*
X133000D01*
X132000Y156598D01*
Y152600D01*
X133000Y151600D01*
X134999D01*
X135999Y152600D01*
X137998Y151600D02*
X139997D01*
X138998D01*
Y157598D01*
X137998Y156598D01*
D12*
X159550Y117450D02*
Y118690D01*
X190450Y158510D02*
Y159750D01*
Y117450D02*
Y118690D01*
X159550Y117450D02*
X190450D01*
X159550Y158510D02*
Y159750D01*
X190450D01*
D13*
X195900Y115235D02*
X192568Y118567D01*
X195900D02*
X192568Y115235D01*
X195900Y116901D02*
X192568D01*
X194234Y118567D02*
Y115235D01*
D14*
X125514Y267397D02*
X128180D01*
X126847D01*
Y259400D01*
X125514D01*
X128180D01*
X132179Y264732D02*
Y259400D01*
Y262066D01*
X133512Y263399D01*
X134845Y264732D01*
X136178D01*
X140176Y259400D02*
X142842D01*
X141509D01*
Y264732D01*
X140176D01*
X146841Y259400D02*
X150839D01*
X152172Y260733D01*
X150839Y262066D01*
X148174D01*
X146841Y263399D01*
X148174Y264732D01*
X152172D01*
X162836Y267397D02*
X165501D01*
X164168D01*
Y259400D01*
X162836D01*
X165501D01*
X182829Y267397D02*
X177497D01*
Y263399D01*
X180163D01*
X177497D01*
Y259400D01*
X185495D02*
X188161D01*
X186828D01*
Y267397D01*
X185495D01*
X193492Y264732D02*
X196158D01*
X197491Y263399D01*
Y259400D01*
X193492D01*
X192159Y260733D01*
X193492Y262066D01*
X197491D01*
X200157Y259400D02*
X204155D01*
X205488Y260733D01*
X204155Y262066D01*
X201490D01*
X200157Y263399D01*
X201490Y264732D01*
X205488D01*
X208154Y267397D02*
Y259400D01*
Y263399D01*
X209487Y264732D01*
X212153D01*
X213486Y263399D01*
Y259400D01*
M02*
