G04*
G04 #@! TF.GenerationSoftware,Altium Limited,Altium Designer,22.2.1 (43)*
G04*
G04 Layer_Color=16711935*
%FSLAX25Y25*%
%MOIN*%
G70*
G04*
G04 #@! TF.SameCoordinates,CB51DA99-0BF3-457E-BF16-783FD1C2B90D*
G04*
G04*
G04 #@! TF.FilePolarity,Negative*
G04*
G01*
G75*
%ADD18C,0.04000*%
%ADD23R,0.11016X0.07000*%
D18*
X302800Y204800D02*
D03*
X301314Y232900D02*
D03*
X135299Y130100D02*
D03*
X287990Y212900D02*
D03*
Y193900D02*
D03*
X322534Y232900D02*
D03*
X53300D02*
D03*
X287990Y222900D02*
D03*
Y92900D02*
D03*
Y102900D02*
D03*
Y112900D02*
D03*
Y122900D02*
D03*
Y132900D02*
D03*
Y142900D02*
D03*
X287800Y153800D02*
D03*
Y161800D02*
D03*
X288491Y173900D02*
D03*
X287990Y184900D02*
D03*
D23*
X44020Y42900D02*
D03*
X24138D02*
D03*
X44020Y52900D02*
D03*
X24138D02*
D03*
X44020Y62900D02*
D03*
X24138D02*
D03*
X44020Y72900D02*
D03*
X24138D02*
D03*
X44020Y82900D02*
D03*
X24138D02*
D03*
X44020Y92900D02*
D03*
X24138D02*
D03*
X44020Y102900D02*
D03*
X24138D02*
D03*
X44020Y112900D02*
D03*
X24138D02*
D03*
X44020Y122900D02*
D03*
X24138D02*
D03*
X44020Y132900D02*
D03*
X24138D02*
D03*
X44020Y142900D02*
D03*
X24138D02*
D03*
X44020Y152900D02*
D03*
X24138D02*
D03*
X44020Y162900D02*
D03*
X24138D02*
D03*
X44020Y172900D02*
D03*
X24138D02*
D03*
X44020Y182900D02*
D03*
X24138D02*
D03*
X44020Y192900D02*
D03*
X24138D02*
D03*
X44020Y202900D02*
D03*
X24138D02*
D03*
X44020Y212900D02*
D03*
X24138D02*
D03*
X44020Y222900D02*
D03*
X24138D02*
D03*
X44020Y232900D02*
D03*
X24138D02*
D03*
X295262D02*
D03*
X315144D02*
D03*
X295262Y222900D02*
D03*
X315144D02*
D03*
X295262Y212900D02*
D03*
X315144D02*
D03*
X295262Y202900D02*
D03*
X315144D02*
D03*
X295262Y192900D02*
D03*
X315144D02*
D03*
X295262Y182900D02*
D03*
X315144D02*
D03*
X295262Y172900D02*
D03*
X315144D02*
D03*
X295262Y162900D02*
D03*
X315144D02*
D03*
X295262Y152900D02*
D03*
X315144D02*
D03*
X295262Y142900D02*
D03*
X315144D02*
D03*
X295262Y132900D02*
D03*
X315144D02*
D03*
X295262Y122900D02*
D03*
X315144D02*
D03*
X295262Y112900D02*
D03*
X315144D02*
D03*
X295262Y102900D02*
D03*
X315144D02*
D03*
X295262Y92900D02*
D03*
X315144D02*
D03*
X295262Y82900D02*
D03*
X315144D02*
D03*
X295262Y72900D02*
D03*
X315144D02*
D03*
X295262Y62900D02*
D03*
X315144D02*
D03*
X295262Y52900D02*
D03*
X315144D02*
D03*
X295262Y42900D02*
D03*
X315144D02*
D03*
M02*
