G04*
G04 #@! TF.GenerationSoftware,Altium Limited,Altium Designer,22.9.1 (49)*
G04*
G04 Layer_Color=255*
%FSLAX25Y25*%
%MOIN*%
G70*
G04*
G04 #@! TF.SameCoordinates,874C2829-7940-4526-9E93-E1EEED9EE5DD*
G04*
G04*
G04 #@! TF.FilePolarity,Positive*
G04*
G01*
G75*
%ADD20R,0.02200X0.07400*%
%ADD24R,0.08740X0.04016*%
%ADD25R,0.03543X0.02756*%
%ADD26R,0.03937X0.06299*%
G04:AMPARAMS|DCode=27|XSize=27.17mil|YSize=12.6mil|CornerRadius=1.58mil|HoleSize=0mil|Usage=FLASHONLY|Rotation=0.000|XOffset=0mil|YOffset=0mil|HoleType=Round|Shape=RoundedRectangle|*
%AMROUNDEDRECTD27*
21,1,0.02717,0.00945,0,0,0.0*
21,1,0.02402,0.01260,0,0,0.0*
1,1,0.00315,0.01201,-0.00472*
1,1,0.00315,-0.01201,-0.00472*
1,1,0.00315,-0.01201,0.00472*
1,1,0.00315,0.01201,0.00472*
%
%ADD27ROUNDEDRECTD27*%
%ADD28R,0.04331X0.06693*%
%ADD29R,0.06693X0.04331*%
D20*
X-183540Y-60351D02*
D03*
X-178540D02*
D03*
X-173540D02*
D03*
X-168540D02*
D03*
X-163540D02*
D03*
X-158540D02*
D03*
X-153540D02*
D03*
X-148540D02*
D03*
Y-97651D02*
D03*
X-153540D02*
D03*
X-158540D02*
D03*
X-163540D02*
D03*
X-168540D02*
D03*
X-173540D02*
D03*
X-178540D02*
D03*
X-183540D02*
D03*
D24*
X-45128Y-42008D02*
D03*
Y-52008D02*
D03*
Y-62008D02*
D03*
Y-72008D02*
D03*
Y-82008D02*
D03*
Y-92008D02*
D03*
Y-102008D02*
D03*
Y-112008D02*
D03*
Y-122008D02*
D03*
Y-132008D02*
D03*
Y-192008D02*
D03*
X-22884D02*
D03*
X-45128Y-182008D02*
D03*
X-22884D02*
D03*
X-45128Y-172008D02*
D03*
X-22884D02*
D03*
X-45128Y-162008D02*
D03*
X-22884D02*
D03*
X-45128Y-152008D02*
D03*
X-22884D02*
D03*
X-45128Y-142008D02*
D03*
X-22884D02*
D03*
Y-132008D02*
D03*
Y-122008D02*
D03*
Y-112008D02*
D03*
Y-102008D02*
D03*
Y-92008D02*
D03*
Y-82008D02*
D03*
Y-72008D02*
D03*
Y-62008D02*
D03*
Y-52008D02*
D03*
Y-42008D02*
D03*
X-45128Y-32008D02*
D03*
X-22884D02*
D03*
X-45128Y-22008D02*
D03*
X-22884D02*
D03*
X-45128Y-12008D02*
D03*
X-22884D02*
D03*
X-45128Y-2008D02*
D03*
X-22884D02*
D03*
X-316066Y-192008D02*
D03*
X-293822D02*
D03*
X-316066Y-182008D02*
D03*
X-293822D02*
D03*
X-316066Y-172008D02*
D03*
X-293822D02*
D03*
X-316066Y-162008D02*
D03*
X-293822D02*
D03*
X-316066Y-152008D02*
D03*
X-293822D02*
D03*
X-316066Y-142008D02*
D03*
X-293822D02*
D03*
X-316066Y-132008D02*
D03*
X-293822D02*
D03*
X-316066Y-122008D02*
D03*
X-293822D02*
D03*
X-316066Y-112008D02*
D03*
X-293822D02*
D03*
X-316066Y-102008D02*
D03*
X-293822D02*
D03*
X-316066Y-92008D02*
D03*
X-293822D02*
D03*
X-316066Y-82008D02*
D03*
X-293822D02*
D03*
X-316066Y-72008D02*
D03*
X-293822D02*
D03*
X-316066Y-62008D02*
D03*
X-293822D02*
D03*
X-316066Y-52008D02*
D03*
X-293822D02*
D03*
X-316066Y-42008D02*
D03*
X-293822D02*
D03*
X-316066Y-32008D02*
D03*
X-293822D02*
D03*
X-316066Y-22008D02*
D03*
X-293822D02*
D03*
X-316066Y-12008D02*
D03*
X-293822D02*
D03*
X-316066Y-2008D02*
D03*
X-293822D02*
D03*
D25*
X-187933Y-125991D02*
D03*
Y-120086D02*
D03*
X-152033Y-121168D02*
D03*
Y-115263D02*
D03*
D26*
X-167284Y-119003D02*
D03*
D27*
X-163268Y-116444D02*
D03*
Y-119003D02*
D03*
Y-121562D02*
D03*
X-171300D02*
D03*
Y-119003D02*
D03*
Y-116444D02*
D03*
D28*
X-167284Y-133116D02*
D03*
X-177914D02*
D03*
D29*
X-202099Y-79001D02*
D03*
Y-89631D02*
D03*
M02*
