G04*
G04 #@! TF.GenerationSoftware,Altium Limited,Altium Designer,22.2.1 (43)*
G04*
G04 Layer_Color=32768*
%FSLAX25Y25*%
%MOIN*%
G70*
G04*
G04 #@! TF.SameCoordinates,CB51DA99-0BF3-457E-BF16-783FD1C2B90D*
G04*
G04*
G04 #@! TF.FilePolarity,Positive*
G04*
G01*
G75*
%ADD12C,0.00600*%
%ADD26C,0.00394*%
%ADD27C,0.00197*%
G36*
X190950Y158200D02*
X198350D01*
Y119000D01*
X190950D01*
Y116950D01*
X159050D01*
Y119000D01*
X151650D01*
Y158200D01*
X159050D01*
Y160250D01*
X190950D01*
Y158200D01*
D02*
G37*
D12*
X198350D01*
X190950D02*
Y160250D01*
X159050D02*
X190950D01*
X159050Y158200D02*
Y160250D01*
X151650Y158200D02*
X159050D01*
X151650Y119000D02*
Y158200D01*
Y119000D02*
X159050D01*
Y116950D02*
Y119000D01*
Y116950D02*
X190950D01*
Y119000D01*
X198350D01*
Y158200D01*
D26*
X133330Y140100D02*
X137267D01*
X135299Y138131D02*
Y142069D01*
X139039Y132226D02*
Y147974D01*
X131559Y132226D02*
Y147974D01*
X139039D01*
X131559Y132226D02*
X139039D01*
D27*
X288786Y36916D02*
Y238884D01*
X321739D01*
Y36916D02*
Y238884D01*
X288786Y36916D02*
X321739D01*
X17661D02*
Y238884D01*
X50614D01*
Y36916D02*
Y238884D01*
X17661Y36916D02*
X50614D01*
M02*
