G04*
G04 #@! TF.GenerationSoftware,Altium Limited,Altium Designer,22.2.1 (43)*
G04*
G04 Layer_Physical_Order=2*
G04 Layer_Color=16711680*
%FSLAX25Y25*%
%MOIN*%
G70*
G04*
G04 #@! TF.SameCoordinates,1B7B67EA-CCA2-4B2F-947C-80FE74C8BE87*
G04*
G04*
G04 #@! TF.FilePolarity,Positive*
G04*
G01*
G75*
%ADD11C,0.01000*%
%ADD20C,0.02000*%
%ADD21R,0.09016X0.05000*%
G36*
X12148Y276000D02*
X326852D01*
X339000Y263852D01*
X339000Y263852D01*
Y12148D01*
X326852Y-0D01*
X326852Y-0D01*
X12148D01*
X-0Y12148D01*
Y263852D01*
X12148Y276000D01*
X12148Y276000D01*
D02*
G37*
%LPC*%
G36*
X300770Y236400D02*
X289754D01*
Y234514D01*
X289254Y234465D01*
X289124Y234595D01*
X288388Y234900D01*
X287593D01*
X286858Y234595D01*
X286295Y234033D01*
X285991Y233298D01*
Y232502D01*
X286295Y231767D01*
X286858Y231205D01*
X287593Y230900D01*
X288388D01*
X289124Y231205D01*
X289254Y231335D01*
X289754Y231286D01*
Y229400D01*
X300770D01*
Y236400D01*
D02*
G37*
G36*
X29646D02*
X24638D01*
Y233400D01*
X29646D01*
Y236400D01*
D02*
G37*
G36*
X23638D02*
X18630D01*
Y233400D01*
X23638D01*
Y236400D01*
D02*
G37*
G36*
X43520D02*
X38512D01*
Y233400D01*
X43520D01*
Y236400D01*
D02*
G37*
G36*
X320652D02*
X309636D01*
Y229400D01*
X320652D01*
Y231371D01*
X321235D01*
X321401Y231205D01*
X322136Y230900D01*
X322932D01*
X323667Y231205D01*
X324229Y231767D01*
X324534Y232502D01*
Y233298D01*
X324229Y234033D01*
X323667Y234595D01*
X322932Y234900D01*
X322136D01*
X321401Y234595D01*
X321235Y234429D01*
X320652D01*
Y236400D01*
D02*
G37*
G36*
X49528D02*
X44520D01*
Y232900D01*
Y229400D01*
X49528D01*
Y231371D01*
X53300D01*
X53885Y231487D01*
X54381Y231819D01*
X54713Y232315D01*
X54829Y232900D01*
X54713Y233485D01*
X54381Y233981D01*
X53885Y234313D01*
X53300Y234429D01*
X49528D01*
Y236400D01*
D02*
G37*
G36*
X43520Y232400D02*
X38512D01*
Y229400D01*
X43520D01*
Y232400D01*
D02*
G37*
G36*
X29646Y232400D02*
X24638D01*
Y229400D01*
X29646D01*
Y232400D01*
D02*
G37*
G36*
X23638D02*
X18630D01*
Y229400D01*
X23638D01*
Y232400D01*
D02*
G37*
G36*
X300770Y226400D02*
X289754D01*
Y224515D01*
X289254Y224465D01*
X289124Y224595D01*
X288388Y224900D01*
X287593D01*
X286858Y224595D01*
X286295Y224033D01*
X285991Y223298D01*
Y222502D01*
X286295Y221767D01*
X286858Y221204D01*
X287593Y220900D01*
X288388D01*
X289124Y221204D01*
X289254Y221335D01*
X289754Y221286D01*
Y219400D01*
X300770D01*
Y226400D01*
D02*
G37*
G36*
X29646D02*
X24638D01*
Y223400D01*
X29646D01*
Y226400D01*
D02*
G37*
G36*
X23638D02*
X18630D01*
Y223400D01*
X23638D01*
Y226400D01*
D02*
G37*
G36*
X320652D02*
X315644D01*
Y223400D01*
X320652D01*
Y226400D01*
D02*
G37*
G36*
X49528D02*
X44520D01*
Y223400D01*
X49528D01*
Y226400D01*
D02*
G37*
G36*
X43520D02*
X38512D01*
Y223400D01*
X43520D01*
Y226400D01*
D02*
G37*
G36*
X314644D02*
X309636D01*
Y223400D01*
X314644D01*
Y226400D01*
D02*
G37*
G36*
X320652Y222400D02*
X315644D01*
Y219400D01*
X320652D01*
Y222400D01*
D02*
G37*
G36*
X314644D02*
X309636D01*
Y219400D01*
X314644D01*
Y222400D01*
D02*
G37*
G36*
X49528D02*
X44520D01*
Y219400D01*
X49528D01*
Y222400D01*
D02*
G37*
G36*
X43520D02*
X38512D01*
Y219400D01*
X43520D01*
Y222400D01*
D02*
G37*
G36*
X29646Y222400D02*
X24638D01*
Y219400D01*
X29646D01*
Y222400D01*
D02*
G37*
G36*
X23638D02*
X18630D01*
Y219400D01*
X23638D01*
Y222400D01*
D02*
G37*
G36*
X300770Y216400D02*
X289754D01*
Y214514D01*
X289254Y214465D01*
X289124Y214596D01*
X288388Y214900D01*
X287593D01*
X286858Y214596D01*
X286295Y214033D01*
X285991Y213298D01*
Y212502D01*
X286295Y211767D01*
X286858Y211205D01*
X287593Y210900D01*
X288388D01*
X289124Y211205D01*
X289254Y211335D01*
X289754Y211285D01*
Y209400D01*
X300770D01*
Y216400D01*
D02*
G37*
G36*
X29646D02*
X24638D01*
Y213400D01*
X29646D01*
Y216400D01*
D02*
G37*
G36*
X23638D02*
X18630D01*
Y213400D01*
X23638D01*
Y216400D01*
D02*
G37*
G36*
X320652D02*
X315644D01*
Y213400D01*
X320652D01*
Y216400D01*
D02*
G37*
G36*
X49528D02*
X44520D01*
Y213400D01*
X49528D01*
Y216400D01*
D02*
G37*
G36*
X43520D02*
X38512D01*
Y213400D01*
X43520D01*
Y216400D01*
D02*
G37*
G36*
X314644D02*
X309636D01*
Y213400D01*
X314644D01*
Y216400D01*
D02*
G37*
G36*
X320652Y212400D02*
X315644D01*
Y209400D01*
X320652D01*
Y212400D01*
D02*
G37*
G36*
X314644D02*
X309636D01*
Y209400D01*
X314644D01*
Y212400D01*
D02*
G37*
G36*
X49528D02*
X44520D01*
Y209400D01*
X49528D01*
Y212400D01*
D02*
G37*
G36*
X43520D02*
X38512D01*
Y209400D01*
X43520D01*
Y212400D01*
D02*
G37*
G36*
X29646Y212400D02*
X24638D01*
Y209400D01*
X29646D01*
Y212400D01*
D02*
G37*
G36*
X23638D02*
X18630D01*
Y209400D01*
X23638D01*
Y212400D01*
D02*
G37*
G36*
X300770Y206400D02*
X289754D01*
Y204515D01*
X289254Y204465D01*
X289124Y204595D01*
X288388Y204900D01*
X287593D01*
X286858Y204595D01*
X286295Y204033D01*
X285991Y203298D01*
Y202502D01*
X286295Y201767D01*
X286858Y201204D01*
X287593Y200900D01*
X288388D01*
X289124Y201204D01*
X289254Y201335D01*
X289754Y201286D01*
Y199400D01*
X300770D01*
Y206400D01*
D02*
G37*
G36*
X29646D02*
X24638D01*
Y203400D01*
X29646D01*
Y206400D01*
D02*
G37*
G36*
X23638D02*
X18630D01*
Y203400D01*
X23638D01*
Y206400D01*
D02*
G37*
G36*
X320652D02*
X315644D01*
Y203400D01*
X320652D01*
Y206400D01*
D02*
G37*
G36*
X49528D02*
X44520D01*
Y203400D01*
X49528D01*
Y206400D01*
D02*
G37*
G36*
X43520D02*
X38512D01*
Y203400D01*
X43520D01*
Y206400D01*
D02*
G37*
G36*
X314644D02*
X309636D01*
Y203400D01*
X314644D01*
Y206400D01*
D02*
G37*
G36*
X320652Y202400D02*
X315644D01*
Y199400D01*
X320652D01*
Y202400D01*
D02*
G37*
G36*
X314644D02*
X309636D01*
Y199400D01*
X314644D01*
Y202400D01*
D02*
G37*
G36*
X49528D02*
X44520D01*
Y199400D01*
X49528D01*
Y202400D01*
D02*
G37*
G36*
X43520D02*
X38512D01*
Y199400D01*
X43520D01*
Y202400D01*
D02*
G37*
G36*
X29646Y202400D02*
X24638D01*
Y199400D01*
X29646D01*
Y202400D01*
D02*
G37*
G36*
X23638D02*
X18630D01*
Y199400D01*
X23638D01*
Y202400D01*
D02*
G37*
G36*
X300770Y196400D02*
X289754D01*
Y195672D01*
X289254Y195465D01*
X289124Y195596D01*
X288388Y195900D01*
X287593D01*
X286858Y195596D01*
X286295Y195033D01*
X285991Y194298D01*
Y193502D01*
X286295Y192767D01*
X286858Y192204D01*
X287593Y191900D01*
X288091D01*
X288173Y191819D01*
X288669Y191487D01*
X289254Y191371D01*
X289754D01*
Y189400D01*
X300770D01*
Y196400D01*
D02*
G37*
G36*
X29646D02*
X24638D01*
Y193400D01*
X29646D01*
Y196400D01*
D02*
G37*
G36*
X23638D02*
X18630D01*
Y193400D01*
X23638D01*
Y196400D01*
D02*
G37*
G36*
X320652D02*
X315644D01*
Y193400D01*
X320652D01*
Y196400D01*
D02*
G37*
G36*
X49528D02*
X44520D01*
Y193400D01*
X49528D01*
Y196400D01*
D02*
G37*
G36*
X43520D02*
X38512D01*
Y193400D01*
X43520D01*
Y196400D01*
D02*
G37*
G36*
X314644D02*
X309636D01*
Y193400D01*
X314644D01*
Y196400D01*
D02*
G37*
G36*
X320652Y192400D02*
X315644D01*
Y189400D01*
X320652D01*
Y192400D01*
D02*
G37*
G36*
X314644D02*
X309636D01*
Y189400D01*
X314644D01*
Y192400D01*
D02*
G37*
G36*
X49528D02*
X44520D01*
Y189400D01*
X49528D01*
Y192400D01*
D02*
G37*
G36*
X43520D02*
X38512D01*
Y189400D01*
X43520D01*
Y192400D01*
D02*
G37*
G36*
X29646Y192400D02*
X24638D01*
Y189400D01*
X29646D01*
Y192400D01*
D02*
G37*
G36*
X23638D02*
X18630D01*
Y189400D01*
X23638D01*
Y192400D01*
D02*
G37*
G36*
X29646Y186400D02*
X24638D01*
Y183400D01*
X29646D01*
Y186400D01*
D02*
G37*
G36*
X23638D02*
X18630D01*
Y183400D01*
X23638D01*
Y186400D01*
D02*
G37*
G36*
X320652D02*
X315644D01*
Y183400D01*
X320652D01*
Y186400D01*
D02*
G37*
G36*
X49528D02*
X44520D01*
Y183400D01*
X49528D01*
Y186400D01*
D02*
G37*
G36*
X43520D02*
X38512D01*
Y183400D01*
X43520D01*
Y186400D01*
D02*
G37*
G36*
X314644D02*
X309636D01*
Y183400D01*
X314644D01*
Y186400D01*
D02*
G37*
G36*
X320652Y182400D02*
X315644D01*
Y179400D01*
X320652D01*
Y182400D01*
D02*
G37*
G36*
X314644D02*
X309636D01*
Y179400D01*
X314644D01*
Y182400D01*
D02*
G37*
G36*
X288388Y186900D02*
X287593D01*
X286858Y186595D01*
X286295Y186033D01*
X285991Y185298D01*
Y184502D01*
X286295Y183767D01*
X286858Y183204D01*
X287593Y182900D01*
X288388D01*
X289124Y183204D01*
X289254Y183335D01*
X289754Y183285D01*
Y179400D01*
X300770D01*
Y186400D01*
X293410D01*
X293262Y186429D01*
X289290D01*
X289124Y186595D01*
X288388Y186900D01*
D02*
G37*
G36*
X49528Y182400D02*
X44520D01*
Y179400D01*
X49528D01*
Y182400D01*
D02*
G37*
G36*
X43520D02*
X38512D01*
Y179400D01*
X43520D01*
Y182400D01*
D02*
G37*
G36*
X29646Y182400D02*
X24638D01*
Y179400D01*
X29646D01*
Y182400D01*
D02*
G37*
G36*
X23638D02*
X18630D01*
Y179400D01*
X23638D01*
Y182400D01*
D02*
G37*
G36*
X300770Y176400D02*
X289754D01*
Y176083D01*
X289254Y175749D01*
X288889Y175900D01*
X288093D01*
X287358Y175595D01*
X286796Y175033D01*
X286491Y174298D01*
Y173502D01*
X286796Y172767D01*
X287358Y172204D01*
X288093Y171900D01*
X288376D01*
X288458Y171819D01*
X288954Y171487D01*
X289539Y171371D01*
X289754D01*
Y169400D01*
X300770D01*
Y176400D01*
D02*
G37*
G36*
X29646D02*
X24638D01*
Y173400D01*
X29646D01*
Y176400D01*
D02*
G37*
G36*
X23638D02*
X18630D01*
Y173400D01*
X23638D01*
Y176400D01*
D02*
G37*
G36*
X320652D02*
X315644D01*
Y173400D01*
X320652D01*
Y176400D01*
D02*
G37*
G36*
X49528D02*
X44520D01*
Y173400D01*
X49528D01*
Y176400D01*
D02*
G37*
G36*
X43520D02*
X38512D01*
Y173400D01*
X43520D01*
Y176400D01*
D02*
G37*
G36*
X314644D02*
X309636D01*
Y173400D01*
X314644D01*
Y176400D01*
D02*
G37*
G36*
X320652Y172400D02*
X315644D01*
Y169400D01*
X320652D01*
Y172400D01*
D02*
G37*
G36*
X314644D02*
X309636D01*
Y169400D01*
X314644D01*
Y172400D01*
D02*
G37*
G36*
X49528D02*
X44520D01*
Y169400D01*
X49528D01*
Y172400D01*
D02*
G37*
G36*
X43520D02*
X38512D01*
Y169400D01*
X43520D01*
Y172400D01*
D02*
G37*
G36*
X29646Y172400D02*
X24638D01*
Y169400D01*
X29646D01*
Y172400D01*
D02*
G37*
G36*
X23638D02*
X18630D01*
Y169400D01*
X23638D01*
Y172400D01*
D02*
G37*
G36*
X29646Y166400D02*
X24638D01*
Y163400D01*
X29646D01*
Y166400D01*
D02*
G37*
G36*
X23638D02*
X18630D01*
Y163400D01*
X23638D01*
Y166400D01*
D02*
G37*
G36*
X320652D02*
X315644D01*
Y163400D01*
X320652D01*
Y166400D01*
D02*
G37*
G36*
X49528D02*
X44520D01*
Y163400D01*
X49528D01*
Y166400D01*
D02*
G37*
G36*
X43520D02*
X38512D01*
Y163400D01*
X43520D01*
Y166400D01*
D02*
G37*
G36*
X314644D02*
X309636D01*
Y163400D01*
X314644D01*
Y166400D01*
D02*
G37*
G36*
X320652Y162400D02*
X315644D01*
Y159400D01*
X320652D01*
Y162400D01*
D02*
G37*
G36*
X314644D02*
X309636D01*
Y159400D01*
X314644D01*
Y162400D01*
D02*
G37*
G36*
X300770Y166400D02*
X289754D01*
Y164429D01*
X289171D01*
X288585Y164313D01*
X288089Y163981D01*
X287908Y163800D01*
X287402D01*
X286667Y163496D01*
X286104Y162933D01*
X285800Y162198D01*
Y161402D01*
X286104Y160667D01*
X286667Y160105D01*
X287402Y159800D01*
X288198D01*
X288933Y160105D01*
X289254Y160426D01*
X289754Y160219D01*
Y159400D01*
X300770D01*
Y166400D01*
D02*
G37*
G36*
X49528Y162400D02*
X44520D01*
Y159400D01*
X49528D01*
Y162400D01*
D02*
G37*
G36*
X43520D02*
X38512D01*
Y159400D01*
X43520D01*
Y162400D01*
D02*
G37*
G36*
X29646Y162400D02*
X24638D01*
Y159400D01*
X29646D01*
Y162400D01*
D02*
G37*
G36*
X23638D02*
X18630D01*
Y159400D01*
X23638D01*
Y162400D01*
D02*
G37*
G36*
X300770Y156400D02*
X289754D01*
Y155381D01*
X289254Y155174D01*
X288933Y155496D01*
X288198Y155800D01*
X287402D01*
X286667Y155496D01*
X286104Y154933D01*
X285800Y154198D01*
Y153402D01*
X286104Y152667D01*
X286667Y152104D01*
X287402Y151800D01*
X287917D01*
X288385Y151487D01*
X288971Y151371D01*
X289754D01*
Y149400D01*
X300770D01*
Y156400D01*
D02*
G37*
G36*
X29646D02*
X24638D01*
Y153400D01*
X29646D01*
Y156400D01*
D02*
G37*
G36*
X23638D02*
X18630D01*
Y153400D01*
X23638D01*
Y156400D01*
D02*
G37*
G36*
X320652D02*
X315644D01*
Y153400D01*
X320652D01*
Y156400D01*
D02*
G37*
G36*
X49528D02*
X44520D01*
Y153400D01*
X49528D01*
Y156400D01*
D02*
G37*
G36*
X43520D02*
X38512D01*
Y153400D01*
X43520D01*
Y156400D01*
D02*
G37*
G36*
X314644D02*
X309636D01*
Y153400D01*
X314644D01*
Y156400D01*
D02*
G37*
G36*
X320652Y152400D02*
X315644D01*
Y149400D01*
X320652D01*
Y152400D01*
D02*
G37*
G36*
X314644D02*
X309636D01*
Y149400D01*
X314644D01*
Y152400D01*
D02*
G37*
G36*
X49528D02*
X44520D01*
Y149400D01*
X49528D01*
Y152400D01*
D02*
G37*
G36*
X43520D02*
X38512D01*
Y149400D01*
X43520D01*
Y152400D01*
D02*
G37*
G36*
X29646Y152400D02*
X24638D01*
Y149400D01*
X29646D01*
Y152400D01*
D02*
G37*
G36*
X23638D02*
X18630D01*
Y149400D01*
X23638D01*
Y152400D01*
D02*
G37*
G36*
X300770Y146400D02*
X289754D01*
Y144515D01*
X289254Y144465D01*
X289124Y144596D01*
X288388Y144900D01*
X287593D01*
X286858Y144596D01*
X286295Y144033D01*
X285991Y143298D01*
Y142502D01*
X286295Y141767D01*
X286858Y141205D01*
X287593Y140900D01*
X288388D01*
X289124Y141205D01*
X289254Y141335D01*
X289754Y141286D01*
Y139400D01*
X300770D01*
Y146400D01*
D02*
G37*
G36*
X29646D02*
X24638D01*
Y143400D01*
X29646D01*
Y146400D01*
D02*
G37*
G36*
X23638D02*
X18630D01*
Y143400D01*
X23638D01*
Y146400D01*
D02*
G37*
G36*
X320652D02*
X315644D01*
Y143400D01*
X320652D01*
Y146400D01*
D02*
G37*
G36*
X49528D02*
X44520D01*
Y143400D01*
X49528D01*
Y146400D01*
D02*
G37*
G36*
X43520D02*
X38512D01*
Y143400D01*
X43520D01*
Y146400D01*
D02*
G37*
G36*
X314644D02*
X309636D01*
Y143400D01*
X314644D01*
Y146400D01*
D02*
G37*
G36*
X320652Y142400D02*
X315644D01*
Y139400D01*
X320652D01*
Y142400D01*
D02*
G37*
G36*
X314644D02*
X309636D01*
Y139400D01*
X314644D01*
Y142400D01*
D02*
G37*
G36*
X49528D02*
X44520D01*
Y139400D01*
X49528D01*
Y142400D01*
D02*
G37*
G36*
X43520D02*
X38512D01*
Y139400D01*
X43520D01*
Y142400D01*
D02*
G37*
G36*
X29646Y142400D02*
X24638D01*
Y139400D01*
X29646D01*
Y142400D01*
D02*
G37*
G36*
X23638D02*
X18630D01*
Y139400D01*
X23638D01*
Y142400D01*
D02*
G37*
G36*
X300770Y136400D02*
X289754D01*
Y134514D01*
X289254Y134465D01*
X289124Y134596D01*
X288388Y134900D01*
X287593D01*
X286858Y134596D01*
X286295Y134033D01*
X285991Y133298D01*
Y132502D01*
X286295Y131767D01*
X286858Y131204D01*
X287593Y130900D01*
X288388D01*
X289124Y131204D01*
X289254Y131335D01*
X289754Y131286D01*
Y129400D01*
X300770D01*
Y136400D01*
D02*
G37*
G36*
X29646D02*
X24638D01*
Y133400D01*
X29646D01*
Y136400D01*
D02*
G37*
G36*
X23638D02*
X18630D01*
Y133400D01*
X23638D01*
Y136400D01*
D02*
G37*
G36*
X320652D02*
X315644D01*
Y133400D01*
X320652D01*
Y136400D01*
D02*
G37*
G36*
X49528D02*
X44520D01*
Y133400D01*
X49528D01*
Y136400D01*
D02*
G37*
G36*
X43520D02*
X38512D01*
Y133400D01*
X43520D01*
Y136400D01*
D02*
G37*
G36*
X314644D02*
X309636D01*
Y133400D01*
X314644D01*
Y136400D01*
D02*
G37*
G36*
X320652Y132400D02*
X315644D01*
Y129400D01*
X320652D01*
Y132400D01*
D02*
G37*
G36*
X314644D02*
X309636D01*
Y129400D01*
X314644D01*
Y132400D01*
D02*
G37*
G36*
X49528D02*
X44520D01*
Y129400D01*
X49528D01*
Y132400D01*
D02*
G37*
G36*
X43520D02*
X38512D01*
Y129400D01*
X43520D01*
Y132400D01*
D02*
G37*
G36*
X29646Y132400D02*
X24638D01*
Y129400D01*
X29646D01*
Y132400D01*
D02*
G37*
G36*
X23638D02*
X18630D01*
Y129400D01*
X23638D01*
Y132400D01*
D02*
G37*
G36*
X300770Y126400D02*
X289754D01*
Y124514D01*
X289254Y124465D01*
X289124Y124595D01*
X288388Y124900D01*
X287593D01*
X286858Y124595D01*
X286295Y124033D01*
X285991Y123298D01*
Y122502D01*
X286295Y121767D01*
X286858Y121204D01*
X287593Y120900D01*
X288388D01*
X289124Y121204D01*
X289254Y121335D01*
X289754Y121285D01*
Y119400D01*
X300770D01*
Y126400D01*
D02*
G37*
G36*
X29646D02*
X24638D01*
Y123400D01*
X29646D01*
Y126400D01*
D02*
G37*
G36*
X23638D02*
X18630D01*
Y123400D01*
X23638D01*
Y126400D01*
D02*
G37*
G36*
X320652D02*
X315644D01*
Y123400D01*
X320652D01*
Y126400D01*
D02*
G37*
G36*
X49528D02*
X44520D01*
Y123400D01*
X49528D01*
Y126400D01*
D02*
G37*
G36*
X43520D02*
X38512D01*
Y123400D01*
X43520D01*
Y126400D01*
D02*
G37*
G36*
X314644D02*
X309636D01*
Y123400D01*
X314644D01*
Y126400D01*
D02*
G37*
G36*
X320652Y122400D02*
X315644D01*
Y119400D01*
X320652D01*
Y122400D01*
D02*
G37*
G36*
X314644D02*
X309636D01*
Y119400D01*
X314644D01*
Y122400D01*
D02*
G37*
G36*
X49528D02*
X44520D01*
Y119400D01*
X49528D01*
Y122400D01*
D02*
G37*
G36*
X43520D02*
X38512D01*
Y119400D01*
X43520D01*
Y122400D01*
D02*
G37*
G36*
X29646Y122400D02*
X24638D01*
Y119400D01*
X29646D01*
Y122400D01*
D02*
G37*
G36*
X23638D02*
X18630D01*
Y119400D01*
X23638D01*
Y122400D01*
D02*
G37*
G36*
X300770Y116400D02*
X289754D01*
Y114515D01*
X289254Y114465D01*
X289124Y114595D01*
X288388Y114900D01*
X287593D01*
X286858Y114595D01*
X286295Y114033D01*
X285991Y113298D01*
Y112502D01*
X286295Y111767D01*
X286858Y111205D01*
X287593Y110900D01*
X288388D01*
X289124Y111205D01*
X289254Y111335D01*
X289754Y111285D01*
Y109400D01*
X300770D01*
Y116400D01*
D02*
G37*
G36*
X29646D02*
X24638D01*
Y113400D01*
X29646D01*
Y116400D01*
D02*
G37*
G36*
X23638D02*
X18630D01*
Y113400D01*
X23638D01*
Y116400D01*
D02*
G37*
G36*
X320652D02*
X315644D01*
Y113400D01*
X320652D01*
Y116400D01*
D02*
G37*
G36*
X49528D02*
X44520D01*
Y113400D01*
X49528D01*
Y116400D01*
D02*
G37*
G36*
X43520D02*
X38512D01*
Y113400D01*
X43520D01*
Y116400D01*
D02*
G37*
G36*
X314644D02*
X309636D01*
Y113400D01*
X314644D01*
Y116400D01*
D02*
G37*
G36*
X320652Y112400D02*
X315644D01*
Y109400D01*
X320652D01*
Y112400D01*
D02*
G37*
G36*
X314644D02*
X309636D01*
Y109400D01*
X314644D01*
Y112400D01*
D02*
G37*
G36*
X49528D02*
X44520D01*
Y109400D01*
X49528D01*
Y112400D01*
D02*
G37*
G36*
X43520D02*
X38512D01*
Y109400D01*
X43520D01*
Y112400D01*
D02*
G37*
G36*
X29646Y112400D02*
X24638D01*
Y109400D01*
X29646D01*
Y112400D01*
D02*
G37*
G36*
X23638D02*
X18630D01*
Y109400D01*
X23638D01*
Y112400D01*
D02*
G37*
G36*
X300770Y106400D02*
X289754D01*
Y104515D01*
X289254Y104465D01*
X289124Y104595D01*
X288388Y104900D01*
X287593D01*
X286858Y104595D01*
X286295Y104033D01*
X285991Y103298D01*
Y102502D01*
X286295Y101767D01*
X286858Y101205D01*
X287593Y100900D01*
X288388D01*
X289124Y101205D01*
X289254Y101335D01*
X289754Y101286D01*
Y99400D01*
X300770D01*
Y106400D01*
D02*
G37*
G36*
X29646D02*
X24638D01*
Y103400D01*
X29646D01*
Y106400D01*
D02*
G37*
G36*
X23638D02*
X18630D01*
Y103400D01*
X23638D01*
Y106400D01*
D02*
G37*
G36*
X320652D02*
X315644D01*
Y103400D01*
X320652D01*
Y106400D01*
D02*
G37*
G36*
X49528D02*
X44520D01*
Y103400D01*
X49528D01*
Y106400D01*
D02*
G37*
G36*
X43520D02*
X38512D01*
Y103400D01*
X43520D01*
Y106400D01*
D02*
G37*
G36*
X314644D02*
X309636D01*
Y103400D01*
X314644D01*
Y106400D01*
D02*
G37*
G36*
X320652Y102400D02*
X315644D01*
Y99400D01*
X320652D01*
Y102400D01*
D02*
G37*
G36*
X314644D02*
X309636D01*
Y99400D01*
X314644D01*
Y102400D01*
D02*
G37*
G36*
X49528D02*
X44520D01*
Y99400D01*
X49528D01*
Y102400D01*
D02*
G37*
G36*
X43520D02*
X38512D01*
Y99400D01*
X43520D01*
Y102400D01*
D02*
G37*
G36*
X29646Y102400D02*
X24638D01*
Y99400D01*
X29646D01*
Y102400D01*
D02*
G37*
G36*
X23638D02*
X18630D01*
Y99400D01*
X23638D01*
Y102400D01*
D02*
G37*
G36*
X300770Y96400D02*
X295762D01*
Y93400D01*
X300770D01*
Y96400D01*
D02*
G37*
G36*
X29646D02*
X24638D01*
Y93400D01*
X29646D01*
Y96400D01*
D02*
G37*
G36*
X23638D02*
X18630D01*
Y93400D01*
X23638D01*
Y96400D01*
D02*
G37*
G36*
X320652D02*
X315644D01*
Y93400D01*
X320652D01*
Y96400D01*
D02*
G37*
G36*
X49528D02*
X44520D01*
Y93400D01*
X49528D01*
Y96400D01*
D02*
G37*
G36*
X43520D02*
X38512D01*
Y93400D01*
X43520D01*
Y96400D01*
D02*
G37*
G36*
X314644D02*
X309636D01*
Y93400D01*
X314644D01*
Y96400D01*
D02*
G37*
G36*
X320652Y92400D02*
X315644D01*
Y89400D01*
X320652D01*
Y92400D01*
D02*
G37*
G36*
X314644D02*
X309636D01*
Y89400D01*
X314644D01*
Y92400D01*
D02*
G37*
G36*
X300770Y92400D02*
X295762D01*
Y89400D01*
X300770D01*
Y92400D01*
D02*
G37*
G36*
X294762Y96400D02*
X289754D01*
Y94429D01*
X287990D01*
X287405Y94313D01*
X286909Y93981D01*
X286578Y93485D01*
X286461Y92900D01*
X286578Y92315D01*
X286909Y91819D01*
X287405Y91487D01*
X287990Y91371D01*
X289754D01*
Y89400D01*
X294762D01*
Y92900D01*
Y96400D01*
D02*
G37*
G36*
X49528Y92400D02*
X44520D01*
Y89400D01*
X49528D01*
Y92400D01*
D02*
G37*
G36*
X43520D02*
X38512D01*
Y89400D01*
X43520D01*
Y92400D01*
D02*
G37*
G36*
X29646Y92400D02*
X24638D01*
Y89400D01*
X29646D01*
Y92400D01*
D02*
G37*
G36*
X23638D02*
X18630D01*
Y89400D01*
X23638D01*
Y92400D01*
D02*
G37*
G36*
X300770Y86400D02*
X295762D01*
Y83400D01*
X300770D01*
Y86400D01*
D02*
G37*
G36*
X29646D02*
X24638D01*
Y83400D01*
X29646D01*
Y86400D01*
D02*
G37*
G36*
X294762D02*
X289754D01*
Y83400D01*
X294762D01*
Y86400D01*
D02*
G37*
G36*
X23638D02*
X18630D01*
Y83400D01*
X23638D01*
Y86400D01*
D02*
G37*
G36*
X320652D02*
X315644D01*
Y83400D01*
X320652D01*
Y86400D01*
D02*
G37*
G36*
X49528D02*
X44520D01*
Y83400D01*
X49528D01*
Y86400D01*
D02*
G37*
G36*
X43520D02*
X38512D01*
Y83400D01*
X43520D01*
Y86400D01*
D02*
G37*
G36*
X314644D02*
X309636D01*
Y83400D01*
X314644D01*
Y86400D01*
D02*
G37*
G36*
X320652Y82400D02*
X315644D01*
Y79400D01*
X320652D01*
Y82400D01*
D02*
G37*
G36*
X314644D02*
X309636D01*
Y79400D01*
X314644D01*
Y82400D01*
D02*
G37*
G36*
X300770Y82400D02*
X295762D01*
Y79400D01*
X300770D01*
Y82400D01*
D02*
G37*
G36*
X294762D02*
X289754D01*
Y79400D01*
X294762D01*
Y82400D01*
D02*
G37*
G36*
X49528Y82400D02*
X44520D01*
Y79400D01*
X49528D01*
Y82400D01*
D02*
G37*
G36*
X43520D02*
X38512D01*
Y79400D01*
X43520D01*
Y82400D01*
D02*
G37*
G36*
X29646Y82400D02*
X24638D01*
Y79400D01*
X29646D01*
Y82400D01*
D02*
G37*
G36*
X23638D02*
X18630D01*
Y79400D01*
X23638D01*
Y82400D01*
D02*
G37*
G36*
X300770Y76400D02*
X295762D01*
Y73400D01*
X300770D01*
Y76400D01*
D02*
G37*
G36*
X29646D02*
X24638D01*
Y73400D01*
X29646D01*
Y76400D01*
D02*
G37*
G36*
X294762D02*
X289754D01*
Y73400D01*
X294762D01*
Y76400D01*
D02*
G37*
G36*
X23638D02*
X18630D01*
Y73400D01*
X23638D01*
Y76400D01*
D02*
G37*
G36*
X320652D02*
X315644D01*
Y73400D01*
X320652D01*
Y76400D01*
D02*
G37*
G36*
X49528D02*
X44520D01*
Y73400D01*
X49528D01*
Y76400D01*
D02*
G37*
G36*
X43520D02*
X38512D01*
Y73400D01*
X43520D01*
Y76400D01*
D02*
G37*
G36*
X314644D02*
X309636D01*
Y73400D01*
X314644D01*
Y76400D01*
D02*
G37*
G36*
X320652Y72400D02*
X315644D01*
Y69400D01*
X320652D01*
Y72400D01*
D02*
G37*
G36*
X314644D02*
X309636D01*
Y69400D01*
X314644D01*
Y72400D01*
D02*
G37*
G36*
X300770Y72400D02*
X295762D01*
Y69400D01*
X300770D01*
Y72400D01*
D02*
G37*
G36*
X294762D02*
X289754D01*
Y69400D01*
X294762D01*
Y72400D01*
D02*
G37*
G36*
X49528Y72400D02*
X44520D01*
Y69400D01*
X49528D01*
Y72400D01*
D02*
G37*
G36*
X43520D02*
X38512D01*
Y69400D01*
X43520D01*
Y72400D01*
D02*
G37*
G36*
X29646Y72400D02*
X24638D01*
Y69400D01*
X29646D01*
Y72400D01*
D02*
G37*
G36*
X23638D02*
X18630D01*
Y69400D01*
X23638D01*
Y72400D01*
D02*
G37*
G36*
X300770Y66400D02*
X295762D01*
Y63400D01*
X300770D01*
Y66400D01*
D02*
G37*
G36*
X29646D02*
X24638D01*
Y63400D01*
X29646D01*
Y66400D01*
D02*
G37*
G36*
X294762D02*
X289754D01*
Y63400D01*
X294762D01*
Y66400D01*
D02*
G37*
G36*
X23638D02*
X18630D01*
Y63400D01*
X23638D01*
Y66400D01*
D02*
G37*
G36*
X320652D02*
X315644D01*
Y63400D01*
X320652D01*
Y66400D01*
D02*
G37*
G36*
X49528D02*
X44520D01*
Y63400D01*
X49528D01*
Y66400D01*
D02*
G37*
G36*
X43520D02*
X38512D01*
Y63400D01*
X43520D01*
Y66400D01*
D02*
G37*
G36*
X314644D02*
X309636D01*
Y63400D01*
X314644D01*
Y66400D01*
D02*
G37*
G36*
X320652Y62400D02*
X315644D01*
Y59400D01*
X320652D01*
Y62400D01*
D02*
G37*
G36*
X314644D02*
X309636D01*
Y59400D01*
X314644D01*
Y62400D01*
D02*
G37*
G36*
X300770Y62400D02*
X295762D01*
Y59400D01*
X300770D01*
Y62400D01*
D02*
G37*
G36*
X294762D02*
X289754D01*
Y59400D01*
X294762D01*
Y62400D01*
D02*
G37*
G36*
X49528Y62400D02*
X44520D01*
Y59400D01*
X49528D01*
Y62400D01*
D02*
G37*
G36*
X43520D02*
X38512D01*
Y59400D01*
X43520D01*
Y62400D01*
D02*
G37*
G36*
X29646Y62400D02*
X24638D01*
Y59400D01*
X29646D01*
Y62400D01*
D02*
G37*
G36*
X23638D02*
X18630D01*
Y59400D01*
X23638D01*
Y62400D01*
D02*
G37*
G36*
X300770Y56400D02*
X295762D01*
Y53400D01*
X300770D01*
Y56400D01*
D02*
G37*
G36*
X29646D02*
X24638D01*
Y53400D01*
X29646D01*
Y56400D01*
D02*
G37*
G36*
X294762D02*
X289754D01*
Y53400D01*
X294762D01*
Y56400D01*
D02*
G37*
G36*
X23638D02*
X18630D01*
Y53400D01*
X23638D01*
Y56400D01*
D02*
G37*
G36*
X320652D02*
X315644D01*
Y53400D01*
X320652D01*
Y56400D01*
D02*
G37*
G36*
X49528D02*
X44520D01*
Y53400D01*
X49528D01*
Y56400D01*
D02*
G37*
G36*
X43520D02*
X38512D01*
Y53400D01*
X43520D01*
Y56400D01*
D02*
G37*
G36*
X314644D02*
X309636D01*
Y53400D01*
X314644D01*
Y56400D01*
D02*
G37*
G36*
X320652Y52400D02*
X315644D01*
Y49400D01*
X320652D01*
Y52400D01*
D02*
G37*
G36*
X314644D02*
X309636D01*
Y49400D01*
X314644D01*
Y52400D01*
D02*
G37*
G36*
X300770Y52400D02*
X295762D01*
Y49400D01*
X300770D01*
Y52400D01*
D02*
G37*
G36*
X294762D02*
X289754D01*
Y49400D01*
X294762D01*
Y52400D01*
D02*
G37*
G36*
X49528Y52400D02*
X44520D01*
Y49400D01*
X49528D01*
Y52400D01*
D02*
G37*
G36*
X43520D02*
X38512D01*
Y49400D01*
X43520D01*
Y52400D01*
D02*
G37*
G36*
X29646Y52400D02*
X24638D01*
Y49400D01*
X29646D01*
Y52400D01*
D02*
G37*
G36*
X23638D02*
X18630D01*
Y49400D01*
X23638D01*
Y52400D01*
D02*
G37*
G36*
X300770Y46400D02*
X295762D01*
Y43400D01*
X300770D01*
Y46400D01*
D02*
G37*
G36*
X29646D02*
X24638D01*
Y43400D01*
X29646D01*
Y46400D01*
D02*
G37*
G36*
X294762D02*
X289754D01*
Y43400D01*
X294762D01*
Y46400D01*
D02*
G37*
G36*
X23638D02*
X18630D01*
Y43400D01*
X23638D01*
Y46400D01*
D02*
G37*
G36*
X320652D02*
X315644D01*
Y43400D01*
X320652D01*
Y46400D01*
D02*
G37*
G36*
X49528D02*
X44520D01*
Y43400D01*
X49528D01*
Y46400D01*
D02*
G37*
G36*
X43520D02*
X38512D01*
Y43400D01*
X43520D01*
Y46400D01*
D02*
G37*
G36*
X314644D02*
X309636D01*
Y43400D01*
X314644D01*
Y46400D01*
D02*
G37*
G36*
X320652Y42400D02*
X315644D01*
Y39400D01*
X320652D01*
Y42400D01*
D02*
G37*
G36*
X314644D02*
X309636D01*
Y39400D01*
X314644D01*
Y42400D01*
D02*
G37*
G36*
X300770Y42400D02*
X295762D01*
Y39400D01*
X300770D01*
Y42400D01*
D02*
G37*
G36*
X294762D02*
X289754D01*
Y39400D01*
X294762D01*
Y42400D01*
D02*
G37*
G36*
X49528Y42400D02*
X44520D01*
Y39400D01*
X49528D01*
Y42400D01*
D02*
G37*
G36*
X43520D02*
X38512D01*
Y39400D01*
X43520D01*
Y42400D01*
D02*
G37*
G36*
X29646Y42400D02*
X24638D01*
Y39400D01*
X29646D01*
Y42400D01*
D02*
G37*
G36*
X23638D02*
X18630D01*
Y39400D01*
X23638D01*
Y42400D01*
D02*
G37*
%LPD*%
D11*
X287990Y212900D02*
X295262D01*
X287990Y202900D02*
X295262D01*
X289254Y192900D02*
X295262D01*
X287990Y193900D02*
X288254D01*
X289254Y192900D01*
X315144Y232900D02*
X322534D01*
X44020D02*
X53300D01*
X287990D02*
X295262D01*
X287990Y222900D02*
X295262D01*
X287990Y92900D02*
X295262D01*
X287990Y102900D02*
X295262D01*
X287990Y112900D02*
X295262D01*
X287990Y122900D02*
X295262D01*
X287990Y132900D02*
X295262D01*
X287990Y142900D02*
X295262D01*
X288971Y152900D02*
X295262D01*
X288071Y153800D02*
X288971Y152900D01*
X287800Y153800D02*
X288071D01*
X289171Y162900D02*
X295262D01*
X288071Y161800D02*
X289171Y162900D01*
X287800Y161800D02*
X288071D01*
X288491Y173900D02*
X288539D01*
X289539Y172900D01*
X295262D01*
X287990Y184900D02*
X293262D01*
X295262Y182900D01*
D20*
X287990Y212900D02*
D03*
Y202900D02*
D03*
Y193900D02*
D03*
X184594Y126700D02*
D03*
X322534Y232900D02*
D03*
X53300D02*
D03*
X152400Y140348D02*
D03*
X287990Y232900D02*
D03*
Y222900D02*
D03*
Y92900D02*
D03*
Y102900D02*
D03*
Y112900D02*
D03*
Y122900D02*
D03*
Y132900D02*
D03*
Y142900D02*
D03*
X287800Y153800D02*
D03*
Y161800D02*
D03*
X288491Y173900D02*
D03*
X287990Y184900D02*
D03*
D21*
X44020Y42900D02*
D03*
X24138D02*
D03*
X44020Y52900D02*
D03*
X24138D02*
D03*
X44020Y62900D02*
D03*
X24138D02*
D03*
X44020Y72900D02*
D03*
X24138D02*
D03*
X44020Y82900D02*
D03*
X24138D02*
D03*
X44020Y92900D02*
D03*
X24138D02*
D03*
X44020Y102900D02*
D03*
X24138D02*
D03*
X44020Y112900D02*
D03*
X24138D02*
D03*
X44020Y122900D02*
D03*
X24138D02*
D03*
X44020Y132900D02*
D03*
X24138D02*
D03*
X44020Y142900D02*
D03*
X24138D02*
D03*
X44020Y152900D02*
D03*
X24138D02*
D03*
X44020Y162900D02*
D03*
X24138D02*
D03*
X44020Y172900D02*
D03*
X24138D02*
D03*
X44020Y182900D02*
D03*
X24138D02*
D03*
X44020Y192900D02*
D03*
X24138D02*
D03*
X44020Y202900D02*
D03*
X24138D02*
D03*
X44020Y212900D02*
D03*
X24138D02*
D03*
X44020Y222900D02*
D03*
X24138D02*
D03*
X44020Y232900D02*
D03*
X24138D02*
D03*
X295262D02*
D03*
X315144D02*
D03*
X295262Y222900D02*
D03*
X315144D02*
D03*
X295262Y212900D02*
D03*
X315144D02*
D03*
X295262Y202900D02*
D03*
X315144D02*
D03*
X295262Y192900D02*
D03*
X315144D02*
D03*
X295262Y182900D02*
D03*
X315144D02*
D03*
X295262Y172900D02*
D03*
X315144D02*
D03*
X295262Y162900D02*
D03*
X315144D02*
D03*
X295262Y152900D02*
D03*
X315144D02*
D03*
X295262Y142900D02*
D03*
X315144D02*
D03*
X295262Y132900D02*
D03*
X315144D02*
D03*
X295262Y122900D02*
D03*
X315144D02*
D03*
X295262Y112900D02*
D03*
X315144D02*
D03*
X295262Y102900D02*
D03*
X315144D02*
D03*
X295262Y92900D02*
D03*
X315144D02*
D03*
X295262Y82900D02*
D03*
X315144D02*
D03*
X295262Y72900D02*
D03*
X315144D02*
D03*
X295262Y62900D02*
D03*
X315144D02*
D03*
X295262Y52900D02*
D03*
X315144D02*
D03*
X295262Y42900D02*
D03*
X315144D02*
D03*
M02*
