G04*
G04 #@! TF.GenerationSoftware,Altium Limited,Altium Designer,22.9.1 (49)*
G04*
G04 Layer_Color=65535*
%FSLAX25Y25*%
%MOIN*%
G70*
G04*
G04 #@! TF.SameCoordinates,36612407-E1A3-45C0-BD03-384B5C56F293*
G04*
G04*
G04 #@! TF.FilePolarity,Positive*
G04*
G01*
G75*
%ADD10C,0.00787*%
%ADD11C,0.00500*%
%ADD12C,0.00600*%
%ADD13C,0.00300*%
%ADD14C,0.02000*%
%ADD15C,0.01000*%
G36*
X-154290Y-55651D02*
Y-54651D01*
X-152790D01*
Y-55651D01*
X-154290D01*
D02*
G37*
D10*
X-20817Y6142D02*
G03*
X-20817Y6142I-394J0D01*
G01*
X-291755D02*
G03*
X-291755Y6142I-394J0D01*
G01*
X-174410Y-116444D02*
G03*
X-174410Y-116444I-394J0D01*
G01*
X-44006Y2992D02*
X-24006D01*
X-44006Y-197008D02*
X-24006D01*
X-314944Y2992D02*
X-294944D01*
X-314944Y-197008D02*
X-294944D01*
X-189311Y-123826D02*
Y-122251D01*
X-186555Y-123826D02*
Y-122251D01*
X-153411Y-119003D02*
Y-117428D01*
X-150655Y-119003D02*
Y-117428D01*
X-174174Y-136068D02*
X-171024D01*
X-174174Y-130163D02*
X-171024D01*
X-199146Y-85891D02*
Y-82741D01*
X-205052Y-85891D02*
Y-82741D01*
D11*
X-171221Y-123452D02*
X-163347D01*
X-171221Y-114554D02*
X-163347D01*
D12*
X-187190Y-63551D02*
X-185950D01*
X-146130Y-94451D02*
X-144890D01*
X-187190D02*
X-185950D01*
X-187190D02*
Y-63551D01*
X-146130D02*
X-144890D01*
Y-94451D02*
Y-63551D01*
D13*
X-189405Y-99901D02*
X-186073Y-96569D01*
Y-99901D02*
X-189405Y-96569D01*
X-187739Y-99901D02*
Y-96569D01*
X-186073Y-98235D02*
X-189405D01*
D14*
X-213485Y32382D02*
X-210819D01*
X-212152D01*
Y24384D01*
X-213485D01*
X-210819D01*
X-206820Y29716D02*
Y24384D01*
Y27050D01*
X-205487Y28383D01*
X-204155Y29716D01*
X-202822D01*
X-198823Y24384D02*
X-196157D01*
X-197490D01*
Y29716D01*
X-198823D01*
X-192158Y24384D02*
X-188160D01*
X-186827Y25717D01*
X-188160Y27050D01*
X-190825D01*
X-192158Y28383D01*
X-190825Y29716D01*
X-186827D01*
X-176164Y32382D02*
X-173498D01*
X-174831D01*
Y24384D01*
X-176164D01*
X-173498D01*
X-156170Y32382D02*
X-161502D01*
Y28383D01*
X-158836D01*
X-161502D01*
Y24384D01*
X-153504D02*
X-150838D01*
X-152171D01*
Y32382D01*
X-153504D01*
X-145507Y29716D02*
X-142841D01*
X-141508Y28383D01*
Y24384D01*
X-145507D01*
X-146840Y25717D01*
X-145507Y27050D01*
X-141508D01*
X-138842Y24384D02*
X-134844D01*
X-133511Y25717D01*
X-134844Y27050D01*
X-137510D01*
X-138842Y28383D01*
X-137510Y29716D01*
X-133511D01*
X-130845Y32382D02*
Y24384D01*
Y28383D01*
X-129512Y29716D01*
X-126846D01*
X-125513Y28383D01*
Y24384D01*
D15*
X-174634Y-104955D02*
Y-109953D01*
X-173635Y-110953D01*
X-171635D01*
X-170635Y-109953D01*
Y-104955D01*
X-164637Y-110953D02*
X-168636D01*
X-164637Y-106954D01*
Y-105955D01*
X-165637Y-104955D01*
X-167636D01*
X-168636Y-105955D01*
X-194310Y-114989D02*
Y-108991D01*
X-191311D01*
X-190311Y-109990D01*
Y-111989D01*
X-191311Y-112989D01*
X-194310D01*
X-192310D02*
X-190311Y-114989D01*
X-184313D02*
X-188312D01*
X-184313Y-110990D01*
Y-109990D01*
X-185313Y-108991D01*
X-187312D01*
X-188312Y-109990D01*
X-156032Y-132160D02*
Y-126162D01*
X-153033D01*
X-152033Y-127161D01*
Y-129161D01*
X-153033Y-130160D01*
X-156032D01*
X-154033D02*
X-152033Y-132160D01*
X-150034D02*
X-148035D01*
X-149034D01*
Y-126162D01*
X-150034Y-127161D01*
X-173899Y-139516D02*
X-174899Y-138517D01*
X-176898D01*
X-177898Y-139516D01*
Y-143515D01*
X-176898Y-144515D01*
X-174899D01*
X-173899Y-143515D01*
X-167901Y-144515D02*
X-171899D01*
X-167901Y-140516D01*
Y-139516D01*
X-168900Y-138517D01*
X-170900D01*
X-171899Y-139516D01*
X-188699Y-45118D02*
Y-50116D01*
X-187699Y-51116D01*
X-185700D01*
X-184701Y-50116D01*
Y-45118D01*
X-182701Y-51116D02*
X-180702D01*
X-181701D01*
Y-45118D01*
X-182701Y-46117D01*
X-317401Y15882D02*
X-319400D01*
X-318400D01*
Y10884D01*
X-319400Y9884D01*
X-320399D01*
X-321399Y10884D01*
X-312402Y9884D02*
Y15882D01*
X-315401Y12883D01*
X-311402D01*
X-47868Y15991D02*
X-49867D01*
X-48868D01*
Y10993D01*
X-49867Y9993D01*
X-50867D01*
X-51867Y10993D01*
X-41870Y9993D02*
X-45869D01*
X-41870Y13992D01*
Y14991D01*
X-42870Y15991D01*
X-44869D01*
X-45869Y14991D01*
X-201400Y-67817D02*
X-202400Y-66818D01*
X-204399D01*
X-205399Y-67817D01*
Y-71816D01*
X-204399Y-72816D01*
X-202400D01*
X-201400Y-71816D01*
X-199401Y-72816D02*
X-197402D01*
X-198401D01*
Y-66818D01*
X-199401Y-67817D01*
M02*
